<?xml version="1.0" standalone="no"?>
<!DOCTYPE svg PUBLIC "-//W3C//DTD SVG 20010904//EN"
 "http://www.w3.org/TR/2001/REC-SVG-20010904/DTD/svg10.dtd">
<svg version="1.0" xmlns="http://www.w3.org/2000/svg"
 width="226.000000pt" height="62.000000pt" viewBox="0 0 226.000000 62.000000"
 preserveAspectRatio="xMidYMid meet">

<g transform="translate(0.000000,62.000000) scale(0.100000,-0.100000)"
fill="#000000" stroke="none">
<path d="M0 310 l0 -310 1130 0 1130 0 0 310 0 310 -1130 0 -1130 0 0 -310z
m495 61 c29 -7 29 -7 9 -19 -12 -6 -37 -9 -56 -6 -34 6 -35 5 -56 -47 -12 -28
-26 -49 -30 -45 -4 4 -14 26 -23 49 -16 40 -18 42 -60 42 -60 0 -86 18 -39 26
47 8 217 8 255 0z m348 -38 c-39 -4 -42 -6 -45 -36 -4 -46 -36 -50 -40 -5 -3
31 -6 33 -48 39 -27 4 -2 6 65 6 61 0 91 -2 68 -4z m290 0 c-29 -2 -77 -2
-105 0 -29 2 -6 3 52 3 58 0 81 -1 53 -3z m282 0 c-104 -5 -112 -17 -15 -23
77 -4 85 -7 85 -25 0 -19 -8 -20 -105 -23 -72 -1 -100 1 -90 8 8 5 49 11 90
12 l75 2 -80 5 c-73 6 -80 8 -83 29 -3 22 -2 22 95 20 83 -2 87 -2 28 -5z
m205 -23 l0 -30 77 0 c53 0 74 -3 67 -10 -7 -7 -46 -10 -95 -8 l-84 3 -3 38
c-3 32 0 37 17 37 17 0 21 -6 21 -30z m383 23 c-29 -2 -77 -2 -105 0 -29 2 -6
3 52 3 58 0 81 -1 53 -3z m-838 -33 c-11 -5 -49 -9 -85 -9 -36 0 -74 4 -85 9
-13 6 18 9 85 9 67 0 98 -3 85 -9z m885 -15 c0 -28 -27 -35 -36 -10 -5 11 -22
15 -65 15 -46 0 -59 -3 -59 -15 0 -8 -9 -15 -20 -15 -15 0 -20 7 -20 25 l0 25
100 0 100 0 0 -25z m-880 -15 c-8 -5 -49 -10 -90 -10 -41 0 -82 5 -90 10 -10
7 19 10 90 10 71 0 100 -3 90 -10z"/>
<path d="M348 358 c8 -8 17 -8 34 0 22 10 21 11 -11 11 -27 1 -32 -2 -23 -11z"/>
</g>
</svg>
