<?xml version="1.0" encoding="UTF-8"?>
<svg xmlns="http://www.w3.org/2000/svg" xmlns:xlink="http://www.w3.org/1999/xlink" width="179px" height="50px" viewBox="0 0 179 50" version="1.1">
<g id="surface1">
<path style=" stroke:none;fill-rule:evenodd;fill:rgb(10.588235%,10.588235%,10.588235%);fill-opacity:1;" d="M 15.328125 -0.214844 C 21.246094 -0.214844 27.160156 -0.214844 33.078125 -0.214844 C 33.328125 0.902344 33.46875 2.03125 33.5 3.179688 C 35.058594 3.882812 35.902344 5.152344 36.039062 6.992188 C 37.125 6.84375 38.109375 7.054688 38.992188 7.628906 C 38.023438 8.121094 38.164062 8.542969 39.417969 8.898438 C 36.671875 9.191406 33.992188 9.546875 31.390625 9.957031 C 22.371094 10.03125 13.355469 9.957031 4.339844 9.746094 C 9.347656 9.472656 14.277344 9.191406 19.132812 8.898438 C 16.914062 8.132812 17.058594 7.707031 19.554688 7.628906 C 18.800781 7.136719 17.953125 6.851562 17.019531 6.78125 C 19.019531 6.617188 19.089844 5.984375 17.230469 4.871094 C 17.023438 4.324219 16.949219 3.757812 17.019531 3.179688 C 16.453125 3.179688 15.890625 3.179688 15.328125 3.179688 C 15.328125 2.046875 15.328125 0.917969 15.328125 -0.214844 Z M 15.328125 -0.214844 "/>
<path style=" stroke:none;fill-rule:evenodd;fill:rgb(13.333333%,13.333333%,13.333333%);fill-opacity:1;" d="M 33.078125 -0.214844 C 36.320312 -0.214844 39.558594 -0.214844 42.800781 -0.214844 C 44.578125 2.003906 46.410156 4.191406 48.292969 6.355469 C 49.136719 6.636719 49.984375 6.917969 50.832031 7.203125 C 50.332031 7.382812 49.910156 7.664062 49.5625 8.050781 C 50.566406 8.265625 51.550781 8.550781 52.519531 8.898438 C 49.351562 9.234375 46.253906 9.585938 43.222656 9.957031 C 39.277344 9.957031 35.332031 9.957031 31.390625 9.957031 C 33.992188 9.546875 36.671875 9.191406 39.417969 8.898438 C 38.164062 8.542969 38.023438 8.121094 38.992188 7.628906 C 38.109375 7.054688 37.125 6.84375 36.039062 6.992188 C 35.902344 5.152344 35.058594 3.882812 33.5 3.179688 C 33.46875 2.03125 33.328125 0.902344 33.078125 -0.214844 Z M 33.078125 -0.214844 "/>
<path style=" stroke:none;fill-rule:evenodd;fill:rgb(15.686275%,15.686275%,15.686275%);fill-opacity:1;" d="M 42.800781 -0.214844 C 46.179688 -0.214844 49.5625 -0.214844 52.941406 -0.214844 C 53.566406 0.839844 53.988281 1.96875 54.210938 3.179688 C 56.363281 3.765625 58.195312 4.894531 59.703125 6.566406 C 61.445312 7.257812 63.136719 8.035156 64.777344 8.898438 C 61.609375 9.234375 58.511719 9.585938 55.480469 9.957031 C 51.394531 9.957031 47.304688 9.957031 43.222656 9.957031 C 46.253906 9.585938 49.351562 9.234375 52.519531 8.898438 C 51.550781 8.550781 50.566406 8.265625 49.5625 8.050781 C 49.910156 7.664062 50.332031 7.382812 50.832031 7.203125 C 49.984375 6.917969 49.136719 6.636719 48.292969 6.355469 C 46.410156 4.191406 44.578125 2.003906 42.800781 -0.214844 Z M 42.800781 -0.214844 "/>
<path style=" stroke:none;fill-rule:evenodd;fill:rgb(18.039216%,18.039216%,18.039216%);fill-opacity:1;" d="M 52.941406 -0.214844 C 56.183594 -0.214844 59.421875 -0.214844 62.664062 -0.214844 C 63.351562 0.929688 64.199219 1.984375 65.199219 2.964844 C 67.804688 4.320312 70.480469 5.449219 73.226562 6.355469 C 72.945312 6.496094 72.664062 6.636719 72.382812 6.78125 C 73.652344 6.917969 74.921875 7.0625 76.1875 7.203125 C 76.839844 7.324219 77.402344 7.609375 77.875 8.050781 C 81.40625 8.238281 84.929688 8.523438 88.445312 8.898438 C 81.605469 9.066406 74.84375 9.421875 68.15625 9.957031 C 63.929688 9.957031 59.703125 9.957031 55.480469 9.957031 C 58.511719 9.585938 61.609375 9.234375 64.777344 8.898438 C 63.136719 8.035156 61.445312 7.257812 59.703125 6.566406 C 58.195312 4.894531 56.363281 3.765625 54.210938 3.179688 C 53.988281 1.96875 53.566406 0.839844 52.941406 -0.214844 Z M 52.941406 -0.214844 "/>
<path style=" stroke:none;fill-rule:evenodd;fill:rgb(20.784314%,20.784314%,20.784314%);fill-opacity:1;" d="M 62.664062 -0.214844 C 80.273438 -0.214844 97.882812 -0.214844 115.492188 -0.214844 C 114.769531 0.933594 113.921875 1.992188 112.957031 2.964844 C 111.492188 3.628906 110.082031 4.40625 108.730469 5.296875 C 107.636719 4.996094 106.789062 5.421875 106.195312 6.566406 C 104.113281 6.757812 102.140625 7.25 100.277344 8.050781 C 97.226562 8.269531 94.269531 8.550781 91.402344 8.898438 C 97.679688 9.066406 103.878906 9.417969 109.996094 9.957031 C 96.050781 9.957031 82.105469 9.957031 68.15625 9.957031 C 74.84375 9.421875 81.605469 9.066406 88.445312 8.898438 C 84.929688 8.523438 81.40625 8.238281 77.875 8.050781 C 77.402344 7.609375 76.839844 7.324219 76.1875 7.203125 C 74.921875 7.0625 73.652344 6.917969 72.382812 6.78125 C 72.664062 6.636719 72.945312 6.496094 73.226562 6.355469 C 70.480469 5.449219 67.804688 4.320312 65.199219 2.964844 C 64.199219 1.984375 63.351562 0.929688 62.664062 -0.214844 Z M 62.664062 -0.214844 "/>
<path style=" stroke:none;fill-rule:evenodd;fill:rgb(18.039216%,18.039216%,18.039216%);fill-opacity:1;" d="M 115.492188 -0.214844 C 119.015625 -0.214844 122.535156 -0.214844 126.058594 -0.214844 C 124.6875 0.851562 123.5625 2.195312 122.675781 3.8125 C 119.765625 6.238281 116.523438 7.933594 112.957031 8.898438 C 116.269531 9.179688 119.507812 9.53125 122.675781 9.957031 C 120.28125 9.957031 117.886719 9.957031 115.492188 9.957031 C 113.660156 9.957031 111.828125 9.957031 109.996094 9.957031 C 103.878906 9.417969 97.679688 9.066406 91.402344 8.898438 C 94.269531 8.550781 97.226562 8.269531 100.277344 8.050781 C 102.140625 7.25 104.113281 6.757812 106.195312 6.566406 C 106.789062 5.421875 107.636719 4.996094 108.730469 5.296875 C 110.082031 4.40625 111.492188 3.628906 112.957031 2.964844 C 113.921875 1.992188 114.769531 0.933594 115.492188 -0.214844 Z M 115.492188 -0.214844 "/>
<path style=" stroke:none;fill-rule:evenodd;fill:rgb(15.686275%,15.686275%,15.686275%);fill-opacity:1;" d="M 126.058594 -0.214844 C 128.734375 -0.214844 131.410156 -0.214844 134.085938 -0.214844 C 133.945312 0.785156 133.734375 1.773438 133.453125 2.753906 C 131.773438 4.191406 130.152344 5.675781 128.59375 7.203125 C 128.789062 7.378906 128.925781 7.59375 129.015625 7.835938 C 128.167969 8.191406 127.328125 8.546875 126.480469 8.898438 C 129.21875 9.261719 131.894531 9.617188 134.511719 9.957031 C 130.566406 9.957031 126.621094 9.957031 122.675781 9.957031 C 119.507812 9.53125 116.269531 9.179688 112.957031 8.898438 C 116.523438 7.933594 119.765625 6.238281 122.675781 3.8125 C 123.5625 2.195312 124.6875 0.851562 126.058594 -0.214844 Z M 126.058594 -0.214844 "/>
<path style=" stroke:none;fill-rule:evenodd;fill:rgb(13.333333%,13.333333%,13.333333%);fill-opacity:1;" d="M 134.085938 -0.214844 C 138.03125 -0.214844 141.976562 -0.214844 145.921875 -0.214844 C 144.824219 1 144.050781 2.410156 143.597656 4.027344 C 142.660156 4.628906 142.023438 5.476562 141.695312 6.566406 C 140.285156 6.824219 140.144531 7.320312 141.273438 8.050781 C 140.144531 8.332031 139.019531 8.617188 137.890625 8.898438 C 141.207031 9.140625 144.445312 9.492188 147.609375 9.957031 C 143.246094 9.957031 138.878906 9.957031 134.511719 9.957031 C 131.894531 9.617188 129.21875 9.261719 126.480469 8.898438 C 127.328125 8.546875 128.167969 8.191406 129.015625 7.835938 C 128.925781 7.59375 128.789062 7.378906 128.59375 7.203125 C 130.152344 5.675781 131.773438 4.191406 133.453125 2.753906 C 133.734375 1.773438 133.945312 0.785156 134.085938 -0.214844 Z M 134.085938 -0.214844 "/>
<path style=" stroke:none;fill-rule:evenodd;fill:rgb(10.588235%,10.588235%,10.588235%);fill-opacity:1;" d="M 145.921875 -0.214844 C 151.980469 -0.214844 158.035156 -0.214844 164.097656 -0.214844 C 164.097656 0.917969 164.097656 2.046875 164.097656 3.179688 C 163.53125 3.179688 162.96875 3.179688 162.402344 3.179688 C 162.484375 4.582031 161.921875 5.640625 160.714844 6.355469 C 161.699219 6.496094 162.6875 6.636719 163.671875 6.78125 C 162.011719 7.113281 160.394531 7.042969 158.8125 6.566406 C 158.496094 6.832031 158.140625 7.042969 157.753906 7.203125 C 158.691406 7.644531 159.679688 7.929688 160.714844 8.050781 C 159.46875 8.269531 158.203125 8.550781 156.910156 8.898438 C 164.089844 9.261719 171.277344 9.472656 178.464844 9.535156 C 178.464844 9.675781 178.464844 9.816406 178.464844 9.957031 C 168.179688 9.957031 157.898438 9.957031 147.609375 9.957031 C 144.445312 9.492188 141.207031 9.140625 137.890625 8.898438 C 139.019531 8.617188 140.144531 8.332031 141.273438 8.050781 C 140.144531 7.320312 140.285156 6.824219 141.695312 6.566406 C 142.023438 5.476562 142.660156 4.628906 143.597656 4.027344 C 144.050781 2.410156 144.824219 1 145.921875 -0.214844 Z M 145.921875 -0.214844 "/>
<path style=" stroke:none;fill-rule:evenodd;fill:rgb(8.627451%,8.627451%,8.627451%);fill-opacity:1;" d="M 164.097656 -0.214844 C 168.882812 -0.214844 173.675781 -0.214844 178.464844 -0.214844 C 178.464844 3.035156 178.464844 6.285156 178.464844 9.535156 C 171.277344 9.472656 164.089844 9.261719 156.910156 8.898438 C 158.203125 8.550781 159.46875 8.269531 160.714844 8.050781 C 159.679688 7.929688 158.691406 7.644531 157.753906 7.203125 C 158.140625 7.042969 158.496094 6.832031 158.8125 6.566406 C 160.394531 7.042969 162.011719 7.113281 163.671875 6.78125 C 162.6875 6.636719 161.699219 6.496094 160.714844 6.355469 C 161.921875 5.640625 162.484375 4.582031 162.402344 3.179688 C 162.96875 3.179688 163.53125 3.179688 164.097656 3.179688 C 164.097656 2.046875 164.097656 0.917969 164.097656 -0.214844 Z M 164.097656 -0.214844 "/>
<path style=" stroke:none;fill-rule:evenodd;fill:rgb(30.980392%,30.980392%,30.980392%);fill-opacity:1;" d="M 93.515625 1.90625 C 92.101562 2.152344 90.691406 2.433594 89.289062 2.753906 C 87.765625 2.289062 86.214844 2.21875 84.640625 2.542969 C 84.40625 2.703125 84.261719 2.917969 84.21875 3.179688 C 81.871094 2.230469 82.007812 1.738281 84.640625 1.695312 C 87.671875 1.347656 90.632812 1.417969 93.515625 1.90625 Z M 93.515625 1.90625 "/>
<path style=" stroke:none;fill-rule:evenodd;fill:rgb(40.784314%,40.784314%,40.784314%);fill-opacity:1;" d="M 93.515625 1.90625 C 96.488281 1.703125 96.699219 2.125 94.148438 3.179688 C 93.238281 2.859375 92.320312 2.789062 91.402344 2.964844 C 90.75 4.480469 90.046875 5.964844 89.289062 7.414062 C 88.542969 5.957031 87.839844 4.472656 87.175781 2.964844 C 86.167969 2.730469 85.179688 2.800781 84.21875 3.179688 C 84.261719 2.917969 84.40625 2.703125 84.640625 2.542969 C 86.214844 2.21875 87.765625 2.289062 89.289062 2.753906 C 90.691406 2.433594 92.101562 2.152344 93.515625 1.90625 Z M 93.515625 1.90625 "/>
<path style=" stroke:none;fill-rule:evenodd;fill:rgb(6.27451%,6.27451%,6.27451%);fill-opacity:1;" d="M 115.492188 9.957031 C 117.886719 9.957031 120.28125 9.957031 122.675781 9.957031 C 126.621094 9.957031 130.566406 9.957031 134.511719 9.957031 C 138.878906 9.957031 143.246094 9.957031 147.609375 9.957031 C 157.898438 9.957031 168.179688 9.957031 178.464844 9.957031 C 178.464844 19.5625 178.464844 29.167969 178.464844 38.769531 C 178.324219 38.769531 178.183594 38.769531 178.042969 38.769531 C 178.042969 30.152344 178.042969 21.539062 178.042969 12.921875 C 178.042969 12.21875 178.042969 11.511719 178.042969 10.804688 C 168.601562 10.804688 159.164062 10.804688 149.726562 10.804688 C 144.65625 10.804688 139.582031 10.804688 134.511719 10.804688 C 130 10.804688 125.496094 10.804688 120.984375 10.804688 C 119.15625 10.804688 117.324219 10.804688 115.492188 10.804688 C 115.492188 10.523438 115.492188 10.238281 115.492188 9.957031 Z M 115.492188 9.957031 "/>
<path style=" stroke:none;fill-rule:evenodd;fill:rgb(9.019608%,9.019608%,9.019608%);fill-opacity:1;" d="M 0.113281 -0.214844 C 5.183594 -0.214844 10.253906 -0.214844 15.328125 -0.214844 C 15.328125 0.917969 15.328125 2.046875 15.328125 3.179688 C 15.890625 3.179688 16.453125 3.179688 17.019531 3.179688 C 16.949219 3.757812 17.023438 4.324219 17.230469 4.871094 C 19.089844 5.984375 19.019531 6.617188 17.019531 6.78125 C 17.953125 6.851562 18.800781 7.136719 19.554688 7.628906 C 17.058594 7.707031 16.914062 8.132812 19.132812 8.898438 C 14.277344 9.191406 9.347656 9.472656 4.339844 9.746094 C 13.355469 9.957031 22.371094 10.03125 31.390625 9.957031 C 35.332031 9.957031 39.277344 9.957031 43.222656 9.957031 C 47.304688 9.957031 51.394531 9.957031 55.480469 9.957031 C 59.703125 9.957031 63.929688 9.957031 68.15625 9.957031 C 82.105469 9.957031 96.050781 9.957031 109.996094 9.957031 C 111.828125 9.957031 113.660156 9.957031 115.492188 9.957031 C 115.492188 10.238281 115.492188 10.523438 115.492188 10.804688 C 112.957031 10.804688 110.421875 10.804688 107.886719 10.804688 C 94.21875 10.804688 80.554688 10.804688 66.890625 10.804688 C 62.804688 10.804688 58.71875 10.804688 54.632812 10.804688 C 50.96875 10.804688 47.304688 10.804688 43.644531 10.804688 C 38.855469 10.804688 34.0625 10.804688 29.273438 10.804688 C 19.976562 10.734375 10.679688 10.804688 1.378906 11.015625 C 1.238281 11.15625 1.097656 11.300781 0.957031 11.441406 C 4.328125 11.789062 4.328125 12.003906 0.957031 12.078125 C 0.886719 17.726562 0.957031 23.375 1.171875 29.027344 C 1.566406 28.703125 1.777344 28.277344 1.804688 27.753906 C 1.695312 24.070312 1.695312 20.394531 1.804688 16.738281 C 2.46875 20.542969 2.820312 24.355469 2.859375 28.179688 C 3.003906 24.648438 3.140625 21.117188 3.285156 17.585938 C 3.492188 20.554688 3.773438 20.691406 4.125 18.007812 C 4.675781 18.582031 4.746094 19.148438 4.339844 19.703125 C 7.417969 19.980469 10.375 20.6875 13.214844 21.820312 C 13.636719 21.820312 14.058594 21.820312 14.484375 21.820312 C 16.511719 22.242188 18.625 22.382812 20.820312 22.246094 C 20.953125 24.898438 20.8125 27.511719 20.398438 30.085938 C 21.167969 31.125 21.449219 32.324219 21.246094 33.6875 C 20.820312 33.6875 20.398438 33.6875 19.976562 33.6875 C 19.976562 34.675781 19.976562 35.664062 19.976562 36.652344 C 22.390625 36.398438 24.785156 36.398438 27.160156 36.652344 C 26.804688 37.285156 26.238281 37.566406 25.472656 37.5 C 23.839844 37.410156 22.148438 37.339844 20.398438 37.285156 C 19.628906 36.246094 19.347656 35.046875 19.554688 33.6875 C 18.992188 33.6875 18.429688 33.6875 17.863281 33.6875 C 17.996094 34.847656 17.855469 35.980469 17.441406 37.078125 C 16.195312 37.390625 14.929688 37.605469 13.636719 37.714844 C 25.050781 37.78125 36.464844 37.996094 47.871094 38.347656 C 32.09375 38.699219 16.316406 38.914062 0.535156 38.984375 C 59.777344 39.335938 118.941406 39.265625 178.042969 38.769531 C 178.183594 38.769531 178.324219 38.769531 178.464844 38.769531 C 178.464844 39.054688 178.464844 39.335938 178.464844 39.617188 C 119.015625 39.617188 59.5625 39.617188 0.113281 39.617188 C 0.113281 26.34375 0.113281 13.066406 0.113281 -0.214844 Z M 0.113281 -0.214844 "/>
<path style=" stroke:none;fill-rule:evenodd;fill:rgb(10.588235%,10.588235%,10.588235%);fill-opacity:1;" d="M 29.273438 10.804688 C 29.273438 11.371094 29.273438 11.933594 29.273438 12.5 C 28.851562 12.5 28.429688 12.5 28.007812 12.5 C 27.933594 13.898438 28.21875 14.039062 28.851562 12.921875 C 29.226562 13.273438 29.367188 13.695312 29.273438 14.195312 C 28.851562 14.195312 28.429688 14.195312 28.007812 14.195312 C 27.9375 14.914062 28.007812 15.621094 28.21875 16.3125 C 28.800781 14.71875 29.222656 14.859375 29.484375 16.738281 C 29.628906 16.171875 29.765625 15.605469 29.910156 15.042969 C 30.667969 17.292969 31.09375 17.152344 31.175781 14.617188 C 31.316406 15.324219 31.457031 16.03125 31.597656 16.738281 C 32.089844 15.765625 32.511719 15.902344 32.867188 17.164062 C 33.007812 15.890625 33.148438 14.617188 33.289062 13.347656 C 33.429688 14.476562 33.574219 15.605469 33.710938 16.738281 C 34.027344 17.003906 34.378906 17.214844 34.769531 17.371094 C 34.207031 17.652344 34.207031 17.9375 34.769531 18.21875 C 33.667969 18.609375 32.542969 18.890625 31.390625 19.066406 C 24.199219 19.136719 17.015625 19.351562 9.835938 19.703125 C 10.046875 20.304688 10.46875 20.585938 11.101562 20.550781 C 11.242188 20.550781 11.382812 20.550781 11.523438 20.550781 C 12.085938 20.972656 12.652344 21.398438 13.214844 21.820312 C 10.375 20.6875 7.417969 19.980469 4.339844 19.703125 C 4.746094 19.148438 4.675781 18.582031 4.125 18.007812 C 3.773438 20.691406 3.492188 20.554688 3.285156 17.585938 C 3.140625 21.117188 3.003906 24.648438 2.859375 28.179688 C 2.820312 24.355469 2.46875 20.542969 1.804688 16.738281 C 1.695312 20.394531 1.695312 24.070312 1.804688 27.753906 C 1.777344 28.277344 1.566406 28.703125 1.171875 29.027344 C 0.957031 23.375 0.886719 17.726562 0.957031 12.078125 C 4.328125 12.003906 4.328125 11.789062 0.957031 11.441406 C 1.097656 11.300781 1.238281 11.15625 1.378906 11.015625 C 10.679688 10.804688 19.976562 10.734375 29.273438 10.804688 Z M 29.273438 10.804688 "/>
<path style=" stroke:none;fill-rule:evenodd;fill:rgb(13.333333%,13.333333%,13.72549%);fill-opacity:1;" d="M 29.273438 10.804688 C 34.0625 10.804688 38.855469 10.804688 43.644531 10.804688 C 43.523438 11.5625 43.664062 12.269531 44.066406 12.921875 C 44.488281 13.488281 44.914062 13.488281 45.335938 12.921875 C 45.710938 13.273438 45.847656 13.695312 45.757812 14.195312 C 46.445312 14.136719 46.9375 14.417969 47.238281 15.042969 C 48.179688 15.09375 49.167969 14.957031 50.195312 14.617188 C 50.371094 16.460938 50.652344 16.605469 51.039062 15.042969 C 51.183594 15.605469 51.320312 16.171875 51.464844 16.738281 C 53.238281 16.625 55 16.484375 56.746094 16.3125 C 57.039062 16.535156 57.25 16.820312 57.378906 17.164062 C 58.574219 17.488281 59.839844 17.488281 61.183594 17.164062 C 61.253906 17.300781 61.324219 17.445312 61.394531 17.585938 C 60.761719 17.726562 60.128906 17.867188 59.492188 18.007812 C 58.601562 17.808594 57.828125 17.808594 57.167969 18.007812 C 59.550781 18.785156 61.664062 19.066406 63.507812 18.855469 C 60.550781 18.996094 57.59375 19.136719 54.632812 19.28125 C 51.464844 19.265625 48.363281 18.984375 45.335938 18.433594 C 44.960938 19.058594 44.539062 19.621094 44.066406 20.128906 C 43.796875 18.875 43.585938 17.601562 43.433594 16.3125 C 43.292969 17.019531 43.152344 17.726562 43.007812 18.433594 C 42.726562 18.996094 42.445312 18.996094 42.164062 18.433594 C 41.726562 18.90625 41.441406 19.472656 41.320312 20.128906 C 41.039062 19.5625 40.757812 19.5625 40.472656 20.128906 C 40.25 17.34375 39.898438 17.34375 39.417969 20.128906 C 38.628906 19.9375 37.855469 19.796875 37.09375 19.703125 C 36.917969 20.238281 36.566406 20.519531 36.039062 20.550781 C 32.03125 19.984375 27.875 19.703125 23.566406 19.703125 C 19.261719 19.703125 15.105469 19.984375 11.101562 20.550781 C 10.46875 20.585938 10.046875 20.304688 9.835938 19.703125 C 17.015625 19.351562 24.199219 19.136719 31.390625 19.066406 C 32.542969 18.890625 33.667969 18.609375 34.769531 18.21875 C 34.207031 17.9375 34.207031 17.652344 34.769531 17.371094 C 34.378906 17.214844 34.027344 17.003906 33.710938 16.738281 C 33.574219 15.605469 33.429688 14.476562 33.289062 13.347656 C 33.148438 14.617188 33.007812 15.890625 32.867188 17.164062 C 32.511719 15.902344 32.089844 15.765625 31.597656 16.738281 C 31.457031 16.03125 31.316406 15.324219 31.175781 14.617188 C 31.09375 17.152344 30.667969 17.292969 29.910156 15.042969 C 29.765625 15.605469 29.628906 16.171875 29.484375 16.738281 C 29.222656 14.859375 28.800781 14.71875 28.21875 16.3125 C 28.007812 15.621094 27.9375 14.914062 28.007812 14.195312 C 28.429688 14.195312 28.851562 14.195312 29.273438 14.195312 C 29.367188 13.695312 29.226562 13.273438 28.851562 12.921875 C 28.21875 14.039062 27.933594 13.898438 28.007812 12.5 C 28.429688 12.5 28.851562 12.5 29.273438 12.5 C 29.273438 11.933594 29.273438 11.371094 29.273438 10.804688 Z M 29.273438 10.804688 "/>
<path style=" stroke:none;fill-rule:evenodd;fill:rgb(18.039216%,17.647059%,18.039216%);fill-opacity:1;" d="M 54.632812 10.804688 C 58.71875 10.804688 62.804688 10.804688 66.890625 10.804688 C 66.714844 12.839844 67.351562 13.261719 68.792969 12.078125 C 69.636719 13.207031 70.480469 13.207031 71.328125 12.078125 C 71.585938 12.476562 71.519531 12.832031 71.113281 13.136719 C 72.023438 13.628906 72.9375 14.125 73.859375 14.617188 C 74.054688 14.089844 73.84375 13.738281 73.226562 13.558594 C 73.652344 13.347656 74.074219 13.136719 74.496094 12.921875 C 74.433594 13.550781 74.785156 14.113281 75.554688 14.617188 C 76.085938 14.507812 76.507812 14.226562 76.820312 13.769531 C 76.972656 15.0625 77.253906 15.203125 77.667969 14.195312 C 78.582031 15.371094 78.796875 15.300781 78.300781 13.984375 C 78.722656 13.699219 79.144531 13.699219 79.570312 13.984375 C 79.167969 14.289062 79.09375 14.640625 79.355469 15.042969 C 80.148438 14.714844 80.925781 14.363281 81.683594 13.984375 C 81.140625 14.53125 81.207031 15.027344 81.890625 15.464844 C 81.984375 14.007812 82.410156 13.867188 83.160156 15.042969 C 83.441406 13.347656 83.722656 13.347656 84.003906 15.042969 C 84.148438 14.761719 84.289062 14.476562 84.429688 14.195312 C 84.738281 14.652344 85.164062 14.933594 85.699219 15.042969 C 86.402344 14.476562 87.105469 14.476562 87.808594 15.042969 C 88.34375 14.933594 88.765625 14.652344 89.078125 14.195312 C 89.382812 14.597656 89.734375 14.667969 90.132812 14.40625 C 89.628906 14.128906 89.628906 13.917969 90.132812 13.769531 C 90.476562 14.585938 90.6875 15.433594 90.765625 16.3125 C 90.972656 15.765625 91.046875 15.203125 90.980469 14.617188 C 92.074219 15.015625 93.128906 15.160156 94.148438 15.042969 C 94.429688 13.347656 94.710938 13.347656 94.996094 15.042969 C 96.121094 15.042969 97.246094 15.042969 98.375 15.042969 C 98.480469 14.566406 98.691406 14.140625 99.011719 13.769531 C 99.183594 14.09375 99.253906 14.519531 99.21875 15.042969 C 99.675781 14.238281 100.242188 14.097656 100.910156 14.617188 C 101.941406 13.0625 103.070312 13.0625 104.292969 14.617188 C 104.394531 13.703125 104.820312 12.996094 105.558594 12.5 C 106.148438 13.304688 106.925781 13.445312 107.886719 12.921875 C 107.886719 12.21875 107.886719 11.511719 107.886719 10.804688 C 110.421875 10.804688 112.957031 10.804688 115.492188 10.804688 C 117.324219 10.804688 119.15625 10.804688 120.984375 10.804688 C 120.984375 11.652344 120.984375 12.5 120.984375 13.347656 C 120.566406 13.347656 120.140625 13.347656 119.71875 13.347656 C 119.5625 15.453125 119.351562 15.308594 119.085938 12.921875 C 118.878906 13.472656 118.804688 14.039062 118.871094 14.617188 C 118.316406 14.546875 117.820312 14.6875 117.394531 15.042969 C 117.308594 14.296875 117.097656 13.59375 116.757812 12.921875 C 116.742188 13.953125 116.53125 15.082031 116.125 16.3125 C 115.984375 15.324219 115.84375 14.335938 115.703125 13.347656 C 115.5625 14.476562 115.421875 15.605469 115.28125 16.738281 C 115.023438 15.898438 114.601562 15.757812 114.011719 16.3125 C 113.871094 15.890625 113.730469 15.464844 113.589844 15.042969 C 113.46875 15.695312 113.1875 16.261719 112.742188 16.738281 C 112.605469 15.890625 112.460938 15.042969 112.324219 14.195312 C 112.21875 15.015625 112.003906 15.789062 111.6875 16.527344 C 110.464844 16.363281 109.269531 16.292969 108.09375 16.3125 C 107.957031 16.597656 107.8125 16.878906 107.671875 17.164062 C 107.203125 16.648438 106.710938 16.648438 106.195312 17.164062 C 105.902344 16.9375 105.691406 16.65625 105.558594 16.3125 C 105.363281 18.71875 105.082031 18.859375 104.714844 16.738281 C 104.574219 17.300781 104.433594 17.867188 104.292969 18.433594 C 103.863281 17.359375 103.371094 17.359375 102.8125 18.433594 C 102.554688 17.804688 102.414062 17.242188 102.390625 16.738281 C 101.980469 17.539062 101.839844 18.386719 101.96875 19.28125 C 100.828125 18.609375 99.558594 18.183594 98.164062 18.007812 C 96.03125 18.351562 93.988281 18.351562 92.035156 18.007812 C 91.894531 18.289062 91.753906 18.574219 91.613281 18.855469 C 89.640625 18.574219 87.667969 18.289062 85.699219 18.007812 C 84.277344 17.875 82.941406 18.015625 81.683594 18.433594 C 81.117188 18.148438 80.554688 17.867188 79.988281 17.585938 C 79.917969 17.964844 79.78125 18.386719 79.570312 18.855469 C 78.296875 18.21875 78.015625 18.5 78.722656 19.703125 C 78.722656 21.679688 78.722656 23.65625 78.722656 25.636719 C 78.339844 25.335938 78.199219 24.910156 78.300781 24.363281 C 78.363281 23.917969 78.292969 23.496094 78.089844 23.09375 C 77.136719 22.863281 76.363281 22.371094 75.765625 21.609375 C 76.75 20.648438 76.472656 20.011719 74.921875 19.703125 C 75.140625 19.410156 75.421875 19.199219 75.765625 19.066406 C 75.195312 18.738281 74.839844 18.246094 74.707031 17.585938 C 74.121094 19.183594 73.699219 19.183594 73.441406 17.585938 C 72.65625 18.671875 71.882812 18.671875 71.113281 17.585938 C 69.714844 17.871094 68.375 17.871094 67.101562 17.585938 C 66.601562 16.664062 65.832031 16.242188 64.777344 16.3125 C 64.886719 15.6875 64.746094 15.121094 64.351562 14.617188 C 64.433594 15.121094 64.222656 15.6875 63.71875 16.3125 C 63.460938 15.359375 62.898438 14.652344 62.027344 14.195312 C 60.949219 15.148438 59.894531 15.007812 58.859375 13.769531 C 58.542969 14.140625 58.332031 14.566406 58.226562 15.042969 C 58.082031 14.476562 57.945312 13.914062 57.800781 13.347656 C 57.664062 13.628906 57.519531 13.914062 57.378906 14.195312 C 57.300781 13.175781 57.089844 12.1875 56.746094 11.230469 C 56.722656 11.730469 56.582031 12.296875 56.324219 12.921875 C 56.042969 12.359375 55.761719 11.792969 55.480469 11.230469 C 54.84375 12.871094 54.5625 12.726562 54.632812 10.804688 Z M 54.632812 10.804688 "/>
<path style=" stroke:none;fill-rule:evenodd;fill:rgb(20%,20%,20%);fill-opacity:1;" d="M 66.890625 10.804688 C 80.554688 10.804688 94.21875 10.804688 107.886719 10.804688 C 107.886719 11.511719 107.886719 12.21875 107.886719 12.921875 C 106.925781 13.445312 106.148438 13.304688 105.558594 12.5 C 104.820312 12.996094 104.394531 13.703125 104.292969 14.617188 C 103.070312 13.0625 101.941406 13.0625 100.910156 14.617188 C 100.242188 14.097656 99.675781 14.238281 99.21875 15.042969 C 99.253906 14.519531 99.183594 14.09375 99.011719 13.769531 C 98.691406 14.140625 98.480469 14.566406 98.375 15.042969 C 97.246094 15.042969 96.121094 15.042969 94.996094 15.042969 C 94.710938 13.347656 94.429688 13.347656 94.148438 15.042969 C 93.128906 15.160156 92.074219 15.015625 90.980469 14.617188 C 91.046875 15.203125 90.972656 15.765625 90.765625 16.3125 C 90.6875 15.433594 90.476562 14.585938 90.132812 13.769531 C 89.628906 13.917969 89.628906 14.128906 90.132812 14.40625 C 89.734375 14.667969 89.382812 14.597656 89.078125 14.195312 C 88.765625 14.652344 88.34375 14.933594 87.808594 15.042969 C 87.105469 14.476562 86.402344 14.476562 85.699219 15.042969 C 85.164062 14.933594 84.738281 14.652344 84.429688 14.195312 C 84.289062 14.476562 84.148438 14.761719 84.003906 15.042969 C 83.722656 13.347656 83.441406 13.347656 83.160156 15.042969 C 82.410156 13.867188 81.984375 14.007812 81.890625 15.464844 C 81.207031 15.027344 81.140625 14.53125 81.683594 13.984375 C 80.925781 14.363281 80.148438 14.714844 79.355469 15.042969 C 79.09375 14.640625 79.167969 14.289062 79.570312 13.984375 C 79.144531 13.699219 78.722656 13.699219 78.300781 13.984375 C 78.796875 15.300781 78.582031 15.371094 77.667969 14.195312 C 77.253906 15.203125 76.972656 15.0625 76.820312 13.769531 C 76.507812 14.226562 76.085938 14.507812 75.554688 14.617188 C 74.785156 14.113281 74.433594 13.550781 74.496094 12.921875 C 74.074219 13.136719 73.652344 13.347656 73.226562 13.558594 C 73.84375 13.738281 74.054688 14.089844 73.859375 14.617188 C 72.9375 14.125 72.023438 13.628906 71.113281 13.136719 C 71.519531 12.832031 71.585938 12.476562 71.328125 12.078125 C 70.480469 13.207031 69.636719 13.207031 68.792969 12.078125 C 67.351562 13.261719 66.714844 12.839844 66.890625 10.804688 Z M 66.890625 10.804688 "/>
<path style=" stroke:none;fill-rule:evenodd;fill:rgb(15.294118%,15.294118%,15.294118%);fill-opacity:1;" d="M 120.984375 10.804688 C 125.496094 10.804688 130 10.804688 134.511719 10.804688 C 134.578125 12.222656 134.507812 13.636719 134.296875 15.042969 C 133.878906 12.21875 133.453125 12.21875 133.03125 15.042969 C 132.945312 14.296875 132.734375 13.59375 132.398438 12.921875 C 131.832031 13.515625 131.476562 13.378906 131.339844 12.5 C 131.199219 13.769531 131.058594 15.042969 130.917969 16.3125 C 130.496094 13.488281 130.074219 13.488281 129.648438 16.3125 C 129.511719 15.324219 129.367188 14.335938 129.230469 13.347656 C 128.964844 15.222656 128.542969 15.367188 127.960938 13.769531 C 127.816406 14.902344 127.679688 16.03125 127.535156 17.164062 C 127.453125 16.417969 127.238281 15.710938 126.902344 15.042969 C 127.035156 15.761719 126.820312 16.46875 126.269531 17.164062 C 125.984375 14.335938 125.703125 14.335938 125.421875 17.164062 C 124.953125 16.546875 124.667969 15.839844 124.578125 15.042969 C 124.4375 16.3125 124.296875 17.585938 124.15625 18.855469 C 124.050781 18.378906 123.839844 17.957031 123.519531 17.585938 C 123.179688 18.398438 122.96875 19.246094 122.886719 20.128906 C 122.8125 18.96875 122.597656 17.84375 122.253906 16.738281 C 122.230469 17.242188 122.089844 17.804688 121.832031 18.433594 C 121.515625 18.058594 121.300781 17.636719 121.199219 17.164062 C 121.054688 18.148438 120.917969 19.136719 120.773438 20.128906 C 120.351562 17.867188 119.929688 17.867188 119.507812 20.128906 C 119.367188 19.5625 119.222656 18.996094 119.085938 18.433594 C 118.71875 20.257812 118.292969 20.398438 117.816406 18.855469 C 117.675781 19.984375 117.535156 21.117188 117.394531 22.246094 C 117.3125 21.363281 117.101562 20.519531 116.757812 19.703125 C 116.46875 19.925781 116.253906 20.207031 116.125 20.550781 C 115.914062 22.804688 115.84375 25.066406 115.914062 27.332031 C 115.773438 27.332031 115.632812 27.332031 115.492188 27.332031 C 115.492188 24.785156 115.492188 22.246094 115.492188 19.703125 C 113.96875 19.582031 112.488281 19.722656 111.054688 20.128906 C 110.84375 23.089844 110.773438 26.054688 110.84375 29.027344 C 110.113281 28.199219 109.199219 27.636719 108.09375 27.332031 C 107.867188 29.542969 107.515625 29.542969 107.039062 27.332031 C 106.4375 29.546875 105.945312 29.546875 105.558594 27.332031 C 105.191406 29.453125 104.910156 29.3125 104.714844 26.90625 C 104.574219 27.898438 104.433594 28.882812 104.292969 29.871094 C 103.90625 26.914062 103.488281 26.773438 103.023438 29.449219 C 102.414062 26.710938 101.992188 26.710938 101.757812 29.449219 C 101.59375 29.214844 101.382812 29.070312 101.125 29.027344 C 101.257812 27.105469 101.117188 25.269531 100.699219 23.515625 C 99.769531 23.234375 98.785156 22.953125 97.742188 22.667969 C 97.894531 22.378906 98.035156 22.097656 98.164062 21.820312 C 98.585938 21.539062 99.011719 21.257812 99.429688 20.972656 C 99.714844 20.972656 99.996094 20.972656 100.277344 20.972656 C 101.261719 20.832031 101.828125 20.269531 101.96875 19.28125 C 101.839844 18.386719 101.980469 17.539062 102.390625 16.738281 C 102.414062 17.242188 102.554688 17.804688 102.8125 18.433594 C 103.371094 17.359375 103.863281 17.359375 104.292969 18.433594 C 104.433594 17.867188 104.574219 17.300781 104.714844 16.738281 C 105.082031 18.859375 105.363281 18.71875 105.558594 16.3125 C 105.691406 16.65625 105.902344 16.9375 106.195312 17.164062 C 106.710938 16.648438 107.203125 16.648438 107.671875 17.164062 C 107.8125 16.878906 107.957031 16.597656 108.09375 16.3125 C 109.269531 16.292969 110.464844 16.363281 111.6875 16.527344 C 112.003906 15.789062 112.21875 15.015625 112.324219 14.195312 C 112.460938 15.042969 112.605469 15.890625 112.742188 16.738281 C 113.1875 16.261719 113.46875 15.695312 113.589844 15.042969 C 113.730469 15.464844 113.871094 15.890625 114.011719 16.3125 C 114.601562 15.757812 115.023438 15.898438 115.28125 16.738281 C 115.421875 15.605469 115.5625 14.476562 115.703125 13.347656 C 115.84375 14.335938 115.984375 15.324219 116.125 16.3125 C 116.53125 15.082031 116.742188 13.953125 116.757812 12.921875 C 117.097656 13.59375 117.308594 14.296875 117.394531 15.042969 C 117.820312 14.6875 118.316406 14.546875 118.871094 14.617188 C 118.804688 14.039062 118.878906 13.472656 119.085938 12.921875 C 119.351562 15.308594 119.5625 15.453125 119.71875 13.347656 C 120.140625 13.347656 120.566406 13.347656 120.984375 13.347656 C 120.984375 12.5 120.984375 11.652344 120.984375 10.804688 Z M 120.984375 10.804688 "/>
<path style=" stroke:none;fill-rule:evenodd;fill:rgb(12.941176%,12.941176%,12.941176%);fill-opacity:1;" d="M 134.511719 10.804688 C 139.582031 10.804688 144.65625 10.804688 149.726562 10.804688 C 149.175781 11.214844 148.890625 11.78125 148.878906 12.5 C 150.015625 12.429688 151.144531 12.5 152.261719 12.714844 C 150.257812 13.28125 148.285156 13.351562 146.34375 12.921875 C 146.488281 13.921875 146.699219 14.910156 146.976562 15.890625 C 147.058594 15.007812 147.273438 14.160156 147.609375 13.347656 C 147.785156 14.035156 147.992188 14.882812 148.246094 15.890625 C 148.6875 14.3125 148.898438 14.453125 148.878906 16.3125 C 147.960938 16.613281 147.113281 16.753906 146.34375 16.738281 C 145.441406 16.34375 144.949219 15.636719 144.863281 14.617188 C 144.355469 15.027344 144.144531 15.453125 144.230469 15.890625 C 143.292969 14.863281 142.875 15.144531 142.960938 16.738281 C 142.40625 16.808594 141.910156 16.667969 141.484375 16.3125 C 141.285156 16.996094 141.003906 17.703125 140.640625 18.433594 C 140.496094 17.726562 140.359375 17.019531 140.214844 16.3125 C 139.925781 16.535156 139.710938 16.820312 139.582031 17.164062 C 139.6875 18.1875 139.6875 19.175781 139.582031 20.128906 C 139.101562 17.34375 138.75 17.34375 138.527344 20.128906 C 138.382812 18.996094 138.242188 17.867188 138.101562 16.738281 C 137.960938 18.433594 137.820312 20.128906 137.679688 21.820312 C 137.605469 20.667969 137.390625 19.535156 137.046875 18.433594 C 137.09375 19.515625 136.882812 20.648438 136.414062 21.820312 C 136.257812 16.785156 135.835938 16.785156 135.144531 21.820312 C 135.003906 20.691406 134.863281 19.5625 134.722656 18.433594 C 134.582031 20.269531 134.441406 22.101562 134.296875 23.941406 C 133.878906 18.289062 133.453125 18.289062 133.03125 23.941406 C 132.890625 22.53125 132.75 21.117188 132.609375 19.703125 C 132.53125 20.996094 132.320312 22.269531 131.976562 23.515625 C 131.816406 22.507812 131.605469 21.378906 131.339844 20.128906 C 131.199219 21.820312 131.058594 23.515625 130.917969 25.214844 C 130.496094 20.691406 130.074219 20.691406 129.648438 25.214844 C 129.511719 23.941406 129.367188 22.667969 129.230469 21.398438 C 128.542969 25.863281 128.121094 25.863281 127.960938 21.398438 C 127.816406 22.8125 127.679688 24.222656 127.535156 25.636719 C 127.460938 24.480469 127.246094 23.351562 126.902344 22.246094 C 126.742188 23.101562 126.597656 24.09375 126.480469 25.214844 C 126.621094 25.777344 126.761719 26.34375 126.902344 26.90625 C 127.550781 26.515625 128.113281 26.660156 128.59375 27.332031 C 124.367188 27.332031 120.140625 27.332031 115.914062 27.332031 C 115.84375 25.066406 115.914062 22.804688 116.125 20.550781 C 116.253906 20.207031 116.46875 19.925781 116.757812 19.703125 C 117.101562 20.519531 117.3125 21.363281 117.394531 22.246094 C 117.535156 21.117188 117.675781 19.984375 117.816406 18.855469 C 118.292969 20.398438 118.71875 20.257812 119.085938 18.433594 C 119.222656 18.996094 119.367188 19.5625 119.507812 20.128906 C 119.929688 17.867188 120.351562 17.867188 120.773438 20.128906 C 120.917969 19.136719 121.054688 18.148438 121.199219 17.164062 C 121.300781 17.636719 121.515625 18.058594 121.832031 18.433594 C 122.089844 17.804688 122.230469 17.242188 122.253906 16.738281 C 122.597656 17.84375 122.8125 18.96875 122.886719 20.128906 C 122.96875 19.246094 123.179688 18.398438 123.519531 17.585938 C 123.839844 17.957031 124.050781 18.378906 124.15625 18.855469 C 124.296875 17.585938 124.4375 16.3125 124.578125 15.042969 C 124.667969 15.839844 124.953125 16.546875 125.421875 17.164062 C 125.703125 14.335938 125.984375 14.335938 126.269531 17.164062 C 126.820312 16.46875 127.035156 15.761719 126.902344 15.042969 C 127.238281 15.710938 127.453125 16.417969 127.535156 17.164062 C 127.679688 16.03125 127.816406 14.902344 127.960938 13.769531 C 128.542969 15.367188 128.964844 15.222656 129.230469 13.347656 C 129.367188 14.335938 129.511719 15.324219 129.648438 16.3125 C 130.074219 13.488281 130.496094 13.488281 130.917969 16.3125 C 131.058594 15.042969 131.199219 13.769531 131.339844 12.5 C 131.476562 13.378906 131.832031 13.515625 132.398438 12.921875 C 132.734375 13.59375 132.945312 14.296875 133.03125 15.042969 C 133.453125 12.21875 133.878906 12.21875 134.296875 15.042969 C 134.507812 13.636719 134.578125 12.222656 134.511719 10.804688 Z M 134.511719 10.804688 "/>
<path style=" stroke:none;fill-rule:evenodd;fill:rgb(9.019608%,9.019608%,9.019608%);fill-opacity:1;" d="M 178.042969 12.921875 C 178.042969 21.539062 178.042969 30.152344 178.042969 38.769531 C 161.546875 38.960938 145.066406 38.75 128.59375 38.136719 C 134.234375 38.066406 139.867188 37.851562 145.5 37.5 C 142.117188 37.707031 138.738281 37.496094 135.355469 36.863281 C 139.875 36.652344 144.382812 36.296875 148.878906 35.804688 C 147.753906 35.523438 146.625 35.238281 145.5 34.957031 C 146.710938 34.65625 147.90625 34.375 149.089844 34.109375 C 149.527344 34.839844 149.742188 35.617188 149.726562 36.441406 C 151.285156 36.402344 151.425781 35.839844 150.148438 34.746094 C 151.503906 33.914062 151.929688 34.269531 151.417969 35.804688 C 151.546875 36.148438 151.757812 36.429688 152.050781 36.652344 C 152.191406 35.382812 152.332031 34.109375 152.472656 32.835938 C 152.945312 33.285156 153.15625 33.777344 153.105469 34.320312 C 153.550781 34.53125 153.972656 34.460938 154.375 34.109375 C 155.378906 34.566406 155.449219 35.132812 154.585938 35.804688 C 153.492188 34.523438 152.929688 34.664062 152.894531 36.230469 C 153.363281 36.742188 153.859375 36.742188 154.375 36.230469 C 154.796875 36.371094 155.078125 36.652344 155.21875 37.078125 C 153.097656 37.257812 150.914062 37.257812 148.667969 37.078125 C 148.457031 37.285156 148.246094 37.5 148.035156 37.714844 C 158.839844 38.160156 162.5 38.089844 159.023438 37.5 C 159.152344 36.609375 159.007812 35.761719 158.601562 34.957031 C 158.117188 35.5 158.117188 36.0625 158.601562 36.652344 C 158.09375 37.34375 157.527344 37.488281 156.910156 37.078125 C 157.226562 36.550781 157.367188 35.988281 157.332031 35.382812 C 156.835938 35.289062 156.414062 35.429688 156.066406 35.804688 C 156.527344 36.273438 156.527344 36.699219 156.066406 37.078125 C 155.527344 36.144531 155.527344 35.226562 156.066406 34.320312 C 157.035156 34.3125 158.019531 34.386719 159.023438 34.535156 C 159.144531 33.777344 159.003906 33.070312 158.601562 32.414062 C 158.175781 32.601562 158.175781 32.882812 158.601562 33.261719 C 157.652344 33.675781 156.664062 33.816406 155.640625 33.6875 C 155.855469 31.523438 156.136719 29.476562 156.488281 27.542969 C 156.101562 27.382812 155.75 27.171875 155.433594 26.90625 C 155.289062 28.035156 155.148438 29.167969 155.007812 30.296875 C 154.390625 25.863281 153.96875 25.863281 153.738281 30.296875 C 153.527344 29.03125 153.457031 27.761719 153.527344 26.484375 C 155.640625 26.484375 157.753906 26.484375 159.867188 26.484375 C 159.75 27.730469 159.894531 28.929688 160.289062 30.085938 C 161.394531 30.515625 162.519531 30.871094 163.671875 31.144531 C 164.269531 30.929688 164.554688 30.507812 164.515625 29.871094 C 164.800781 29.871094 164.941406 29.730469 164.941406 29.449219 C 165.742188 27.449219 165.957031 25.328125 165.574219 23.09375 C 165.121094 22.800781 164.628906 22.585938 164.097656 22.457031 C 165.160156 21.710938 166.144531 20.863281 167.050781 19.914062 C 167.453125 19.710938 167.875 19.640625 168.320312 19.703125 C 168.226562 19.207031 168.371094 18.78125 168.746094 18.433594 C 169.214844 18.949219 169.285156 19.515625 168.953125 20.128906 C 168.25 20.832031 167.546875 21.539062 166.84375 22.246094 C 166.628906 24.925781 166.5625 27.609375 166.628906 30.296875 C 167.488281 30.363281 168.332031 30.292969 169.164062 30.085938 C 168.953125 29.871094 168.746094 29.664062 168.53125 29.449219 C 168.0625 26.921875 168.34375 24.523438 169.378906 22.246094 C 169.515625 26.058594 169.660156 29.871094 169.800781 33.6875 C 170.082031 11.085938 170.363281 11.085938 170.644531 33.6875 C 170.785156 33.402344 170.929688 33.121094 171.066406 32.835938 C 171.210938 27.46875 171.347656 22.101562 171.492188 16.738281 C 171.632812 22.386719 171.773438 28.035156 171.914062 33.6875 C 172.125 30.296875 172.195312 26.910156 172.125 23.515625 C 177.195312 23.375 177.195312 23.234375 172.125 23.09375 C 172.058594 22.511719 172.128906 21.945312 172.335938 21.398438 C 173.605469 21.964844 174.875 21.964844 176.140625 21.398438 C 176.28125 22.101562 176.421875 22.8125 176.5625 23.515625 C 176.703125 19.984375 176.84375 16.453125 176.984375 12.921875 C 177.125 19.703125 177.265625 26.484375 177.410156 33.261719 C 177.480469 26.410156 177.691406 19.628906 178.042969 12.921875 Z M 178.042969 12.921875 "/>
<path style=" stroke:none;fill-rule:evenodd;fill:rgb(15.294118%,15.294118%,16.078431%);fill-opacity:1;" d="M 43.644531 10.804688 C 47.304688 10.804688 50.96875 10.804688 54.632812 10.804688 C 54.5625 12.726562 54.84375 12.871094 55.480469 11.230469 C 55.761719 11.792969 56.042969 12.359375 56.324219 12.921875 C 56.582031 12.296875 56.722656 11.730469 56.746094 11.230469 C 57.089844 12.1875 57.300781 13.175781 57.378906 14.195312 C 57.519531 13.914062 57.664062 13.628906 57.800781 13.347656 C 57.945312 13.914062 58.082031 14.476562 58.226562 15.042969 C 58.332031 14.566406 58.542969 14.140625 58.859375 13.769531 C 59.894531 15.007812 60.949219 15.148438 62.027344 14.195312 C 62.898438 14.652344 63.460938 15.359375 63.71875 16.3125 C 64.222656 15.6875 64.433594 15.121094 64.351562 14.617188 C 64.746094 15.121094 64.886719 15.6875 64.777344 16.3125 C 65.832031 16.242188 66.601562 16.664062 67.101562 17.585938 C 68.375 17.871094 69.714844 17.871094 71.113281 17.585938 C 71.882812 18.671875 72.65625 18.671875 73.441406 17.585938 C 73.699219 19.183594 74.121094 19.183594 74.707031 17.585938 C 74.839844 18.246094 75.195312 18.738281 75.765625 19.066406 C 75.421875 19.199219 75.140625 19.410156 74.921875 19.703125 C 76.472656 20.011719 76.75 20.648438 75.765625 21.609375 C 76.363281 22.371094 77.136719 22.863281 78.089844 23.09375 C 78.292969 23.496094 78.363281 23.917969 78.300781 24.363281 C 77.476562 24.25 76.839844 24.53125 76.398438 25.214844 C 76.3125 24.46875 76.101562 23.761719 75.765625 23.09375 C 75.214844 23.609375 74.792969 23.46875 74.496094 22.667969 C 73.953125 23.507812 73.25 23.507812 72.382812 22.667969 C 72.035156 23.621094 71.613281 23.695312 71.113281 22.882812 C 71.339844 22.140625 71.339844 21.507812 71.113281 20.972656 C 70.589844 21.8125 69.953125 21.953125 69.210938 21.398438 C 68.957031 22.238281 68.535156 22.378906 67.945312 21.820312 C 66.460938 22.550781 64.84375 22.902344 63.085938 22.882812 C 64.714844 22.957031 66.261719 23.167969 67.734375 23.515625 C 65.480469 23.515625 63.226562 23.515625 60.972656 23.515625 C 58.433594 23.515625 55.898438 23.515625 53.363281 23.515625 C 50.511719 23.253906 47.832031 23.535156 45.335938 24.363281 C 44.769531 24.019531 44.347656 23.523438 44.066406 22.882812 C 45.980469 22.59375 47.882812 22.664062 49.769531 23.09375 C 50.355469 23.015625 50.707031 22.730469 50.832031 22.246094 C 55.621094 22.316406 60.410156 22.246094 65.199219 22.035156 C 65.632812 21.816406 66.054688 21.605469 66.464844 21.398438 C 66.976562 21.214844 67.402344 20.933594 67.734375 20.550781 C 67.964844 20.527344 68.105469 20.382812 68.15625 20.128906 C 60.550781 19.5625 52.941406 19.5625 45.335938 20.128906 C 45.777344 20.855469 46.339844 21.417969 47.023438 21.820312 C 45.679688 21.785156 44.695312 21.21875 44.066406 20.128906 C 44.539062 19.621094 44.960938 19.058594 45.335938 18.433594 C 48.363281 18.984375 51.464844 19.265625 54.632812 19.28125 C 57.59375 19.136719 60.550781 18.996094 63.507812 18.855469 C 61.664062 19.066406 59.550781 18.785156 57.167969 18.007812 C 57.828125 17.808594 58.601562 17.808594 59.492188 18.007812 C 60.128906 17.867188 60.761719 17.726562 61.394531 17.585938 C 61.324219 17.445312 61.253906 17.300781 61.183594 17.164062 C 59.839844 17.488281 58.574219 17.488281 57.378906 17.164062 C 57.25 16.820312 57.039062 16.535156 56.746094 16.3125 C 55 16.484375 53.238281 16.625 51.464844 16.738281 C 51.320312 16.171875 51.183594 15.605469 51.039062 15.042969 C 50.652344 16.605469 50.371094 16.460938 50.195312 14.617188 C 49.167969 14.957031 48.179688 15.09375 47.238281 15.042969 C 46.9375 14.417969 46.445312 14.136719 45.757812 14.195312 C 45.847656 13.695312 45.710938 13.273438 45.335938 12.921875 C 44.914062 13.488281 44.488281 13.488281 44.066406 12.921875 C 43.664062 12.269531 43.523438 11.5625 43.644531 10.804688 Z M 43.644531 10.804688 "/>
<path style=" stroke:none;fill-rule:evenodd;fill:rgb(10.588235%,10.588235%,10.588235%);fill-opacity:1;" d="M 149.726562 10.804688 C 159.164062 10.804688 168.601562 10.804688 178.042969 10.804688 C 178.042969 11.511719 178.042969 12.21875 178.042969 12.921875 C 177.691406 19.628906 177.480469 26.410156 177.410156 33.261719 C 177.265625 26.484375 177.125 19.703125 176.984375 12.921875 C 176.84375 16.453125 176.703125 19.984375 176.5625 23.515625 C 176.421875 22.8125 176.28125 22.101562 176.140625 21.398438 C 174.875 21.964844 173.605469 21.964844 172.335938 21.398438 C 172.128906 21.945312 172.058594 22.511719 172.125 23.09375 C 177.195312 23.234375 177.195312 23.375 172.125 23.515625 C 172.195312 26.910156 172.125 30.296875 171.914062 33.6875 C 171.773438 28.035156 171.632812 22.386719 171.492188 16.738281 C 171.347656 22.101562 171.210938 27.46875 171.066406 32.835938 C 170.929688 33.121094 170.785156 33.402344 170.644531 33.6875 C 170.363281 11.085938 170.082031 11.085938 169.800781 33.6875 C 169.660156 29.871094 169.515625 26.058594 169.378906 22.246094 C 168.34375 24.523438 168.0625 26.921875 168.53125 29.449219 C 168.746094 29.664062 168.953125 29.871094 169.164062 30.085938 C 168.332031 30.292969 167.488281 30.363281 166.628906 30.296875 C 166.5625 27.609375 166.628906 24.925781 166.84375 22.246094 C 167.546875 21.539062 168.25 20.832031 168.953125 20.128906 C 169.285156 19.515625 169.214844 18.949219 168.746094 18.433594 C 168.371094 18.78125 168.226562 19.207031 168.320312 19.703125 C 167.875 19.640625 167.453125 19.710938 167.050781 19.914062 C 166.144531 20.863281 165.160156 21.710938 164.097656 22.457031 C 164.628906 22.585938 165.121094 22.800781 165.574219 23.09375 C 165.957031 25.328125 165.742188 27.449219 164.941406 29.449219 C 164.941406 27.613281 164.941406 25.777344 164.941406 23.941406 C 164.941406 23.65625 164.800781 23.515625 164.515625 23.515625 C 157.828125 23.09375 151.066406 22.953125 144.230469 23.09375 C 144.128906 22.546875 144.273438 22.125 144.65625 21.820312 C 145.890625 22.160156 147.160156 22.300781 148.457031 22.246094 C 153.109375 22.316406 157.757812 22.246094 162.402344 22.035156 C 162.792969 21.914062 163.074219 21.703125 163.25 21.398438 C 163.667969 21.472656 163.949219 21.328125 164.097656 20.972656 C 164.726562 21.011719 165.148438 20.726562 165.363281 20.128906 C 157.617188 19.5625 149.867188 19.5625 142.117188 20.128906 C 142.269531 20.5625 142.550781 20.84375 142.960938 20.972656 C 142.960938 21.820312 142.960938 22.667969 142.960938 23.515625 C 142.960938 25.636719 142.960938 27.753906 142.960938 29.871094 C 144.460938 30.003906 145.867188 29.863281 147.191406 29.449219 C 147.597656 28.554688 147.742188 27.566406 147.609375 26.484375 C 149.585938 26.484375 151.554688 26.484375 153.527344 26.484375 C 153.457031 27.761719 153.527344 29.03125 153.738281 30.296875 C 153.96875 25.863281 154.390625 25.863281 155.007812 30.296875 C 155.148438 29.167969 155.289062 28.035156 155.433594 26.90625 C 155.75 27.171875 156.101562 27.382812 156.488281 27.542969 C 156.136719 29.476562 155.855469 31.523438 155.640625 33.6875 C 156.664062 33.816406 157.652344 33.675781 158.601562 33.261719 C 158.175781 32.882812 158.175781 32.601562 158.601562 32.414062 C 159.003906 33.070312 159.144531 33.777344 159.023438 34.535156 C 158.019531 34.386719 157.035156 34.3125 156.066406 34.320312 C 155.527344 35.226562 155.527344 36.144531 156.066406 37.078125 C 156.527344 36.699219 156.527344 36.273438 156.066406 35.804688 C 156.414062 35.429688 156.835938 35.289062 157.332031 35.382812 C 157.367188 35.988281 157.226562 36.550781 156.910156 37.078125 C 157.527344 37.488281 158.09375 37.34375 158.601562 36.652344 C 158.117188 36.0625 158.117188 35.5 158.601562 34.957031 C 159.007812 35.761719 159.152344 36.609375 159.023438 37.5 C 162.5 38.089844 158.839844 38.160156 148.035156 37.714844 C 148.246094 37.5 148.457031 37.285156 148.667969 37.078125 C 150.914062 37.257812 153.097656 37.257812 155.21875 37.078125 C 155.078125 36.652344 154.796875 36.371094 154.375 36.230469 C 153.859375 36.742188 153.363281 36.742188 152.894531 36.230469 C 152.929688 34.664062 153.492188 34.523438 154.585938 35.804688 C 155.449219 35.132812 155.378906 34.566406 154.375 34.109375 C 153.972656 34.460938 153.550781 34.53125 153.105469 34.320312 C 153.15625 33.777344 152.945312 33.285156 152.472656 32.835938 C 152.332031 34.109375 152.191406 35.382812 152.050781 36.652344 C 151.757812 36.429688 151.546875 36.148438 151.417969 35.804688 C 151.929688 34.269531 151.503906 33.914062 150.148438 34.746094 C 151.425781 35.839844 151.285156 36.402344 149.726562 36.441406 C 149.742188 35.617188 149.527344 34.839844 149.089844 34.109375 C 147.90625 34.375 146.710938 34.65625 145.5 34.957031 C 146.625 35.238281 147.753906 35.523438 148.878906 35.804688 C 144.382812 36.296875 139.875 36.652344 135.355469 36.863281 C 138.738281 37.496094 142.117188 37.707031 145.5 37.5 C 139.867188 37.851562 134.234375 38.066406 128.59375 38.136719 C 145.066406 38.75 161.546875 38.960938 178.042969 38.769531 C 118.941406 39.265625 59.777344 39.335938 0.535156 38.984375 C 16.316406 38.914062 32.09375 38.699219 47.871094 38.347656 C 36.464844 37.996094 25.050781 37.78125 13.636719 37.714844 C 14.929688 37.605469 16.195312 37.390625 17.441406 37.078125 C 17.855469 35.980469 17.996094 34.847656 17.863281 33.6875 C 18.429688 33.6875 18.992188 33.6875 19.554688 33.6875 C 19.347656 35.046875 19.628906 36.246094 20.398438 37.285156 C 22.148438 37.339844 23.839844 37.410156 25.472656 37.5 C 26.238281 37.566406 26.804688 37.285156 27.160156 36.652344 C 24.785156 36.398438 22.390625 36.398438 19.976562 36.652344 C 19.976562 35.664062 19.976562 34.675781 19.976562 33.6875 C 20.398438 33.6875 20.820312 33.6875 21.246094 33.6875 C 21.449219 32.324219 21.167969 31.125 20.398438 30.085938 C 20.8125 27.511719 20.953125 24.898438 20.820312 22.246094 C 21.238281 24.707031 21.382812 27.25 21.246094 29.871094 C 22.796875 29.871094 24.34375 29.871094 25.894531 29.871094 C 25.894531 27.332031 25.894531 24.785156 25.894531 22.246094 C 28.230469 22.382812 30.484375 22.242188 32.65625 21.820312 C 33.269531 21.851562 33.835938 21.710938 34.34375 21.398438 C 34.488281 21.398438 34.628906 21.398438 34.769531 21.398438 C 35.28125 21.214844 35.703125 20.933594 36.039062 20.550781 C 36.566406 20.519531 36.917969 20.238281 37.09375 19.703125 C 37.855469 19.796875 38.628906 19.9375 39.417969 20.128906 C 39.898438 17.34375 40.25 17.34375 40.472656 20.128906 C 40.757812 19.5625 41.039062 19.5625 41.320312 20.128906 C 41.441406 19.472656 41.726562 18.90625 42.164062 18.433594 C 42.445312 18.996094 42.726562 18.996094 43.007812 18.433594 C 43.152344 17.726562 43.292969 17.019531 43.433594 16.3125 C 43.585938 17.601562 43.796875 18.875 44.066406 20.128906 C 44.695312 21.21875 45.679688 21.785156 47.023438 21.820312 C 47.304688 21.820312 47.589844 21.820312 47.871094 21.820312 C 48.011719 21.820312 48.152344 21.820312 48.292969 21.820312 C 49.039062 22.230469 49.886719 22.371094 50.832031 22.246094 C 50.707031 22.730469 50.355469 23.015625 49.769531 23.09375 C 47.882812 22.664062 45.980469 22.59375 44.066406 22.882812 C 44.347656 23.523438 44.769531 24.019531 45.335938 24.363281 C 46.191406 25.074219 47.175781 25.570312 48.292969 25.847656 C 52.796875 26.058594 57.308594 26.128906 61.816406 26.058594 C 60.347656 26.40625 58.796875 26.621094 57.167969 26.695312 C 56.933594 26.855469 56.792969 27.070312 56.746094 27.332031 C 52.941406 27.261719 49.136719 27.332031 45.335938 27.542969 C 44.75 28.160156 44.890625 28.515625 45.757812 28.601562 C 46.222656 29.050781 46.785156 29.402344 47.449219 29.664062 C 53.363281 29.871094 59.277344 29.945312 65.199219 29.871094 C 67.292969 30.242188 68.417969 29.394531 68.578125 27.332031 C 70.433594 26.601562 71.421875 27.308594 71.539062 29.449219 C 72.59375 29.375 73.367188 29.800781 73.859375 30.71875 C 74.109375 29.378906 74.53125 29.234375 75.128906 30.296875 C 76.292969 29.71875 76.503906 30.003906 75.765625 31.144531 C 75.789062 31.667969 76 32.09375 76.398438 32.414062 C 76.539062 31.425781 76.679688 30.4375 76.820312 29.449219 C 76.972656 30.738281 77.253906 30.878906 77.667969 29.871094 C 85.386719 30.4375 93.0625 30.4375 100.699219 29.871094 C 101.054688 29.726562 101.195312 29.445312 101.125 29.027344 C 101.382812 29.070312 101.59375 29.214844 101.757812 29.449219 C 101.992188 26.710938 102.414062 26.710938 103.023438 29.449219 C 103.488281 26.773438 103.90625 26.914062 104.292969 29.871094 C 104.433594 28.882812 104.574219 27.898438 104.714844 26.90625 C 104.910156 29.3125 105.191406 29.453125 105.558594 27.332031 C 105.945312 29.546875 106.4375 29.546875 107.039062 27.332031 C 107.515625 29.542969 107.867188 29.542969 108.09375 27.332031 C 109.199219 27.636719 110.113281 28.199219 110.84375 29.027344 C 113.859375 29.589844 117.027344 29.871094 120.351562 29.871094 C 123.59375 29.871094 126.765625 29.730469 129.863281 29.449219 C 130.40625 29.550781 130.828125 29.410156 131.128906 29.027344 C 131.722656 28.824219 132.003906 28.402344 131.976562 27.753906 C 130.9375 27.339844 129.8125 27.203125 128.59375 27.332031 C 128.113281 26.660156 127.550781 26.515625 126.902344 26.90625 C 126.761719 26.34375 126.621094 25.777344 126.480469 25.214844 C 126.597656 24.09375 126.742188 23.101562 126.902344 22.246094 C 127.246094 23.351562 127.460938 24.480469 127.535156 25.636719 C 127.679688 24.222656 127.816406 22.8125 127.960938 21.398438 C 128.121094 25.863281 128.542969 25.863281 129.230469 21.398438 C 129.367188 22.667969 129.511719 23.941406 129.648438 25.214844 C 130.074219 20.691406 130.496094 20.691406 130.917969 25.214844 C 131.058594 23.515625 131.199219 21.820312 131.339844 20.128906 C 131.605469 21.378906 131.816406 22.507812 131.976562 23.515625 C 132.320312 22.269531 132.53125 20.996094 132.609375 19.703125 C 132.75 21.117188 132.890625 22.53125 133.03125 23.941406 C 133.453125 18.289062 133.878906 18.289062 134.296875 23.941406 C 134.441406 22.101562 134.582031 20.269531 134.722656 18.433594 C 134.863281 19.5625 135.003906 20.691406 135.144531 21.820312 C 135.835938 16.785156 136.257812 16.785156 136.414062 21.820312 C 136.882812 20.648438 137.09375 19.515625 137.046875 18.433594 C 137.390625 19.535156 137.605469 20.667969 137.679688 21.820312 C 137.820312 20.128906 137.960938 18.433594 138.101562 16.738281 C 138.242188 17.867188 138.382812 18.996094 138.527344 20.128906 C 138.75 17.34375 139.101562 17.34375 139.582031 20.128906 C 139.6875 19.175781 139.6875 18.1875 139.582031 17.164062 C 139.710938 16.820312 139.925781 16.535156 140.214844 16.3125 C 140.359375 17.019531 140.496094 17.726562 140.640625 18.433594 C 141.003906 17.703125 141.285156 16.996094 141.484375 16.3125 C 141.910156 16.667969 142.40625 16.808594 142.960938 16.738281 C 142.875 15.144531 143.292969 14.863281 144.230469 15.890625 C 144.144531 15.453125 144.355469 15.027344 144.863281 14.617188 C 144.949219 15.636719 145.441406 16.34375 146.34375 16.738281 C 147.113281 16.753906 147.960938 16.613281 148.878906 16.3125 C 148.898438 14.453125 148.6875 14.3125 148.246094 15.890625 C 147.992188 14.882812 147.785156 14.035156 147.609375 13.347656 C 147.273438 14.160156 147.058594 15.007812 146.976562 15.890625 C 146.699219 14.910156 146.488281 13.921875 146.34375 12.921875 C 148.285156 13.351562 150.257812 13.28125 152.261719 12.714844 C 151.144531 12.5 150.015625 12.429688 148.878906 12.5 C 148.890625 11.78125 149.175781 11.214844 149.726562 10.804688 Z M 149.726562 10.804688 "/>
<path style=" stroke:none;fill-rule:evenodd;fill:rgb(16.862745%,17.254902%,19.607843%);fill-opacity:1;" d="M 101.96875 19.28125 C 101.828125 20.269531 101.261719 20.832031 100.277344 20.972656 C 100.40625 20.699219 100.546875 20.417969 100.699219 20.128906 C 93.378906 19.703125 86.054688 19.5625 78.722656 19.703125 C 78.015625 18.5 78.296875 18.21875 79.570312 18.855469 C 79.78125 18.386719 79.917969 17.964844 79.988281 17.585938 C 80.554688 17.867188 81.117188 18.148438 81.683594 18.433594 C 82.941406 18.015625 84.277344 17.875 85.699219 18.007812 C 87.667969 18.289062 89.640625 18.574219 91.613281 18.855469 C 91.753906 18.574219 91.894531 18.289062 92.035156 18.007812 C 93.988281 18.351562 96.03125 18.351562 98.164062 18.007812 C 99.558594 18.183594 100.828125 18.609375 101.96875 19.28125 Z M 101.96875 19.28125 "/>
<path style=" stroke:none;fill-rule:evenodd;fill:rgb(35.686275%,36.470588%,44.705882%);fill-opacity:1;" d="M 36.039062 20.550781 C 35.703125 20.933594 35.28125 21.214844 34.769531 21.398438 C 34.769531 20.972656 34.769531 20.550781 34.769531 20.128906 C 31.671875 20.128906 28.570312 20.128906 25.472656 20.128906 C 24.625 20.128906 23.78125 20.128906 22.933594 20.128906 C 19.835938 20.128906 16.734375 20.128906 13.636719 20.128906 C 12.878906 20.070312 12.175781 20.210938 11.523438 20.550781 C 11.382812 20.550781 11.242188 20.550781 11.101562 20.550781 C 15.105469 19.984375 19.261719 19.703125 23.566406 19.703125 C 27.875 19.703125 32.03125 19.984375 36.039062 20.550781 Z M 36.039062 20.550781 "/>
<path style=" stroke:none;fill-rule:evenodd;fill:rgb(40.784314%,42.745098%,51.372549%);fill-opacity:1;" d="M 67.734375 20.550781 C 64.433594 20.128906 61.050781 19.992188 57.59375 20.128906 C 54.492188 20.128906 51.394531 20.128906 48.292969 20.128906 C 47.617188 20.011719 47.054688 20.15625 46.601562 20.550781 C 47.105469 20.878906 47.527344 21.300781 47.871094 21.820312 C 47.589844 21.820312 47.304688 21.820312 47.023438 21.820312 C 46.339844 21.417969 45.777344 20.855469 45.335938 20.128906 C 52.941406 19.5625 60.550781 19.5625 68.15625 20.128906 C 68.105469 20.382812 67.964844 20.527344 67.734375 20.550781 Z M 67.734375 20.550781 "/>
<path style=" stroke:none;fill-rule:evenodd;fill:rgb(43.921569%,45.882353%,56.078431%);fill-opacity:1;" d="M 78.722656 19.703125 C 86.054688 19.5625 93.378906 19.703125 100.699219 20.128906 C 100.546875 20.417969 100.40625 20.699219 100.277344 20.972656 C 99.996094 20.972656 99.714844 20.972656 99.429688 20.972656 C 96.273438 20.410156 92.964844 20.128906 89.5 20.128906 C 86.1875 20.199219 82.878906 20.269531 79.570312 20.335938 C 79.183594 21.058594 79.042969 21.835938 79.144531 22.667969 C 79.144531 22.8125 79.144531 22.953125 79.144531 23.09375 C 79.144531 23.375 79.285156 23.515625 79.570312 23.515625 C 78.992188 24.757812 79.414062 25.460938 80.835938 25.636719 C 83.089844 25.636719 85.34375 25.636719 87.597656 25.636719 C 88.867188 25.636719 90.132812 25.636719 91.402344 25.636719 C 93.035156 25.503906 94.585938 25.644531 96.050781 26.058594 C 90.199219 26.199219 84.421875 26.058594 78.722656 25.636719 C 78.722656 23.65625 78.722656 21.679688 78.722656 19.703125 Z M 78.722656 19.703125 "/>
<path style=" stroke:none;fill-rule:evenodd;fill:rgb(32.54902%,34.901961%,39.607843%);fill-opacity:1;" d="M 164.097656 20.972656 C 164.140625 20.714844 164.285156 20.5 164.515625 20.335938 C 160.996094 20.269531 157.472656 20.199219 153.953125 20.128906 C 150.277344 20.128906 146.753906 20.410156 143.386719 20.972656 C 143.246094 20.972656 143.105469 20.972656 142.960938 20.972656 C 142.550781 20.84375 142.269531 20.5625 142.117188 20.128906 C 149.867188 19.5625 157.617188 19.5625 165.363281 20.128906 C 165.148438 20.726562 164.726562 21.011719 164.097656 20.972656 Z M 164.097656 20.972656 "/>
<path style=" stroke:none;fill-rule:evenodd;fill:rgb(32.941176%,38.039216%,52.941176%);fill-opacity:1;" d="M 57.59375 20.128906 C 61.050781 19.992188 64.433594 20.128906 67.734375 20.550781 C 67.402344 20.933594 66.976562 21.214844 66.464844 21.398438 C 66.421875 21.136719 66.277344 20.921875 66.042969 20.761719 C 63.148438 20.691406 60.332031 20.476562 57.59375 20.128906 Z M 57.59375 20.128906 "/>
<path style=" stroke:none;fill-rule:evenodd;fill:rgb(19.607843%,23.137255%,34.509804%);fill-opacity:1;" d="M 164.097656 20.972656 C 163.949219 21.328125 163.667969 21.472656 163.25 21.398438 C 158.257812 21.644531 153.324219 21.929688 148.457031 22.246094 C 147.160156 22.300781 145.890625 22.160156 144.65625 21.820312 C 144.230469 21.539062 143.808594 21.257812 143.386719 20.972656 C 146.753906 20.410156 150.277344 20.128906 153.953125 20.128906 C 157.472656 20.199219 160.996094 20.269531 164.515625 20.335938 C 164.285156 20.5 164.140625 20.714844 164.097656 20.972656 Z M 164.097656 20.972656 "/>
<path style=" stroke:none;fill-rule:evenodd;fill:rgb(26.27451%,27.058824%,43.529412%);fill-opacity:1;" d="M 13.636719 20.128906 C 16.734375 20.128906 19.835938 20.128906 22.933594 20.128906 C 22.289062 20.910156 21.441406 21.332031 20.398438 21.398438 C 18.710938 21.398438 17.019531 21.398438 15.328125 21.398438 C 14.425781 21.375 13.863281 20.953125 13.636719 20.128906 Z M 13.636719 20.128906 "/>
<path style=" stroke:none;fill-rule:evenodd;fill:rgb(56.470588%,59.607843%,88.235294%);fill-opacity:1;" d="M 46.601562 20.550781 C 47.054688 20.15625 47.617188 20.011719 48.292969 20.128906 C 50.914062 20.4375 53.589844 20.792969 56.324219 21.1875 C 57.351562 21.648438 57.210938 21.859375 55.898438 21.820312 C 52.890625 21.160156 49.792969 20.734375 46.601562 20.550781 Z M 46.601562 20.550781 "/>
<path style=" stroke:none;fill-rule:evenodd;fill:rgb(40.784314%,45.490196%,65.490196%);fill-opacity:1;" d="M 99.429688 20.972656 C 99.011719 21.257812 98.585938 21.539062 98.164062 21.820312 C 93.234375 21.820312 88.300781 21.820312 83.371094 21.820312 C 83.371094 22.386719 83.371094 22.953125 83.371094 23.515625 C 83.089844 23.375 82.808594 23.234375 82.527344 23.09375 C 82.527344 22.386719 82.527344 21.679688 82.527344 20.972656 C 81.539062 20.972656 80.554688 20.972656 79.570312 20.972656 C 79.570312 21.539062 79.570312 22.101562 79.570312 22.667969 C 79.425781 22.667969 79.285156 22.667969 79.144531 22.667969 C 79.042969 21.835938 79.183594 21.058594 79.570312 20.335938 C 82.878906 20.269531 86.1875 20.199219 89.5 20.128906 C 92.964844 20.128906 96.273438 20.410156 99.429688 20.972656 Z M 99.429688 20.972656 "/>
<path style=" stroke:none;fill-rule:evenodd;fill:rgb(40.784314%,46.27451%,74.509804%);fill-opacity:1;" d="M 92.667969 20.550781 C 94.789062 20.480469 96.898438 20.550781 99.011719 20.761719 C 97.699219 21.152344 96.359375 21.363281 94.996094 21.398438 C 94.023438 21.378906 93.25 21.097656 92.667969 20.550781 Z M 92.667969 20.550781 "/>
<path style=" stroke:none;fill-rule:evenodd;fill:rgb(57.647059%,56.862745%,81.960784%);fill-opacity:1;" d="M 13.636719 20.128906 C 13.863281 20.953125 14.425781 21.375 15.328125 21.398438 C 15.183594 21.753906 14.902344 21.894531 14.484375 21.820312 C 14.058594 21.820312 13.636719 21.820312 13.214844 21.820312 C 12.652344 21.398438 12.085938 20.972656 11.523438 20.550781 C 12.175781 20.210938 12.878906 20.070312 13.636719 20.128906 Z M 13.636719 20.128906 "/>
<path style=" stroke:none;fill-rule:evenodd;fill:rgb(54.901961%,54.901961%,81.568627%);fill-opacity:1;" d="M 22.933594 20.128906 C 23.78125 20.128906 24.625 20.128906 25.472656 20.128906 C 26.035156 20.550781 26.597656 20.972656 27.160156 21.398438 C 26.144531 21.242188 25.160156 20.960938 24.203125 20.550781 C 23.25 20.8125 22.40625 21.234375 21.667969 21.820312 C 21.121094 21.921875 20.699219 21.78125 20.398438 21.398438 C 21.441406 21.332031 22.289062 20.910156 22.933594 20.128906 Z M 22.933594 20.128906 "/>
<path style=" stroke:none;fill-rule:evenodd;fill:rgb(29.803922%,32.156863%,53.333333%);fill-opacity:1;" d="M 25.472656 20.128906 C 28.570312 20.128906 31.671875 20.128906 34.769531 20.128906 C 34.769531 20.550781 34.769531 20.972656 34.769531 21.398438 C 34.628906 21.398438 34.488281 21.398438 34.34375 21.398438 C 32.023438 21.070312 29.628906 21.070312 27.160156 21.398438 C 26.597656 20.972656 26.035156 20.550781 25.472656 20.128906 Z M 25.472656 20.128906 "/>
<path style=" stroke:none;fill-rule:evenodd;fill:rgb(36.078431%,39.215686%,57.647059%);fill-opacity:1;" d="M 48.292969 20.128906 C 51.394531 20.128906 54.492188 20.128906 57.59375 20.128906 C 60.332031 20.476562 63.148438 20.691406 66.042969 20.761719 C 66.277344 20.921875 66.421875 21.136719 66.464844 21.398438 C 66.054688 21.605469 65.632812 21.816406 65.199219 22.035156 C 60.410156 22.246094 55.621094 22.316406 50.832031 22.246094 C 49.886719 22.371094 49.039062 22.230469 48.292969 21.820312 C 50.832031 21.820312 53.363281 21.820312 55.898438 21.820312 C 57.210938 21.859375 57.351562 21.648438 56.324219 21.1875 C 53.589844 20.792969 50.914062 20.4375 48.292969 20.128906 Z M 48.292969 20.128906 "/>
<path style=" stroke:none;fill-rule:evenodd;fill:rgb(48.235294%,48.627451%,71.372549%);fill-opacity:1;" d="M 34.34375 21.398438 C 33.835938 21.710938 33.269531 21.851562 32.65625 21.820312 C 30.824219 21.820312 28.992188 21.820312 27.160156 21.820312 C 27.160156 21.679688 27.160156 21.539062 27.160156 21.398438 C 29.628906 21.070312 32.023438 21.070312 34.34375 21.398438 Z M 34.34375 21.398438 "/>
<path style=" stroke:none;fill-rule:evenodd;fill:rgb(36.470588%,39.215686%,63.529412%);fill-opacity:1;" d="M 46.601562 20.550781 C 49.792969 20.734375 52.890625 21.160156 55.898438 21.820312 C 53.363281 21.820312 50.832031 21.820312 48.292969 21.820312 C 48.152344 21.820312 48.011719 21.820312 47.871094 21.820312 C 47.527344 21.300781 47.105469 20.878906 46.601562 20.550781 Z M 46.601562 20.550781 "/>
<path style=" stroke:none;fill-rule:evenodd;fill:rgb(13.333333%,13.333333%,14.117647%);fill-opacity:1;" d="M 78.300781 24.363281 C 78.199219 24.910156 78.339844 25.335938 78.722656 25.636719 C 84.421875 26.058594 90.199219 26.199219 96.050781 26.058594 C 96.050781 26.484375 96.050781 26.90625 96.050781 27.332031 C 91.226562 27.199219 86.4375 27.339844 81.683594 27.753906 C 80.496094 27.992188 79.511719 28.558594 78.722656 29.449219 C 86.042969 29.871094 93.367188 30.015625 100.699219 29.871094 C 93.0625 30.4375 85.386719 30.4375 77.667969 29.871094 C 77.253906 30.878906 76.972656 30.738281 76.820312 29.449219 C 76.679688 30.4375 76.539062 31.425781 76.398438 32.414062 C 76 32.09375 75.789062 31.667969 75.765625 31.144531 C 76.503906 30.003906 76.292969 29.71875 75.128906 30.296875 C 74.53125 29.234375 74.109375 29.378906 73.859375 30.71875 C 73.367188 29.800781 72.59375 29.375 71.539062 29.449219 C 71.421875 27.308594 70.433594 26.601562 68.578125 27.332031 C 68.417969 29.394531 67.292969 30.242188 65.199219 29.871094 C 65.199219 29.730469 65.199219 29.589844 65.199219 29.449219 C 66.515625 29.425781 67.5 28.859375 68.15625 27.753906 C 64.429688 27.332031 60.625 27.191406 56.746094 27.332031 C 56.792969 27.070312 56.933594 26.855469 57.167969 26.695312 C 58.796875 26.621094 60.347656 26.40625 61.816406 26.058594 C 62.898438 26.1875 63.886719 26.046875 64.777344 25.636719 C 65.320312 25.734375 65.746094 25.597656 66.042969 25.214844 C 66.511719 25.1875 66.933594 25.046875 67.3125 24.785156 C 67.695312 24.488281 67.835938 24.0625 67.734375 23.515625 C 66.261719 23.167969 64.714844 22.957031 63.085938 22.882812 C 64.84375 22.902344 66.460938 22.550781 67.945312 21.820312 C 68.535156 22.378906 68.957031 22.238281 69.210938 21.398438 C 69.953125 21.953125 70.589844 21.8125 71.113281 20.972656 C 71.339844 21.507812 71.339844 22.140625 71.113281 22.882812 C 71.613281 23.695312 72.035156 23.621094 72.382812 22.667969 C 73.25 23.507812 73.953125 23.507812 74.496094 22.667969 C 74.792969 23.46875 75.214844 23.609375 75.765625 23.09375 C 76.101562 23.761719 76.3125 24.46875 76.398438 25.214844 C 76.839844 24.53125 77.476562 24.25 78.300781 24.363281 Z M 78.300781 24.363281 "/>
<path style=" stroke:none;fill-rule:evenodd;fill:rgb(26.666667%,28.235294%,45.490196%);fill-opacity:1;" d="M 27.160156 21.398438 C 27.160156 21.539062 27.160156 21.679688 27.160156 21.820312 C 26.597656 21.820312 26.035156 21.820312 25.472656 21.820312 C 25.472656 22.667969 25.472656 23.515625 25.472656 24.363281 C 24.289062 23.550781 23.019531 23.550781 21.667969 24.363281 C 21.667969 23.515625 21.667969 22.667969 21.667969 21.820312 C 22.40625 21.234375 23.25 20.8125 24.203125 20.550781 C 25.160156 20.960938 26.144531 21.242188 27.160156 21.398438 Z M 27.160156 21.398438 "/>
<path style=" stroke:none;fill-rule:evenodd;fill:rgb(41.568627%,45.882353%,76.470588%);fill-opacity:1;" d="M 82.527344 23.09375 C 81.589844 22.726562 80.601562 22.582031 79.570312 22.667969 C 79.570312 22.101562 79.570312 21.539062 79.570312 20.972656 C 80.554688 20.972656 81.539062 20.972656 82.527344 20.972656 C 82.527344 21.679688 82.527344 22.386719 82.527344 23.09375 Z M 82.527344 23.09375 "/>
<path style=" stroke:none;fill-rule:evenodd;fill:rgb(31.764706%,32.54902%,35.686275%);fill-opacity:1;" d="M 163.25 21.398438 C 163.074219 21.703125 162.792969 21.914062 162.402344 22.035156 C 157.757812 22.246094 153.109375 22.316406 148.457031 22.246094 C 153.324219 21.929688 158.257812 21.644531 163.25 21.398438 Z M 163.25 21.398438 "/>
<path style=" stroke:none;fill-rule:evenodd;fill:rgb(18.431373%,18.823529%,23.137255%);fill-opacity:1;" d="M 98.164062 21.820312 C 98.035156 22.097656 97.894531 22.378906 97.742188 22.667969 C 98.785156 22.953125 99.769531 23.234375 100.699219 23.515625 C 94.925781 23.515625 89.148438 23.515625 83.371094 23.515625 C 83.371094 22.953125 83.371094 22.386719 83.371094 21.820312 C 88.300781 21.820312 93.234375 21.820312 98.164062 21.820312 Z M 98.164062 21.820312 "/>
<path style=" stroke:none;fill-rule:evenodd;fill:rgb(13.333333%,13.72549%,18.039216%);fill-opacity:1;" d="M 142.960938 20.972656 C 143.105469 20.972656 143.246094 20.972656 143.386719 20.972656 C 143.808594 21.257812 144.230469 21.539062 144.65625 21.820312 C 144.273438 22.125 144.128906 22.546875 144.230469 23.09375 C 151.066406 22.953125 157.828125 23.09375 164.515625 23.515625 C 160.855469 23.515625 157.191406 23.515625 153.527344 23.515625 C 153.246094 23.515625 152.964844 23.515625 152.683594 23.515625 C 149.441406 23.515625 146.203125 23.515625 142.960938 23.515625 C 142.960938 22.667969 142.960938 21.820312 142.960938 20.972656 Z M 142.960938 20.972656 "/>
<path style=" stroke:none;fill-rule:evenodd;fill:rgb(41.176471%,43.921569%,66.27451%);fill-opacity:1;" d="M 53.363281 23.515625 C 55.898438 23.515625 58.433594 23.515625 60.972656 23.515625 C 60.972656 23.65625 60.972656 23.800781 60.972656 23.941406 C 59.078125 24.488281 57.171875 24.488281 55.265625 23.941406 C 54.050781 24.082031 53.136719 24.644531 52.519531 25.636719 C 50.691406 25.933594 49.144531 25.4375 47.871094 24.152344 C 49.78125 24.078125 51.613281 23.867188 53.363281 23.515625 Z M 53.363281 23.515625 "/>
<path style=" stroke:none;fill-rule:evenodd;fill:rgb(50.588235%,52.156863%,70.980392%);fill-opacity:1;" d="M 60.972656 23.941406 C 60.972656 23.800781 60.972656 23.65625 60.972656 23.515625 C 63.226562 23.515625 65.480469 23.515625 67.734375 23.515625 C 67.835938 24.0625 67.695312 24.488281 67.3125 24.785156 C 65.28125 24.324219 63.167969 24.042969 60.972656 23.941406 Z M 60.972656 23.941406 "/>
<path style=" stroke:none;fill-rule:evenodd;fill:rgb(53.72549%,54.901961%,70.588235%);fill-opacity:1;" d="M 83.371094 23.515625 C 89.148438 23.515625 94.925781 23.515625 100.699219 23.515625 C 100.832031 25.019531 100.691406 26.429688 100.277344 27.753906 C 100.277344 27.613281 100.277344 27.46875 100.277344 27.332031 C 100.277344 26.199219 100.277344 25.070312 100.277344 23.941406 C 99.429688 23.941406 98.585938 23.941406 97.742188 23.941406 C 92.878906 24.078125 88.085938 23.941406 83.371094 23.515625 Z M 83.371094 23.515625 "/>
<path style=" stroke:none;fill-rule:evenodd;fill:rgb(63.921569%,65.098039%,91.764706%);fill-opacity:1;" d="M 79.570312 23.515625 C 80.9375 23.746094 81.359375 24.453125 80.835938 25.636719 C 79.414062 25.460938 78.992188 24.757812 79.570312 23.515625 Z M 79.570312 23.515625 "/>
<path style=" stroke:none;fill-rule:evenodd;fill:rgb(28.235294%,30.196078%,46.27451%);fill-opacity:1;" d="M 153.527344 23.515625 C 157.191406 23.515625 160.855469 23.515625 164.515625 23.515625 C 164.800781 23.515625 164.941406 23.65625 164.941406 23.941406 C 164.585938 24.085938 164.445312 24.367188 164.515625 24.785156 C 161.992188 24.476562 159.457031 24.332031 156.910156 24.363281 C 155.894531 24.386719 154.90625 24.242188 153.953125 23.941406 C 153.667969 23.941406 153.527344 23.800781 153.527344 23.515625 Z M 153.527344 23.515625 "/>
<path style=" stroke:none;fill-rule:evenodd;fill:rgb(71.372549%,72.156863%,96.470588%);fill-opacity:1;" d="M 60.972656 23.941406 C 63.167969 24.042969 65.28125 24.324219 67.3125 24.785156 C 66.933594 25.046875 66.511719 25.1875 66.042969 25.214844 C 65.105469 24.84375 64.121094 24.703125 63.085938 24.785156 C 61.765625 24.230469 60.496094 24.375 59.28125 25.214844 C 57.933594 25.1875 56.597656 25.046875 55.265625 24.785156 C 54.558594 24.835938 54.0625 25.117188 53.785156 25.636719 C 53.363281 25.636719 52.941406 25.636719 52.519531 25.636719 C 53.136719 24.644531 54.050781 24.082031 55.265625 23.941406 C 57.171875 24.488281 59.078125 24.488281 60.972656 23.941406 Z M 60.972656 23.941406 "/>
<path style=" stroke:none;fill-rule:evenodd;fill:rgb(62.745098%,66.27451%,91.372549%);fill-opacity:1;" d="M 79.144531 23.09375 C 79.144531 22.953125 79.144531 22.8125 79.144531 22.667969 C 79.285156 22.667969 79.425781 22.667969 79.570312 22.667969 C 80.601562 22.582031 81.589844 22.726562 82.527344 23.09375 C 82.808594 23.234375 83.089844 23.375 83.371094 23.515625 C 88.085938 23.941406 92.878906 24.078125 97.742188 23.941406 C 97.695312 24.203125 97.554688 24.414062 97.316406 24.578125 C 95.550781 24.648438 93.859375 24.863281 92.246094 25.214844 C 91.828125 25.140625 91.546875 25.28125 91.402344 25.636719 C 90.132812 25.636719 88.867188 25.636719 87.597656 25.636719 C 87.21875 25.359375 86.796875 25.074219 86.332031 24.785156 C 83.808594 24.585938 81.410156 24.019531 79.144531 23.09375 Z M 79.144531 23.09375 "/>
<path style=" stroke:none;fill-rule:evenodd;fill:rgb(45.098039%,49.019608%,75.686275%);fill-opacity:1;" d="M 97.742188 23.941406 C 98.585938 23.941406 99.429688 23.941406 100.277344 23.941406 C 100.277344 25.070312 100.277344 26.199219 100.277344 27.332031 C 99.003906 27.859375 97.875 27.722656 96.894531 26.90625 C 96.96875 26.347656 96.828125 25.851562 96.472656 25.421875 C 95.070312 25.214844 93.664062 25.140625 92.246094 25.214844 C 93.859375 24.863281 95.550781 24.648438 97.316406 24.578125 C 97.554688 24.414062 97.695312 24.203125 97.742188 23.941406 Z M 97.742188 23.941406 "/>
<path style=" stroke:none;fill-rule:evenodd;fill:rgb(76.862745%,78.823529%,96.470588%);fill-opacity:1;" d="M 111.6875 22.246094 C 111.6875 22.8125 111.6875 23.375 111.6875 23.941406 C 112.816406 23.941406 113.941406 23.941406 115.070312 23.941406 C 115.070312 24.222656 115.070312 24.503906 115.070312 24.785156 C 113.125 24.417969 111.996094 25.195312 111.6875 27.117188 C 112.824219 27.300781 113.953125 27.230469 115.070312 26.90625 C 115.070312 27.1875 115.207031 27.332031 115.492188 27.332031 C 115.492188 27.46875 115.492188 27.613281 115.492188 27.753906 C 114.355469 27.683594 113.230469 27.753906 112.109375 27.964844 C 111.875 28.128906 111.734375 28.339844 111.6875 28.601562 C 111.125 26.484375 111.125 24.363281 111.6875 22.246094 Z M 111.6875 22.246094 "/>
<path style=" stroke:none;fill-rule:evenodd;fill:rgb(30.980392%,32.156863%,52.156863%);fill-opacity:1;" d="M 152.261719 23.941406 C 151.210938 25.085938 149.941406 25.367188 148.457031 24.785156 C 146.910156 25.042969 145.363281 25.324219 143.808594 25.636719 C 144.800781 25.964844 145.785156 26.246094 146.765625 26.484375 C 146.765625 27.1875 146.765625 27.898438 146.765625 28.601562 C 145.59375 28.507812 144.464844 28.648438 143.386719 29.027344 C 143.386719 27.332031 143.386719 25.636719 143.386719 23.941406 C 146.34375 23.941406 149.304688 23.941406 152.261719 23.941406 Z M 152.261719 23.941406 "/>
<path style=" stroke:none;fill-rule:evenodd;fill:rgb(75.294118%,74.117647%,96.470588%);fill-opacity:1;" d="M 152.683594 23.515625 C 152.964844 23.515625 153.246094 23.515625 153.527344 23.515625 C 153.527344 23.800781 153.667969 23.941406 153.953125 23.941406 C 154.386719 24.65625 154.949219 25.222656 155.640625 25.636719 C 155.078125 25.636719 154.515625 25.636719 153.953125 25.636719 C 153.527344 25.070312 153.105469 24.503906 152.683594 23.941406 C 152.683594 23.800781 152.683594 23.65625 152.683594 23.515625 Z M 152.683594 23.515625 "/>
<path style=" stroke:none;fill-rule:evenodd;fill:rgb(29.803922%,32.156863%,58.823529%);fill-opacity:1;" d="M 156.910156 24.363281 C 159.457031 24.332031 161.992188 24.476562 164.515625 24.785156 C 164.515625 25.070312 164.515625 25.351562 164.515625 25.636719 C 163.390625 25.636719 162.265625 25.636719 161.136719 25.636719 C 160.835938 25.253906 160.414062 25.113281 159.867188 25.214844 C 158.882812 24.929688 157.898438 24.648438 156.910156 24.363281 Z M 156.910156 24.363281 "/>
<path style=" stroke:none;fill-rule:evenodd;fill:rgb(41.568627%,42.352941%,51.372549%);fill-opacity:1;" d="M 15.328125 21.398438 C 17.019531 21.398438 18.710938 21.398438 20.398438 21.398438 C 20.699219 21.78125 21.121094 21.921875 21.667969 21.820312 C 21.667969 22.667969 21.667969 23.515625 21.667969 24.363281 C 21.667969 24.648438 21.667969 24.929688 21.667969 25.214844 C 21.667969 25.636719 21.667969 26.058594 21.667969 26.484375 C 21.667969 26.90625 21.667969 27.332031 21.667969 27.753906 C 21.59375 28.171875 21.738281 28.457031 22.089844 28.601562 C 22.6875 29.367188 23.535156 29.648438 24.625 29.449219 C 25.554688 29.488281 25.695312 29.207031 25.046875 28.601562 C 25.441406 28.148438 25.585938 27.585938 25.472656 26.90625 C 25.472656 26.484375 25.472656 26.058594 25.472656 25.636719 C 25.472656 25.214844 25.472656 24.785156 25.472656 24.363281 C 25.472656 23.515625 25.472656 22.667969 25.472656 21.820312 C 26.035156 21.820312 26.597656 21.820312 27.160156 21.820312 C 28.992188 21.820312 30.824219 21.820312 32.65625 21.820312 C 30.484375 22.242188 28.230469 22.382812 25.894531 22.246094 C 25.894531 24.785156 25.894531 27.332031 25.894531 29.871094 C 24.34375 29.871094 22.796875 29.871094 21.246094 29.871094 C 21.382812 27.25 21.238281 24.707031 20.820312 22.246094 C 18.625 22.382812 16.511719 22.242188 14.484375 21.820312 C 14.902344 21.894531 15.183594 21.753906 15.328125 21.398438 Z M 15.328125 21.398438 "/>
<path style=" stroke:none;fill-rule:evenodd;fill:rgb(36.078431%,36.470588%,60.392157%);fill-opacity:1;" d="M 25.472656 24.363281 C 25.472656 24.785156 25.472656 25.214844 25.472656 25.636719 C 24.25 25.253906 22.980469 25.113281 21.667969 25.214844 C 21.667969 24.929688 21.667969 24.648438 21.667969 24.363281 C 23.019531 23.550781 24.289062 23.550781 25.472656 24.363281 Z M 25.472656 24.363281 "/>
<path style=" stroke:none;fill-rule:evenodd;fill:rgb(52.54902%,54.509804%,87.45098%);fill-opacity:1;" d="M 63.085938 24.785156 C 61.910156 25.203125 60.640625 25.34375 59.28125 25.214844 C 60.496094 24.375 61.765625 24.230469 63.085938 24.785156 Z M 63.085938 24.785156 "/>
<path style=" stroke:none;fill-rule:evenodd;fill:rgb(46.666667%,45.882353%,77.254902%);fill-opacity:1;" d="M 153.953125 23.941406 C 154.90625 24.242188 155.894531 24.386719 156.910156 24.363281 C 157.898438 24.648438 158.882812 24.929688 159.867188 25.214844 C 158.449219 25.261719 157.039062 25.402344 155.640625 25.636719 C 154.949219 25.222656 154.386719 24.65625 153.953125 23.941406 Z M 153.953125 23.941406 "/>
<path style=" stroke:none;fill-rule:evenodd;fill:rgb(68.627451%,69.411765%,97.647059%);fill-opacity:1;" d="M 21.667969 25.214844 C 22.980469 25.113281 24.25 25.253906 25.472656 25.636719 C 25.472656 26.058594 25.472656 26.484375 25.472656 26.90625 C 24.195312 26.820312 22.925781 26.679688 21.667969 26.484375 C 21.667969 26.058594 21.667969 25.636719 21.667969 25.214844 Z M 21.667969 25.214844 "/>
<path style=" stroke:none;fill-rule:evenodd;fill:rgb(48.235294%,50.588235%,72.54902%);fill-opacity:1;" d="M 59.28125 25.214844 C 60.640625 25.34375 61.910156 25.203125 63.085938 24.785156 C 64.121094 24.703125 65.105469 24.84375 66.042969 25.214844 C 65.746094 25.597656 65.320312 25.734375 64.777344 25.636719 C 61.113281 25.636719 57.449219 25.636719 53.785156 25.636719 C 54.0625 25.117188 54.558594 24.835938 55.265625 24.785156 C 56.597656 25.046875 57.933594 25.1875 59.28125 25.214844 Z M 59.28125 25.214844 "/>
<path style=" stroke:none;fill-rule:evenodd;fill:rgb(80.392157%,81.568627%,95.686275%);fill-opacity:1;" d="M 79.144531 23.09375 C 81.410156 24.019531 83.808594 24.585938 86.332031 24.785156 C 86.796875 25.074219 87.21875 25.359375 87.597656 25.636719 C 85.34375 25.636719 83.089844 25.636719 80.835938 25.636719 C 81.359375 24.453125 80.9375 23.746094 79.570312 23.515625 C 79.285156 23.515625 79.144531 23.375 79.144531 23.09375 Z M 79.144531 23.09375 "/>
<path style=" stroke:none;fill-rule:evenodd;fill:rgb(47.058824%,46.666667%,75.294118%);fill-opacity:1;" d="M 152.261719 23.941406 C 152.402344 23.941406 152.542969 23.941406 152.683594 23.941406 C 153.105469 24.503906 153.527344 25.070312 153.953125 25.636719 C 151.753906 25.5 149.644531 25.640625 147.609375 26.058594 C 147.328125 26.199219 147.046875 26.34375 146.765625 26.484375 C 145.785156 26.246094 144.800781 25.964844 143.808594 25.636719 C 145.363281 25.324219 146.910156 25.042969 148.457031 24.785156 C 149.941406 25.367188 151.210938 25.085938 152.261719 23.941406 Z M 152.261719 23.941406 "/>
<path style=" stroke:none;fill-rule:evenodd;fill:rgb(35.686275%,38.039216%,50.980392%);fill-opacity:1;" d="M 53.363281 23.515625 C 51.613281 23.867188 49.78125 24.078125 47.871094 24.152344 C 49.144531 25.4375 50.691406 25.933594 52.519531 25.636719 C 52.941406 25.636719 53.363281 25.636719 53.785156 25.636719 C 57.449219 25.636719 61.113281 25.636719 64.777344 25.636719 C 63.886719 26.046875 62.898438 26.1875 61.816406 26.058594 C 57.308594 26.128906 52.796875 26.058594 48.292969 25.847656 C 47.175781 25.570312 46.191406 25.074219 45.335938 24.363281 C 47.832031 23.535156 50.511719 23.253906 53.363281 23.515625 Z M 53.363281 23.515625 "/>
<path style=" stroke:none;fill-rule:evenodd;fill:rgb(39.607843%,39.607843%,54.901961%);fill-opacity:1;" d="M 159.867188 25.214844 C 160.414062 25.113281 160.835938 25.253906 161.136719 25.636719 C 160.605469 26.109375 160.746094 26.390625 161.558594 26.484375 C 161.226562 27.414062 161.226562 28.257812 161.558594 29.027344 C 161.558594 29.308594 161.558594 29.589844 161.558594 29.871094 C 161.136719 29.90625 160.785156 29.769531 160.503906 29.449219 C 160.292969 28.328125 160.222656 27.199219 160.289062 26.058594 C 156.066406 26.058594 151.839844 26.058594 147.609375 26.058594 C 149.644531 25.640625 151.753906 25.5 153.953125 25.636719 C 154.515625 25.636719 155.078125 25.636719 155.640625 25.636719 C 157.039062 25.402344 158.449219 25.261719 159.867188 25.214844 Z M 159.867188 25.214844 "/>
<path style=" stroke:none;fill-rule:evenodd;fill:rgb(10.196078%,10.196078%,15.294118%);fill-opacity:1;" d="M 147.609375 26.484375 C 147.609375 26.34375 147.609375 26.199219 147.609375 26.058594 C 151.839844 26.058594 156.066406 26.058594 160.289062 26.058594 C 160.222656 27.199219 160.292969 28.328125 160.503906 29.449219 C 160.785156 29.769531 161.136719 29.90625 161.558594 29.871094 C 162.546875 29.871094 163.53125 29.871094 164.515625 29.871094 C 164.554688 30.507812 164.269531 30.929688 163.671875 31.144531 C 162.519531 30.871094 161.394531 30.515625 160.289062 30.085938 C 159.894531 28.929688 159.75 27.730469 159.867188 26.484375 C 157.753906 26.484375 155.640625 26.484375 153.527344 26.484375 C 151.554688 26.484375 149.585938 26.484375 147.609375 26.484375 Z M 147.609375 26.484375 "/>
<path style=" stroke:none;fill-rule:evenodd;fill:rgb(69.803922%,69.411765%,95.686275%);fill-opacity:1;" d="M 161.136719 25.636719 C 162.265625 25.636719 163.390625 25.636719 164.515625 25.636719 C 164.515625 25.917969 164.515625 26.199219 164.515625 26.484375 C 163.53125 26.484375 162.546875 26.484375 161.558594 26.484375 C 160.746094 26.390625 160.605469 26.109375 161.136719 25.636719 Z M 161.136719 25.636719 "/>
<path style=" stroke:none;fill-rule:evenodd;fill:rgb(49.803922%,49.803922%,66.666667%);fill-opacity:1;" d="M 164.941406 23.941406 C 164.941406 25.777344 164.941406 27.613281 164.941406 29.449219 C 164.941406 29.730469 164.800781 29.871094 164.515625 29.871094 C 163.53125 29.871094 162.546875 29.871094 161.558594 29.871094 C 161.558594 29.589844 161.558594 29.308594 161.558594 29.027344 C 163.519531 29.191406 164.507812 28.34375 164.515625 26.484375 C 164.515625 26.199219 164.515625 25.917969 164.515625 25.636719 C 164.515625 25.351562 164.515625 25.070312 164.515625 24.785156 C 164.445312 24.367188 164.585938 24.085938 164.941406 23.941406 Z M 164.941406 23.941406 "/>
<path style=" stroke:none;fill-rule:evenodd;fill:rgb(28.235294%,29.411765%,54.509804%);fill-opacity:1;" d="M 21.667969 26.484375 C 22.925781 26.679688 24.195312 26.820312 25.472656 26.90625 C 25.585938 27.585938 25.441406 28.148438 25.046875 28.601562 C 23.988281 28.070312 22.863281 27.789062 21.667969 27.753906 C 21.667969 27.332031 21.667969 26.90625 21.667969 26.484375 Z M 21.667969 26.484375 "/>
<path style=" stroke:none;fill-rule:evenodd;fill:rgb(33.72549%,35.294118%,41.960784%);fill-opacity:1;" d="M 56.746094 27.332031 C 60.625 27.191406 64.429688 27.332031 68.15625 27.753906 C 64.070312 27.753906 59.984375 27.753906 55.898438 27.753906 C 52.351562 27.484375 48.96875 27.765625 45.757812 28.601562 C 44.890625 28.515625 44.75 28.160156 45.335938 27.542969 C 49.136719 27.332031 52.941406 27.261719 56.746094 27.332031 Z M 56.746094 27.332031 "/>
<path style=" stroke:none;fill-rule:evenodd;fill:rgb(71.764706%,74.901961%,98.431373%);fill-opacity:1;" d="M 96.894531 26.90625 C 97.875 27.722656 99.003906 27.859375 100.277344 27.332031 C 100.277344 27.46875 100.277344 27.613281 100.277344 27.753906 C 100.277344 28.035156 100.136719 28.179688 99.855469 28.179688 C 98.867188 28.179688 97.882812 28.179688 96.894531 28.179688 C 96.421875 27.6875 96.421875 27.265625 96.894531 26.90625 Z M 96.894531 26.90625 "/>
<path style=" stroke:none;fill-rule:evenodd;fill:rgb(41.960784%,42.352941%,54.117647%);fill-opacity:1;" d="M 142.960938 23.515625 C 146.203125 23.515625 149.441406 23.515625 152.683594 23.515625 C 152.683594 23.65625 152.683594 23.800781 152.683594 23.941406 C 152.542969 23.941406 152.402344 23.941406 152.261719 23.941406 C 149.304688 23.941406 146.34375 23.941406 143.386719 23.941406 C 143.386719 25.636719 143.386719 27.332031 143.386719 29.027344 C 144.5625 29.4375 145.832031 29.582031 147.191406 29.449219 C 145.867188 29.863281 144.460938 30.003906 142.960938 29.871094 C 142.960938 27.753906 142.960938 25.636719 142.960938 23.515625 Z M 142.960938 23.515625 "/>
<path style=" stroke:none;fill-rule:evenodd;fill:rgb(34.901961%,36.470588%,41.176471%);fill-opacity:1;" d="M 147.609375 26.058594 C 147.609375 26.199219 147.609375 26.34375 147.609375 26.484375 C 147.742188 27.566406 147.597656 28.554688 147.191406 29.449219 C 147.261719 29.027344 147.121094 28.746094 146.765625 28.601562 C 146.765625 27.898438 146.765625 27.1875 146.765625 26.484375 C 147.046875 26.34375 147.328125 26.199219 147.609375 26.058594 Z M 147.609375 26.058594 "/>
<path style=" stroke:none;fill-rule:evenodd;fill:rgb(43.137255%,45.098039%,67.843137%);fill-opacity:1;" d="M 55.898438 27.753906 C 55.898438 27.898438 55.898438 28.035156 55.898438 28.179688 C 52.722656 28.042969 49.625 28.179688 46.601562 28.601562 C 46.320312 28.601562 46.039062 28.601562 45.757812 28.601562 C 48.96875 27.765625 52.351562 27.484375 55.898438 27.753906 Z M 55.898438 27.753906 "/>
<path style=" stroke:none;fill-rule:evenodd;fill:rgb(40.784314%,43.137255%,59.607843%);fill-opacity:1;" d="M 91.402344 25.636719 C 91.546875 25.28125 91.828125 25.140625 92.246094 25.214844 C 93.664062 25.140625 95.070312 25.214844 96.472656 25.421875 C 96.828125 25.851562 96.96875 26.347656 96.894531 26.90625 C 96.421875 27.265625 96.421875 27.6875 96.894531 28.179688 C 93.9375 28.179688 90.980469 28.179688 88.019531 28.179688 C 85.90625 28.179688 83.792969 28.179688 81.683594 28.179688 C 81.683594 28.035156 81.683594 27.898438 81.683594 27.753906 C 86.4375 27.339844 91.226562 27.199219 96.050781 27.332031 C 96.050781 26.90625 96.050781 26.484375 96.050781 26.058594 C 94.585938 25.644531 93.035156 25.503906 91.402344 25.636719 Z M 91.402344 25.636719 "/>
<path style=" stroke:none;fill-rule:evenodd;fill:rgb(39.215686%,41.568627%,72.941176%);fill-opacity:1;" d="M 115.492188 27.753906 C 116.246094 27.632812 116.953125 27.773438 117.605469 28.179688 C 115.652344 28.597656 113.679688 28.738281 111.6875 28.601562 C 111.734375 28.339844 111.875 28.128906 112.109375 27.964844 C 113.230469 27.753906 114.355469 27.683594 115.492188 27.753906 Z M 115.492188 27.753906 "/>
<path style=" stroke:none;fill-rule:evenodd;fill:rgb(62.352941%,61.568627%,87.058824%);fill-opacity:1;" d="M 131.976562 27.753906 C 132.003906 28.402344 131.722656 28.824219 131.128906 29.027344 C 129.652344 28.417969 128.105469 28.066406 126.480469 27.964844 C 128.308594 27.753906 130.136719 27.683594 131.976562 27.753906 Z M 131.976562 27.753906 "/>
<path style=" stroke:none;fill-rule:evenodd;fill:rgb(36.078431%,36.078431%,59.215686%);fill-opacity:1;" d="M 161.558594 26.484375 C 162.546875 26.484375 163.53125 26.484375 164.515625 26.484375 C 164.507812 28.34375 163.519531 29.191406 161.558594 29.027344 C 161.226562 28.257812 161.226562 27.414062 161.558594 26.484375 Z M 161.558594 26.484375 "/>
<path style=" stroke:none;fill-rule:evenodd;fill:rgb(74.117647%,74.117647%,96.470588%);fill-opacity:1;" d="M 21.667969 27.753906 C 22.863281 27.789062 23.988281 28.070312 25.046875 28.601562 C 25.695312 29.207031 25.554688 29.488281 24.625 29.449219 C 23.949219 28.78125 23.105469 28.5 22.089844 28.601562 C 21.738281 28.457031 21.59375 28.171875 21.667969 27.753906 Z M 21.667969 27.753906 "/>
<path style=" stroke:none;fill-rule:evenodd;fill:rgb(27.058824%,31.372549%,54.117647%);fill-opacity:1;" d="M 46.601562 28.601562 C 49.625 28.179688 52.722656 28.042969 55.898438 28.179688 C 57.597656 28.105469 59.285156 28.179688 60.972656 28.390625 C 56.753906 28.835938 52.53125 29.046875 48.292969 29.027344 C 47.675781 29.054688 47.113281 28.914062 46.601562 28.601562 Z M 46.601562 28.601562 "/>
<path style=" stroke:none;fill-rule:evenodd;fill:rgb(32.54902%,35.686275%,54.901961%);fill-opacity:1;" d="M 115.492188 27.753906 C 115.492188 27.613281 115.492188 27.46875 115.492188 27.332031 C 115.632812 27.332031 115.773438 27.332031 115.914062 27.332031 C 120.140625 27.332031 124.367188 27.332031 128.59375 27.332031 C 129.8125 27.203125 130.9375 27.339844 131.976562 27.753906 C 130.136719 27.683594 128.308594 27.753906 126.480469 27.964844 C 128.105469 28.066406 129.652344 28.417969 131.128906 29.027344 C 130.828125 29.410156 130.40625 29.550781 129.863281 29.449219 C 123.644531 29.726562 117.585938 29.441406 111.6875 28.601562 C 113.679688 28.738281 115.652344 28.597656 117.605469 28.179688 C 116.953125 27.773438 116.246094 27.632812 115.492188 27.753906 Z M 115.492188 27.753906 "/>
<path style=" stroke:none;fill-rule:evenodd;fill:rgb(30.980392%,30.588235%,56.078431%);fill-opacity:1;" d="M 22.089844 28.601562 C 23.105469 28.5 23.949219 28.78125 24.625 29.449219 C 23.535156 29.648438 22.6875 29.367188 22.089844 28.601562 Z M 22.089844 28.601562 "/>
<path style=" stroke:none;fill-rule:evenodd;fill:rgb(28.627451%,32.941176%,47.45098%);fill-opacity:1;" d="M 55.898438 28.179688 C 55.898438 28.035156 55.898438 27.898438 55.898438 27.753906 C 59.984375 27.753906 64.070312 27.753906 68.15625 27.753906 C 67.5 28.859375 66.515625 29.425781 65.199219 29.449219 C 59.488281 29.589844 53.851562 29.445312 48.292969 29.027344 C 52.53125 29.046875 56.753906 28.835938 60.972656 28.390625 C 59.285156 28.179688 57.597656 28.105469 55.898438 28.179688 Z M 55.898438 28.179688 "/>
<path style=" stroke:none;fill-rule:evenodd;fill:rgb(50.196078%,49.411765%,76.078431%);fill-opacity:1;" d="M 146.765625 28.601562 C 147.121094 28.746094 147.261719 29.027344 147.191406 29.449219 C 145.832031 29.582031 144.5625 29.4375 143.386719 29.027344 C 144.464844 28.648438 145.59375 28.507812 146.765625 28.601562 Z M 146.765625 28.601562 "/>
<path style=" stroke:none;fill-rule:evenodd;fill:rgb(35.294118%,38.431373%,45.490196%);fill-opacity:1;" d="M 45.757812 28.601562 C 46.039062 28.601562 46.320312 28.601562 46.601562 28.601562 C 47.113281 28.914062 47.675781 29.054688 48.292969 29.027344 C 53.851562 29.445312 59.488281 29.589844 65.199219 29.449219 C 65.199219 29.589844 65.199219 29.730469 65.199219 29.871094 C 59.277344 29.945312 53.363281 29.871094 47.449219 29.664062 C 46.785156 29.402344 46.222656 29.050781 45.757812 28.601562 Z M 45.757812 28.601562 "/>
<path style=" stroke:none;fill-rule:evenodd;fill:rgb(38.039216%,41.176471%,50.980392%);fill-opacity:1;" d="M 100.699219 23.515625 C 101.117188 25.269531 101.257812 27.105469 101.125 29.027344 C 101.195312 29.445312 101.054688 29.726562 100.699219 29.871094 C 93.367188 30.015625 86.042969 29.871094 78.722656 29.449219 C 79.511719 28.558594 80.496094 27.992188 81.683594 27.753906 C 81.683594 27.898438 81.683594 28.035156 81.683594 28.179688 C 81.300781 28.476562 81.15625 28.902344 81.257812 29.449219 C 86.332031 29.519531 91.40625 29.449219 96.472656 29.238281 C 97.816406 29.257812 98.941406 28.90625 99.855469 28.179688 C 100.136719 28.179688 100.277344 28.035156 100.277344 27.753906 C 100.691406 26.429688 100.832031 25.019531 100.699219 23.515625 Z M 100.699219 23.515625 "/>
<path style=" stroke:none;fill-rule:evenodd;fill:rgb(35.294118%,40.784314%,64.313725%);fill-opacity:1;" d="M 81.683594 28.179688 C 82.554688 28.730469 83.613281 29.015625 84.851562 29.027344 C 86.089844 29.015625 87.144531 28.730469 88.019531 28.179688 C 90.980469 28.179688 93.9375 28.179688 96.894531 28.179688 C 97.882812 28.179688 98.867188 28.179688 99.855469 28.179688 C 98.941406 28.90625 97.816406 29.257812 96.472656 29.238281 C 91.40625 29.449219 86.332031 29.519531 81.257812 29.449219 C 81.15625 28.902344 81.300781 28.476562 81.683594 28.179688 Z M 81.683594 28.179688 "/>
<path style=" stroke:none;fill-rule:evenodd;fill:rgb(39.215686%,43.921569%,76.078431%);fill-opacity:1;" d="M 81.683594 28.179688 C 83.792969 28.179688 85.90625 28.179688 88.019531 28.179688 C 87.144531 28.730469 86.089844 29.015625 84.851562 29.027344 C 83.613281 29.015625 82.554688 28.730469 81.683594 28.179688 Z M 81.683594 28.179688 "/>
<path style=" stroke:none;fill-rule:evenodd;fill:rgb(37.647059%,40.392157%,47.843137%);fill-opacity:1;" d="M 115.492188 27.332031 C 115.207031 27.332031 115.070312 27.1875 115.070312 26.90625 C 115.070312 26.199219 115.070312 25.496094 115.070312 24.785156 C 115.070312 24.503906 115.070312 24.222656 115.070312 23.941406 C 115.070312 23.375 115.070312 22.8125 115.070312 22.246094 C 115.070312 21.679688 115.070312 21.117188 115.070312 20.550781 C 113.941406 20.550781 112.816406 20.550781 111.6875 20.550781 C 111.6875 21.117188 111.6875 21.679688 111.6875 22.246094 C 111.125 24.363281 111.125 26.484375 111.6875 28.601562 C 117.585938 29.441406 123.644531 29.726562 129.863281 29.449219 C 126.765625 29.730469 123.59375 29.871094 120.351562 29.871094 C 117.027344 29.871094 113.859375 29.589844 110.84375 29.027344 C 110.773438 26.054688 110.84375 23.089844 111.054688 20.128906 C 112.488281 19.722656 113.96875 19.582031 115.492188 19.703125 C 115.492188 22.246094 115.492188 24.785156 115.492188 27.332031 Z M 115.492188 27.332031 "/>
<path style=" stroke:none;fill-rule:evenodd;fill:rgb(43.529412%,46.666667%,70.980392%);fill-opacity:1;" d="M 115.070312 24.785156 C 115.070312 25.496094 115.070312 26.199219 115.070312 26.90625 C 113.953125 27.230469 112.824219 27.300781 111.6875 27.117188 C 111.996094 25.195312 113.125 24.417969 115.070312 24.785156 Z M 115.070312 24.785156 "/>
<path style=" stroke:none;fill-rule:evenodd;fill:rgb(58.039216%,60%,88.627451%);fill-opacity:1;" d="M 111.6875 22.246094 C 112.816406 22.246094 113.941406 22.246094 115.070312 22.246094 C 115.070312 22.8125 115.070312 23.375 115.070312 23.941406 C 113.941406 23.941406 112.816406 23.941406 111.6875 23.941406 C 111.6875 23.375 111.6875 22.8125 111.6875 22.246094 Z M 111.6875 22.246094 "/>
<path style=" stroke:none;fill-rule:evenodd;fill:rgb(36.470588%,42.352941%,64.313725%);fill-opacity:1;" d="M 115.070312 22.246094 C 113.941406 22.246094 112.816406 22.246094 111.6875 22.246094 C 111.6875 21.679688 111.6875 21.117188 111.6875 20.550781 C 112.816406 20.550781 113.941406 20.550781 115.070312 20.550781 C 115.070312 21.117188 115.070312 21.679688 115.070312 22.246094 Z M 115.070312 22.246094 "/>
<path style=" stroke:none;fill-rule:evenodd;fill:rgb(5.098039%,5.098039%,5.098039%);fill-opacity:1;" d="M 0.113281 39.617188 C 59.5625 39.617188 119.015625 39.617188 178.464844 39.617188 C 178.464844 39.761719 178.464844 39.902344 178.464844 40.042969 C 167.488281 40.265625 156.851562 40.265625 146.554688 40.042969 C 144.527344 40.402344 142.484375 40.683594 140.425781 40.890625 C 93.722656 40.730469 46.953125 40.730469 0.113281 40.890625 C 0.113281 40.464844 0.113281 40.042969 0.113281 39.617188 Z M 0.113281 39.617188 "/>
<path style=" stroke:none;fill-rule:evenodd;fill:rgb(7.45098%,7.45098%,7.45098%);fill-opacity:1;" d="M 178.464844 40.042969 C 178.464844 43.289062 178.464844 46.539062 178.464844 49.785156 C 119.015625 49.785156 59.5625 49.785156 0.113281 49.785156 C 0.113281 46.820312 0.113281 43.855469 0.113281 40.890625 C 46.953125 40.730469 93.722656 40.730469 140.425781 40.890625 C 142.484375 40.683594 144.527344 40.402344 146.554688 40.042969 C 156.851562 40.265625 167.488281 40.265625 178.464844 40.042969 Z M 178.464844 40.042969 "/>
</g>
</svg>
