<?xml version="1.0" encoding="UTF-8"?>
<!DOCTYPE svg PUBLIC "-//W3C//DTD SVG 1.1//EN" "http://www.w3.org/Graphics/SVG/1.1/DTD/svg11.dtd">
<svg xmlns="http://www.w3.org/2000/svg" version="1.1" width="422px" height="118px" style="shape-rendering:geometricPrecision; text-rendering:geometricPrecision; image-rendering:optimizeQuality; fill-rule:evenodd; clip-rule:evenodd" xmlns:xlink="http://www.w3.org/1999/xlink">
<g><path style="opacity:1" fill="#1b1b1b" d="M 35.5,-0.5 C 49.5,-0.5 63.5,-0.5 77.5,-0.5C 78.0916,2.12717 78.4249,4.79384 78.5,7.5C 82.1858,9.16066 84.1858,12.1607 84.5,16.5C 87.0728,16.1485 89.4062,16.6485 91.5,18C 89.203,19.1597 89.5363,20.1597 92.5,21C 85.9998,21.691 79.6664,22.5244 73.5,23.5C 52.1641,23.6666 30.8307,23.5 9.5,23C 21.3517,22.3604 33.0184,21.6937 44.5,21C 39.2584,19.1888 39.5917,18.1888 45.5,18C 43.7148,16.8372 41.7148,16.1705 39.5,16C 44.2398,15.6208 44.4065,14.1208 40,11.5C 39.51,10.2068 39.3433,8.87344 39.5,7.5C 38.1667,7.5 36.8333,7.5 35.5,7.5C 35.5,4.83333 35.5,2.16667 35.5,-0.5 Z"/></g>
<g><path style="opacity:1" fill="#222222" d="M 77.5,-0.5 C 85.1667,-0.5 92.8333,-0.5 100.5,-0.5C 104.706,4.72822 109.04,9.89489 113.5,15C 115.5,15.6667 117.5,16.3333 119.5,17C 118.328,17.4186 117.328,18.0853 116.5,19C 118.878,19.5112 121.212,20.1779 123.5,21C 116.011,21.7905 108.678,22.6239 101.5,23.5C 92.1667,23.5 82.8333,23.5 73.5,23.5C 79.6664,22.5244 85.9998,21.691 92.5,21C 89.5363,20.1597 89.203,19.1597 91.5,18C 89.4062,16.6485 87.0728,16.1485 84.5,16.5C 84.1858,12.1607 82.1858,9.16066 78.5,7.5C 78.4249,4.79384 78.0916,2.12717 77.5,-0.5 Z"/></g>
<g><path style="opacity:1" fill="#282828" d="M 100.5,-0.5 C 108.5,-0.5 116.5,-0.5 124.5,-0.5C 125.974,1.97944 126.974,4.64611 127.5,7.5C 132.593,8.88244 136.927,11.5491 140.5,15.5C 144.618,17.1297 148.618,18.963 152.5,21C 145.011,21.7905 137.678,22.6239 130.5,23.5C 120.833,23.5 111.167,23.5 101.5,23.5C 108.678,22.6239 116.011,21.7905 123.5,21C 121.212,20.1779 118.878,19.5112 116.5,19C 117.328,18.0853 118.328,17.4186 119.5,17C 117.5,16.3333 115.5,15.6667 113.5,15C 109.04,9.89489 104.706,4.72822 100.5,-0.5 Z"/></g>
<g><path style="opacity:1" fill="#2e2e2e" d="M 124.5,-0.5 C 132.167,-0.5 139.833,-0.5 147.5,-0.5C 149.132,2.18799 151.132,4.68799 153.5,7C 159.669,10.1982 166.002,12.8648 172.5,15C 171.833,15.3333 171.167,15.6667 170.5,16C 173.5,16.3333 176.5,16.6667 179.5,17C 181.044,17.2896 182.377,17.9563 183.5,19C 191.851,19.4456 200.185,20.1123 208.5,21C 192.32,21.4022 176.32,22.2355 160.5,23.5C 150.5,23.5 140.5,23.5 130.5,23.5C 137.678,22.6239 145.011,21.7905 152.5,21C 148.618,18.963 144.618,17.1297 140.5,15.5C 136.927,11.5491 132.593,8.88244 127.5,7.5C 126.974,4.64611 125.974,1.97944 124.5,-0.5 Z"/></g>
<g><path style="opacity:1" fill="#353535" d="M 147.5,-0.5 C 189.167,-0.5 230.833,-0.5 272.5,-0.5C 270.785,2.20076 268.785,4.70076 266.5,7C 263.038,8.56509 259.705,10.3984 256.5,12.5C 253.914,11.7896 251.914,12.7896 250.5,15.5C 245.581,15.9484 240.914,17.115 236.5,19C 229.283,19.5157 222.283,20.1823 215.5,21C 230.348,21.3941 245.015,22.2274 259.5,23.5C 226.5,23.5 193.5,23.5 160.5,23.5C 176.32,22.2355 192.32,21.4022 208.5,21C 200.185,20.1123 191.851,19.4456 183.5,19C 182.377,17.9563 181.044,17.2896 179.5,17C 176.5,16.6667 173.5,16.3333 170.5,16C 171.167,15.6667 171.833,15.3333 172.5,15C 166.002,12.8648 159.669,10.1982 153.5,7C 151.132,4.68799 149.132,2.18799 147.5,-0.5 Z"/></g>
<g><path style="opacity:1" fill="#2e2e2e" d="M 272.5,-0.5 C 280.833,-0.5 289.167,-0.5 297.5,-0.5C 294.258,2.01084 291.592,5.17751 289.5,9C 282.611,14.7233 274.944,18.7233 266.5,21C 274.336,21.6621 282.003,22.4955 289.5,23.5C 283.833,23.5 278.167,23.5 272.5,23.5C 268.167,23.5 263.833,23.5 259.5,23.5C 245.015,22.2274 230.348,21.3941 215.5,21C 222.283,20.1823 229.283,19.5157 236.5,19C 240.914,17.115 245.581,15.9484 250.5,15.5C 251.914,12.7896 253.914,11.7896 256.5,12.5C 259.705,10.3984 263.038,8.56509 266.5,7C 268.785,4.70076 270.785,2.20076 272.5,-0.5 Z"/></g>
<g><path style="opacity:1" fill="#282828" d="M 297.5,-0.5 C 303.833,-0.5 310.167,-0.5 316.5,-0.5C 316.162,1.85398 315.662,4.18732 315,6.5C 311.02,9.8952 307.187,13.3952 303.5,17C 303.957,17.414 304.291,17.914 304.5,18.5C 302.5,19.3333 300.5,20.1667 298.5,21C 304.977,21.8621 311.311,22.6954 317.5,23.5C 308.167,23.5 298.833,23.5 289.5,23.5C 282.003,22.4955 274.336,21.6621 266.5,21C 274.944,18.7233 282.611,14.7233 289.5,9C 291.592,5.17751 294.258,2.01084 297.5,-0.5 Z"/></g>
<g><path style="opacity:1" fill="#222222" d="M 316.5,-0.5 C 325.833,-0.5 335.167,-0.5 344.5,-0.5C 341.903,2.35573 340.07,5.68906 339,9.5C 336.782,10.9242 335.282,12.9242 334.5,15.5C 331.163,16.1093 330.83,17.276 333.5,19C 330.833,19.6667 328.167,20.3333 325.5,21C 333.346,21.5667 341.012,22.4 348.5,23.5C 338.167,23.5 327.833,23.5 317.5,23.5C 311.311,22.6954 304.977,21.8621 298.5,21C 300.5,20.1667 302.5,19.3333 304.5,18.5C 304.291,17.914 303.957,17.414 303.5,17C 307.187,13.3952 311.02,9.8952 315,6.5C 315.662,4.18732 316.162,1.85398 316.5,-0.5 Z"/></g>
<g><path style="opacity:1" fill="#1b1b1b" d="M 344.5,-0.5 C 358.833,-0.5 373.167,-0.5 387.5,-0.5C 387.5,2.16667 387.5,4.83333 387.5,7.5C 386.167,7.5 384.833,7.5 383.5,7.5C 383.692,10.8091 382.359,13.3091 379.5,15C 381.833,15.3333 384.167,15.6667 386.5,16C 382.577,16.7927 378.744,16.626 375,15.5C 374.25,16.1258 373.416,16.6258 372.5,17C 374.715,18.0438 377.048,18.7105 379.5,19C 376.559,19.513 373.559,20.1797 370.5,21C 387.491,21.8586 404.491,22.3586 421.5,22.5C 421.5,22.8333 421.5,23.1667 421.5,23.5C 397.167,23.5 372.833,23.5 348.5,23.5C 341.012,22.4 333.346,21.5667 325.5,21C 328.167,20.3333 330.833,19.6667 333.5,19C 330.83,17.276 331.163,16.1093 334.5,15.5C 335.282,12.9242 336.782,10.9242 339,9.5C 340.07,5.68906 341.903,2.35573 344.5,-0.5 Z"/></g>
<g><path style="opacity:1" fill="#161616" d="M 387.5,-0.5 C 398.833,-0.5 410.167,-0.5 421.5,-0.5C 421.5,7.16667 421.5,14.8333 421.5,22.5C 404.491,22.3586 387.491,21.8586 370.5,21C 373.559,20.1797 376.559,19.513 379.5,19C 377.048,18.7105 374.715,18.0438 372.5,17C 373.416,16.6258 374.25,16.1258 375,15.5C 378.744,16.626 382.577,16.7927 386.5,16C 384.167,15.6667 381.833,15.3333 379.5,15C 382.359,13.3091 383.692,10.8091 383.5,7.5C 384.833,7.5 386.167,7.5 387.5,7.5C 387.5,4.83333 387.5,2.16667 387.5,-0.5 Z"/></g>
<g><path style="opacity:1" fill="#4f4f4f" d="M 220.5,4.5 C 217.154,5.07355 213.821,5.74022 210.5,6.5C 206.892,5.40676 203.225,5.24009 199.5,6C 198.944,6.38258 198.611,6.88258 198.5,7.5C 192.943,5.26952 193.277,4.10285 199.5,4C 206.679,3.17874 213.679,3.3454 220.5,4.5 Z"/></g>
<g><path style="opacity:1" fill="#686868" d="M 220.5,4.5 C 227.535,4.01636 228.035,5.01636 222,7.5C 219.846,6.7479 217.68,6.58123 215.5,7C 213.962,10.5761 212.295,14.0761 210.5,17.5C 208.74,14.0603 207.074,10.5603 205.5,7C 203.115,6.4436 200.782,6.61027 198.5,7.5C 198.611,6.88258 198.944,6.38258 199.5,6C 203.225,5.24009 206.892,5.40676 210.5,6.5C 213.821,5.74022 217.154,5.07355 220.5,4.5 Z"/></g>
<g><path style="opacity:1" fill="#101010" d="M 272.5,23.5 C 278.167,23.5 283.833,23.5 289.5,23.5C 298.833,23.5 308.167,23.5 317.5,23.5C 327.833,23.5 338.167,23.5 348.5,23.5C 372.833,23.5 397.167,23.5 421.5,23.5C 421.5,46.1667 421.5,68.8333 421.5,91.5C 421.167,91.5 420.833,91.5 420.5,91.5C 420.5,71.1667 420.5,50.8333 420.5,30.5C 420.5,28.8333 420.5,27.1667 420.5,25.5C 398.167,25.5 375.833,25.5 353.5,25.5C 341.5,25.5 329.5,25.5 317.5,25.5C 306.833,25.5 296.167,25.5 285.5,25.5C 281.167,25.5 276.833,25.5 272.5,25.5C 272.5,24.8333 272.5,24.1667 272.5,23.5 Z"/></g>
<g><path style="opacity:1" fill="#171717" d="M -0.5,-0.5 C 11.5,-0.5 23.5,-0.5 35.5,-0.5C 35.5,2.16667 35.5,4.83333 35.5,7.5C 36.8333,7.5 38.1667,7.5 39.5,7.5C 39.3433,8.87344 39.51,10.2068 40,11.5C 44.4065,14.1208 44.2398,15.6208 39.5,16C 41.7148,16.1705 43.7148,16.8372 45.5,18C 39.5917,18.1888 39.2584,19.1888 44.5,21C 33.0184,21.6937 21.3517,22.3604 9.5,23C 30.8307,23.5 52.1641,23.6666 73.5,23.5C 82.8333,23.5 92.1667,23.5 101.5,23.5C 111.167,23.5 120.833,23.5 130.5,23.5C 140.5,23.5 150.5,23.5 160.5,23.5C 193.5,23.5 226.5,23.5 259.5,23.5C 263.833,23.5 268.167,23.5 272.5,23.5C 272.5,24.1667 272.5,24.8333 272.5,25.5C 266.5,25.5 260.5,25.5 254.5,25.5C 222.167,25.5 189.833,25.5 157.5,25.5C 147.833,25.5 138.167,25.5 128.5,25.5C 119.833,25.5 111.167,25.5 102.5,25.5C 91.1667,25.5 79.8333,25.5 68.5,25.5C 46.4975,25.3334 24.4975,25.5 2.5,26C 2.16667,26.3333 1.83333,26.6667 1.5,27C 9.47284,27.8263 9.47284,28.3263 1.5,28.5C 1.33344,41.8375 1.5001,55.1708 2,68.5C 2.94353,67.737 3.44353,66.737 3.5,65.5C 3.23995,56.8002 3.23995,48.1336 3.5,39.5C 5.07487,48.4815 5.9082,57.4815 6,66.5C 6.33333,58.1667 6.66667,49.8333 7,41.5C 7.49656,48.5032 8.16322,48.8365 9,42.5C 10.2937,43.8544 10.4604,45.1877 9.5,46.5C 16.7857,47.1548 23.7857,48.8214 30.5,51.5C 31.5,51.5 32.5,51.5 33.5,51.5C 38.3054,52.4872 43.3054,52.8205 48.5,52.5C 48.8097,58.7576 48.4764,64.9242 47.5,71C 49.3213,73.456 49.988,76.2893 49.5,79.5C 48.5,79.5 47.5,79.5 46.5,79.5C 46.5,81.8333 46.5,84.1667 46.5,86.5C 52.2108,85.8976 57.8774,85.8976 63.5,86.5C 62.6519,87.9911 61.3186,88.6578 59.5,88.5C 55.6414,88.2924 51.6414,88.1257 47.5,88C 45.6787,85.544 45.012,82.7107 45.5,79.5C 44.1667,79.5 42.8333,79.5 41.5,79.5C 41.8134,82.2469 41.48,84.9135 40.5,87.5C 37.557,88.2435 34.557,88.7435 31.5,89C 58.5062,89.1668 85.5062,89.6668 112.5,90.5C 75.1711,91.3333 37.8378,91.8333 0.5,92C 140.667,92.8327 280.667,92.6661 420.5,91.5C 420.833,91.5 421.167,91.5 421.5,91.5C 421.5,92.1667 421.5,92.8333 421.5,93.5C 280.833,93.5 140.167,93.5 -0.5,93.5C -0.5,62.1667 -0.5,30.8333 -0.5,-0.5 Z"/></g>
<g><path style="opacity:1" fill="#1b1b1b" d="M 68.5,25.5 C 68.5,26.8333 68.5,28.1667 68.5,29.5C 67.5,29.5 66.5,29.5 65.5,29.5C 65.3287,32.7973 65.9954,33.1306 67.5,30.5C 68.3857,31.325 68.719,32.325 68.5,33.5C 67.5,33.5 66.5,33.5 65.5,33.5C 65.3398,35.1992 65.5065,36.8659 66,38.5C 67.3772,34.7351 68.3772,35.0684 69,39.5C 69.3333,38.1667 69.6667,36.8333 70,35.5C 71.7983,40.8098 72.7983,40.4764 73,34.5C 73.3333,36.1667 73.6667,37.8333 74,39.5C 75.1597,37.203 76.1597,37.5363 77,40.5C 77.3333,37.5 77.6667,34.5 78,31.5C 78.3333,34.1667 78.6667,36.8333 79,39.5C 79.7504,40.1258 80.5838,40.6258 81.5,41C 80.1667,41.6667 80.1667,42.3333 81.5,43C 78.8987,43.9203 76.2321,44.587 73.5,45C 56.4902,45.1671 39.4902,45.6671 22.5,46.5C 23.0047,47.9185 24.0047,48.5852 25.5,48.5C 25.8333,48.5 26.1667,48.5 26.5,48.5C 27.8333,49.5 29.1667,50.5 30.5,51.5C 23.7857,48.8214 16.7857,47.1548 9.5,46.5C 10.4604,45.1877 10.2937,43.8544 9,42.5C 8.16322,48.8365 7.49656,48.5032 7,41.5C 6.66667,49.8333 6.33333,58.1667 6,66.5C 5.9082,57.4815 5.07487,48.4815 3.5,39.5C 3.23995,48.1336 3.23995,56.8002 3.5,65.5C 3.44353,66.737 2.94353,67.737 2,68.5C 1.5001,55.1708 1.33344,41.8375 1.5,28.5C 9.47284,28.3263 9.47284,27.8263 1.5,27C 1.83333,26.6667 2.16667,26.3333 2.5,26C 24.4975,25.5 46.4975,25.3334 68.5,25.5 Z"/></g>
<g><path style="opacity:1" fill="#222223" d="M 68.5,25.5 C 79.8333,25.5 91.1667,25.5 102.5,25.5C 102.215,27.288 102.548,28.9547 103.5,30.5C 104.5,31.8333 105.5,31.8333 106.5,30.5C 107.386,31.325 107.719,32.325 107.5,33.5C 109.124,33.3601 110.29,34.0267 111,35.5C 113.234,35.6263 115.568,35.2929 118,34.5C 118.419,38.8518 119.086,39.1851 120,35.5C 120.333,36.8333 120.667,38.1667 121,39.5C 125.203,39.2356 129.37,38.9023 133.5,38.5C 134.192,39.0253 134.692,39.6919 135,40.5C 137.825,41.2746 140.825,41.2746 144,40.5C 144.167,40.8333 144.333,41.1667 144.5,41.5C 143,41.8333 141.5,42.1667 140,42.5C 137.891,42.0298 136.058,42.0298 134.5,42.5C 140.139,44.3339 145.139,45.0006 149.5,44.5C 142.5,44.8333 135.5,45.1667 128.5,45.5C 121,45.465 113.666,44.7984 106.5,43.5C 105.613,44.9732 104.613,46.3065 103.5,47.5C 102.863,44.544 102.363,41.544 102,38.5C 101.667,40.1667 101.333,41.8333 101,43.5C 100.333,44.8333 99.6667,44.8333 99,43.5C 97.9563,44.6226 97.2896,45.9559 97,47.5C 96.3333,46.1667 95.6667,46.1667 95,47.5C 94.4718,40.9266 93.6385,40.9266 92.5,47.5C 90.6318,47.0539 88.7985,46.7205 87,46.5C 86.5831,47.756 85.7498,48.4226 84.5,48.5C 75.0235,47.1681 65.1901,46.5014 55,46.5C 44.8099,46.5014 34.9765,47.1681 25.5,48.5C 24.0047,48.5852 23.0047,47.9185 22.5,46.5C 39.4902,45.6671 56.4902,45.1671 73.5,45C 76.2321,44.587 78.8987,43.9203 81.5,43C 80.1667,42.3333 80.1667,41.6667 81.5,41C 80.5838,40.6258 79.7504,40.1258 79,39.5C 78.6667,36.8333 78.3333,34.1667 78,31.5C 77.6667,34.5 77.3333,37.5 77,40.5C 76.1597,37.5363 75.1597,37.203 74,39.5C 73.6667,37.8333 73.3333,36.1667 73,34.5C 72.7983,40.4764 71.7983,40.8098 70,35.5C 69.6667,36.8333 69.3333,38.1667 69,39.5C 68.3772,35.0684 67.3772,34.7351 66,38.5C 65.5065,36.8659 65.3398,35.1992 65.5,33.5C 66.5,33.5 67.5,33.5 68.5,33.5C 68.719,32.325 68.3857,31.325 67.5,30.5C 65.9954,33.1306 65.3287,32.7973 65.5,29.5C 66.5,29.5 67.5,29.5 68.5,29.5C 68.5,28.1667 68.5,26.8333 68.5,25.5 Z"/></g>
<g><path style="opacity:1" fill="#2e2d2e" d="M 128.5,25.5 C 138.167,25.5 147.833,25.5 157.5,25.5C 157.09,30.3033 158.59,31.3033 162,28.5C 164,31.1667 166,31.1667 168,28.5C 168.617,29.4491 168.451,30.2825 167.5,31C 169.649,32.1638 171.815,33.3305 174,34.5C 174.456,33.2559 173.956,32.4226 172.5,32C 173.5,31.5 174.5,31 175.5,30.5C 175.354,31.9762 176.187,33.3095 178,34.5C 179.261,34.2409 180.261,33.5742 181,32.5C 181.359,35.5443 182.026,35.8776 183,33.5C 185.173,36.277 185.673,36.1103 184.5,33C 185.5,32.3333 186.5,32.3333 187.5,33C 186.549,33.7175 186.383,34.5509 187,35.5C 188.875,34.7263 190.709,33.893 192.5,33C 191.216,34.2975 191.383,35.4642 193,36.5C 193.221,33.0569 194.221,32.7236 196,35.5C 196.667,31.5 197.333,31.5 198,35.5C 198.333,34.8333 198.667,34.1667 199,33.5C 199.739,34.5742 200.739,35.2409 202,35.5C 203.667,34.1667 205.333,34.1667 207,35.5C 208.261,35.2409 209.261,34.5742 210,33.5C 210.718,34.4506 211.551,34.6172 212.5,34C 211.304,33.3457 211.304,32.8457 212.5,32.5C 213.308,34.4233 213.808,36.4233 214,38.5C 214.49,37.2068 214.657,35.8734 214.5,34.5C 217.089,35.4379 219.589,35.7712 222,35.5C 222.667,31.5 223.333,31.5 224,35.5C 226.667,35.5 229.333,35.5 232,35.5C 232.249,34.376 232.749,33.376 233.5,32.5C 233.911,33.2624 234.077,34.2624 234,35.5C 235.079,33.6063 236.413,33.273 238,34.5C 240.437,30.8268 243.104,30.8268 246,34.5C 246.245,32.3367 247.245,30.67 249,29.5C 250.394,31.4019 252.227,31.7353 254.5,30.5C 254.5,28.8333 254.5,27.1667 254.5,25.5C 260.5,25.5 266.5,25.5 272.5,25.5C 276.833,25.5 281.167,25.5 285.5,25.5C 285.5,27.5 285.5,29.5 285.5,31.5C 284.5,31.5 283.5,31.5 282.5,31.5C 282.134,36.4675 281.634,36.1342 281,30.5C 280.51,31.7932 280.343,33.1266 280.5,34.5C 279.178,34.33 278.011,34.6634 277,35.5C 276.798,33.7444 276.298,32.0777 275.5,30.5C 275.459,32.9292 274.959,35.5959 274,38.5C 273.667,36.1667 273.333,33.8333 273,31.5C 272.667,34.1667 272.333,36.8333 272,39.5C 271.395,37.5188 270.395,37.1854 269,38.5C 268.667,37.5 268.333,36.5 268,35.5C 267.71,37.0441 267.044,38.3774 266,39.5C 265.667,37.5 265.333,35.5 265,33.5C 264.749,35.433 264.249,37.2663 263.5,39C 260.611,38.6183 257.777,38.4516 255,38.5C 254.667,39.1667 254.333,39.8333 254,40.5C 252.887,39.2889 251.72,39.2889 250.5,40.5C 249.808,39.9747 249.308,39.3081 249,38.5C 248.536,44.1748 247.869,44.5081 247,39.5C 246.667,40.8333 246.333,42.1667 246,43.5C 244.983,40.972 243.816,40.972 242.5,43.5C 241.887,42.0202 241.554,40.6869 241.5,39.5C 240.534,41.396 240.201,43.396 240.5,45.5C 237.798,43.9139 234.798,42.9139 231.5,42.5C 226.451,43.31 221.618,43.31 217,42.5C 216.667,43.1667 216.333,43.8333 216,44.5C 211.333,43.8333 206.667,43.1667 202,42.5C 198.645,42.1834 195.478,42.5168 192.5,43.5C 191.167,42.8333 189.833,42.1667 188.5,41.5C 188.331,42.3966 187.998,43.3966 187.5,44.5C 184.494,42.9962 183.828,43.6629 185.5,46.5C 185.5,51.1667 185.5,55.8333 185.5,60.5C 184.596,59.791 184.263,58.791 184.5,57.5C 184.649,56.448 184.483,55.448 184,54.5C 181.745,53.9582 179.912,52.7915 178.5,51C 180.839,48.7311 180.172,47.2311 176.5,46.5C 177.025,45.8076 177.692,45.3076 178.5,45C 177.151,44.2276 176.318,43.0609 176,41.5C 174.611,45.2721 173.611,45.2721 173,41.5C 171.149,44.0643 169.316,44.0643 167.5,41.5C 164.185,42.177 161.018,42.177 158,41.5C 156.826,39.3291 154.993,38.3291 152.5,38.5C 152.762,37.0222 152.429,35.6888 151.5,34.5C 151.693,35.6882 151.193,37.0215 150,38.5C 149.389,36.2499 148.056,34.5832 146,33.5C 143.453,35.749 140.953,35.4157 138.5,32.5C 137.749,33.376 137.249,34.376 137,35.5C 136.667,34.1667 136.333,32.8333 136,31.5C 135.667,32.1667 135.333,32.8333 135,33.5C 134.814,31.0995 134.314,28.7662 133.5,26.5C 133.446,27.6869 133.113,29.0202 132.5,30.5C 131.833,29.1667 131.167,27.8333 130.5,26.5C 128.998,30.374 128.331,30.0407 128.5,25.5 Z"/></g>
<g><path style="opacity:1" fill="#333333" d="M 157.5,25.5 C 189.833,25.5 222.167,25.5 254.5,25.5C 254.5,27.1667 254.5,28.8333 254.5,30.5C 252.227,31.7353 250.394,31.4019 249,29.5C 247.245,30.67 246.245,32.3367 246,34.5C 243.104,30.8268 240.437,30.8268 238,34.5C 236.413,33.273 235.079,33.6063 234,35.5C 234.077,34.2624 233.911,33.2624 233.5,32.5C 232.749,33.376 232.249,34.376 232,35.5C 229.333,35.5 226.667,35.5 224,35.5C 223.333,31.5 222.667,31.5 222,35.5C 219.589,35.7712 217.089,35.4379 214.5,34.5C 214.657,35.8734 214.49,37.2068 214,38.5C 213.808,36.4233 213.308,34.4233 212.5,32.5C 211.304,32.8457 211.304,33.3457 212.5,34C 211.551,34.6172 210.718,34.4506 210,33.5C 209.261,34.5742 208.261,35.2409 207,35.5C 205.333,34.1667 203.667,34.1667 202,35.5C 200.739,35.2409 199.739,34.5742 199,33.5C 198.667,34.1667 198.333,34.8333 198,35.5C 197.333,31.5 196.667,31.5 196,35.5C 194.221,32.7236 193.221,33.0569 193,36.5C 191.383,35.4642 191.216,34.2975 192.5,33C 190.709,33.893 188.875,34.7263 187,35.5C 186.383,34.5509 186.549,33.7175 187.5,33C 186.5,32.3333 185.5,32.3333 184.5,33C 185.673,36.1103 185.173,36.277 183,33.5C 182.026,35.8776 181.359,35.5443 181,32.5C 180.261,33.5742 179.261,34.2409 178,34.5C 176.187,33.3095 175.354,31.9762 175.5,30.5C 174.5,31 173.5,31.5 172.5,32C 173.956,32.4226 174.456,33.2559 174,34.5C 171.815,33.3305 169.649,32.1638 167.5,31C 168.451,30.2825 168.617,29.4491 168,28.5C 166,31.1667 164,31.1667 162,28.5C 158.59,31.3033 157.09,30.3033 157.5,25.5 Z"/></g>
<g><path style="opacity:1" fill="#272727" d="M 285.5,25.5 C 296.167,25.5 306.833,25.5 317.5,25.5C 317.665,28.8499 317.498,32.1832 317,35.5C 316,28.8333 315,28.8333 314,35.5C 313.798,33.7444 313.298,32.0777 312.5,30.5C 311.158,31.9023 310.324,31.5689 310,29.5C 309.667,32.5 309.333,35.5 309,38.5C 308,31.8333 307,31.8333 306,38.5C 305.667,36.1667 305.333,33.8333 305,31.5C 304.377,35.9316 303.377,36.2649 302,32.5C 301.667,35.1667 301.333,37.8333 301,40.5C 300.798,38.7444 300.298,37.0777 299.5,35.5C 299.81,37.2012 299.31,38.8678 298,40.5C 297.333,33.8333 296.667,33.8333 296,40.5C 294.883,39.0506 294.216,37.3839 294,35.5C 293.667,38.5 293.333,41.5 293,44.5C 292.751,43.376 292.251,42.376 291.5,41.5C 290.692,43.4233 290.192,45.4233 290,47.5C 289.818,44.7737 289.318,42.1071 288.5,39.5C 288.446,40.6869 288.113,42.0202 287.5,43.5C 286.749,42.624 286.249,41.624 286,40.5C 285.667,42.8333 285.333,45.1667 285,47.5C 284,42.1667 283,42.1667 282,47.5C 281.667,46.1667 281.333,44.8333 281,43.5C 280.134,47.8065 279.134,48.1399 278,44.5C 277.667,47.1667 277.333,49.8333 277,52.5C 276.808,50.4233 276.308,48.4233 275.5,46.5C 274.808,47.0253 274.308,47.6919 274,48.5C 273.501,53.8229 273.334,59.1563 273.5,64.5C 273.167,64.5 272.833,64.5 272.5,64.5C 272.5,58.5 272.5,52.5 272.5,46.5C 268.894,46.2108 265.394,46.5442 262,47.5C 261.5,54.4921 261.334,61.4921 261.5,68.5C 259.778,66.5504 257.612,65.2171 255,64.5C 254.458,69.7208 253.624,69.7208 252.5,64.5C 251.075,69.7298 249.909,69.7298 249,64.5C 248.131,69.5081 247.464,69.1748 247,63.5C 246.667,65.8333 246.333,68.1667 246,70.5C 245.092,63.5166 244.092,63.1833 243,69.5C 241.56,63.0393 240.56,63.0393 240,69.5C 239.617,68.944 239.117,68.6107 238.5,68.5C 238.818,63.9677 238.485,59.6344 237.5,55.5C 235.302,54.8347 232.969,54.1681 230.5,53.5C 230.863,52.8165 231.196,52.1499 231.5,51.5C 232.5,50.8333 233.5,50.1667 234.5,49.5C 235.167,49.5 235.833,49.5 236.5,49.5C 238.833,49.1667 240.167,47.8333 240.5,45.5C 240.201,43.396 240.534,41.396 241.5,39.5C 241.554,40.6869 241.887,42.0202 242.5,43.5C 243.816,40.972 244.983,40.972 246,43.5C 246.333,42.1667 246.667,40.8333 247,39.5C 247.869,44.5081 248.536,44.1748 249,38.5C 249.308,39.3081 249.808,39.9747 250.5,40.5C 251.72,39.2889 252.887,39.2889 254,40.5C 254.333,39.8333 254.667,39.1667 255,38.5C 257.777,38.4516 260.611,38.6183 263.5,39C 264.249,37.2663 264.749,35.433 265,33.5C 265.333,35.5 265.667,37.5 266,39.5C 267.044,38.3774 267.71,37.0441 268,35.5C 268.333,36.5 268.667,37.5 269,38.5C 270.395,37.1854 271.395,37.5188 272,39.5C 272.333,36.8333 272.667,34.1667 273,31.5C 273.333,33.8333 273.667,36.1667 274,38.5C 274.959,35.5959 275.459,32.9292 275.5,30.5C 276.298,32.0777 276.798,33.7444 277,35.5C 278.011,34.6634 279.178,34.33 280.5,34.5C 280.343,33.1266 280.51,31.7932 281,30.5C 281.634,36.1342 282.134,36.4675 282.5,31.5C 283.5,31.5 284.5,31.5 285.5,31.5C 285.5,29.5 285.5,27.5 285.5,25.5 Z"/></g>
<g><path style="opacity:1" fill="#212121" d="M 317.5,25.5 C 329.5,25.5 341.5,25.5 353.5,25.5C 352.194,26.4674 351.527,27.8007 351.5,29.5C 354.187,29.3359 356.854,29.5026 359.5,30C 354.762,31.3442 350.095,31.5108 345.5,30.5C 345.838,32.854 346.338,35.1873 347,37.5C 347.192,35.4233 347.692,33.4233 348.5,31.5C 348.905,33.1191 349.405,35.1191 350,37.5C 351.043,33.7741 351.543,34.1074 351.5,38.5C 349.322,39.204 347.322,39.5374 345.5,39.5C 343.362,38.5711 342.196,36.9045 342,34.5C 340.796,35.4706 340.296,36.4706 340.5,37.5C 338.286,35.0762 337.286,35.7429 337.5,39.5C 336.178,39.67 335.011,39.3366 334,38.5C 333.531,40.1083 332.865,41.7749 332,43.5C 331.667,41.8333 331.333,40.1667 331,38.5C 330.308,39.0253 329.808,39.6919 329.5,40.5C 329.745,42.9219 329.745,45.2552 329.5,47.5C 328.362,40.9266 327.528,40.9266 327,47.5C 326.667,44.8333 326.333,42.1667 326,39.5C 325.667,43.5 325.333,47.5 325,51.5C 324.818,48.7737 324.318,46.1071 323.5,43.5C 323.613,46.0589 323.113,48.7256 322,51.5C 321.636,39.6088 320.636,39.6088 319,51.5C 318.667,48.8333 318.333,46.1667 318,43.5C 317.667,47.8333 317.333,52.1667 317,56.5C 316,43.1667 315,43.1667 314,56.5C 313.667,53.1667 313.333,49.8333 313,46.5C 312.821,49.5535 312.321,52.5535 311.5,55.5C 311.127,53.1166 310.627,50.4499 310,47.5C 309.667,51.5 309.333,55.5 309,59.5C 308,48.8333 307,48.8333 306,59.5C 305.667,56.5 305.333,53.5 305,50.5C 303.386,61.0411 302.386,61.0411 302,50.5C 301.667,53.8333 301.333,57.1667 301,60.5C 300.818,57.7737 300.318,55.1071 299.5,52.5C 299.117,54.5212 298.783,56.8546 298.5,59.5C 298.833,60.8333 299.167,62.1667 299.5,63.5C 301.031,62.5788 302.365,62.9122 303.5,64.5C 293.5,64.5 283.5,64.5 273.5,64.5C 273.334,59.1563 273.501,53.8229 274,48.5C 274.308,47.6919 274.808,47.0253 275.5,46.5C 276.308,48.4233 276.808,50.4233 277,52.5C 277.333,49.8333 277.667,47.1667 278,44.5C 279.134,48.1399 280.134,47.8065 281,43.5C 281.333,44.8333 281.667,46.1667 282,47.5C 283,42.1667 284,42.1667 285,47.5C 285.333,45.1667 285.667,42.8333 286,40.5C 286.249,41.624 286.749,42.624 287.5,43.5C 288.113,42.0202 288.446,40.6869 288.5,39.5C 289.318,42.1071 289.818,44.7737 290,47.5C 290.192,45.4233 290.692,43.4233 291.5,41.5C 292.251,42.376 292.751,43.376 293,44.5C 293.333,41.5 293.667,38.5 294,35.5C 294.216,37.3839 294.883,39.0506 296,40.5C 296.667,33.8333 297.333,33.8333 298,40.5C 299.31,38.8678 299.81,37.2012 299.5,35.5C 300.298,37.0777 300.798,38.7444 301,40.5C 301.333,37.8333 301.667,35.1667 302,32.5C 303.377,36.2649 304.377,35.9316 305,31.5C 305.333,33.8333 305.667,36.1667 306,38.5C 307,31.8333 308,31.8333 309,38.5C 309.333,35.5 309.667,32.5 310,29.5C 310.324,31.5689 311.158,31.9023 312.5,30.5C 313.298,32.0777 313.798,33.7444 314,35.5C 315,28.8333 316,28.8333 317,35.5C 317.498,32.1832 317.665,28.8499 317.5,25.5 Z"/></g>
<g><path style="opacity:1" fill="#171717" d="M 420.5,30.5 C 420.5,50.8333 420.5,71.1667 420.5,91.5C 381.472,91.9509 342.472,91.4509 303.5,90C 316.846,89.8327 330.179,89.3327 343.5,88.5C 335.5,88.9886 327.5,88.4886 319.5,87C 330.195,86.4983 340.862,85.6649 351.5,84.5C 348.833,83.8333 346.167,83.1667 343.5,82.5C 346.366,81.792 349.2,81.1253 352,80.5C 353.037,82.2176 353.537,84.051 353.5,86C 357.192,85.9139 357.525,84.5806 354.5,82C 357.709,80.0393 358.709,80.8726 357.5,84.5C 357.808,85.3081 358.308,85.9747 359,86.5C 359.333,83.5 359.667,80.5 360,77.5C 361.119,78.5521 361.619,79.7188 361.5,81C 362.549,81.4922 363.549,81.3256 364.5,80.5C 366.876,81.5791 367.043,82.9125 365,84.5C 362.419,81.4745 361.086,81.8079 361,85.5C 362.113,86.7111 363.28,86.7111 364.5,85.5C 365.5,85.8333 366.167,86.5 366.5,87.5C 361.482,87.9323 356.315,87.9323 351,87.5C 350.5,88 350,88.5 349.5,89C 375.063,90.0637 383.729,89.897 375.5,88.5C 375.799,86.396 375.466,84.396 374.5,82.5C 373.355,83.7757 373.355,85.109 374.5,86.5C 373.295,88.1376 371.962,88.4709 370.5,87.5C 371.246,86.2638 371.579,84.9305 371.5,83.5C 370.325,83.281 369.325,83.6143 368.5,84.5C 369.59,85.6086 369.59,86.6086 368.5,87.5C 367.231,85.3052 367.231,83.1385 368.5,81C 370.797,80.9822 373.131,81.1489 375.5,81.5C 375.785,79.712 375.452,78.0453 374.5,76.5C 373.494,76.9377 373.494,77.6043 374.5,78.5C 372.257,79.4742 369.924,79.8076 367.5,79.5C 368.01,74.3992 368.677,69.5658 369.5,65C 368.584,64.6258 367.75,64.1258 367,63.5C 366.667,66.1667 366.333,68.8333 366,71.5C 364.541,61.0326 363.541,61.0326 363,71.5C 362.502,68.5184 362.335,65.5184 362.5,62.5C 367.5,62.5 372.5,62.5 377.5,62.5C 377.223,65.4475 377.556,68.2809 378.5,71C 381.105,72.0213 383.772,72.8546 386.5,73.5C 387.919,72.9953 388.585,71.9953 388.5,70.5C 389.167,70.5 389.5,70.1667 389.5,69.5C 391.401,64.7746 391.901,59.7746 391,54.5C 389.933,53.8095 388.766,53.3095 387.5,53C 390.02,51.2368 392.353,49.2368 394.5,47C 395.448,46.5172 396.448,46.3505 397.5,46.5C 397.281,45.325 397.614,44.325 398.5,43.5C 399.614,44.723 399.781,46.0563 399,47.5C 397.333,49.1667 395.667,50.8333 394,52.5C 393.5,58.8246 393.334,65.1579 393.5,71.5C 395.527,71.6621 397.527,71.4955 399.5,71C 399,70.5 398.5,70 398,69.5C 396.885,63.5395 397.551,57.8729 400,52.5C 400.333,61.5 400.667,70.5 401,79.5C 401.667,26.1667 402.333,26.1667 403,79.5C 403.333,78.8333 403.667,78.1667 404,77.5C 404.333,64.8333 404.667,52.1667 405,39.5C 405.333,52.8333 405.667,66.1667 406,79.5C 406.5,71.5069 406.666,63.5069 406.5,55.5C 418.5,55.1667 418.5,54.8333 406.5,54.5C 406.343,53.1266 406.51,51.7932 407,50.5C 410,51.8333 413,51.8333 416,50.5C 416.333,52.1667 416.667,53.8333 417,55.5C 417.333,47.1667 417.667,38.8333 418,30.5C 418.333,46.5 418.667,62.5 419,78.5C 419.169,62.3281 419.669,46.3281 420.5,30.5 Z"/></g>
<g><path style="opacity:1" fill="#272729" d="M 102.5,25.5 C 111.167,25.5 119.833,25.5 128.5,25.5C 128.331,30.0407 128.998,30.374 130.5,26.5C 131.167,27.8333 131.833,29.1667 132.5,30.5C 133.113,29.0202 133.446,27.6869 133.5,26.5C 134.314,28.7662 134.814,31.0995 135,33.5C 135.333,32.8333 135.667,32.1667 136,31.5C 136.333,32.8333 136.667,34.1667 137,35.5C 137.249,34.376 137.749,33.376 138.5,32.5C 140.953,35.4157 143.453,35.749 146,33.5C 148.056,34.5832 149.389,36.2499 150,38.5C 151.193,37.0215 151.693,35.6882 151.5,34.5C 152.429,35.6888 152.762,37.0222 152.5,38.5C 154.993,38.3291 156.826,39.3291 158,41.5C 161.018,42.177 164.185,42.177 167.5,41.5C 169.316,44.0643 171.149,44.0643 173,41.5C 173.611,45.2721 174.611,45.2721 176,41.5C 176.318,43.0609 177.151,44.2276 178.5,45C 177.692,45.3076 177.025,45.8076 176.5,46.5C 180.172,47.2311 180.839,48.7311 178.5,51C 179.912,52.7915 181.745,53.9582 184,54.5C 184.483,55.448 184.649,56.448 184.5,57.5C 182.549,57.2267 181.049,57.8934 180,59.5C 179.798,57.7444 179.298,56.0777 178.5,54.5C 177.197,55.7178 176.197,55.3845 175.5,53.5C 174.212,55.4745 172.545,55.4745 170.5,53.5C 169.676,55.7476 168.676,55.9142 167.5,54C 168.03,52.2562 168.03,50.7562 167.5,49.5C 166.251,51.4755 164.751,51.8088 163,50.5C 162.395,52.4812 161.395,52.8146 160,51.5C 156.49,53.2185 152.656,54.0519 148.5,54C 152.356,54.1773 156.023,54.6773 159.5,55.5C 154.167,55.5 148.833,55.5 143.5,55.5C 137.5,55.5 131.5,55.5 125.5,55.5C 118.745,54.8771 112.412,55.5437 106.5,57.5C 105.163,56.6851 104.163,55.5185 103.5,54C 108.029,53.3206 112.529,53.4873 117,54.5C 118.376,54.3158 119.209,53.6491 119.5,52.5C 130.838,52.6665 142.172,52.4999 153.5,52C 154.527,51.4867 155.527,50.9867 156.5,50.5C 157.71,50.0679 158.71,49.4013 159.5,48.5C 160.043,48.44 160.376,48.1067 160.5,47.5C 142.5,46.1667 124.5,46.1667 106.5,47.5C 107.549,49.2156 108.882,50.5489 110.5,51.5C 107.318,51.416 104.985,50.0827 103.5,47.5C 104.613,46.3065 105.613,44.9732 106.5,43.5C 113.666,44.7984 121,45.465 128.5,45.5C 135.5,45.1667 142.5,44.8333 149.5,44.5C 145.139,45.0006 140.139,44.3339 134.5,42.5C 136.058,42.0298 137.891,42.0298 140,42.5C 141.5,42.1667 143,41.8333 144.5,41.5C 144.333,41.1667 144.167,40.8333 144,40.5C 140.825,41.2746 137.825,41.2746 135,40.5C 134.692,39.6919 134.192,39.0253 133.5,38.5C 129.37,38.9023 125.203,39.2356 121,39.5C 120.667,38.1667 120.333,36.8333 120,35.5C 119.086,39.1851 118.419,38.8518 118,34.5C 115.568,35.2929 113.234,35.6263 111,35.5C 110.29,34.0267 109.124,33.3601 107.5,33.5C 107.719,32.325 107.386,31.325 106.5,30.5C 105.5,31.8333 104.5,31.8333 103.5,30.5C 102.548,28.9547 102.215,27.288 102.5,25.5 Z"/></g>
<g><path style="opacity:1" fill="#1b1b1b" d="M 353.5,25.5 C 375.833,25.5 398.167,25.5 420.5,25.5C 420.5,27.1667 420.5,28.8333 420.5,30.5C 419.669,46.3281 419.169,62.3281 419,78.5C 418.667,62.5 418.333,46.5 418,30.5C 417.667,38.8333 417.333,47.1667 417,55.5C 416.667,53.8333 416.333,52.1667 416,50.5C 413,51.8333 410,51.8333 407,50.5C 406.51,51.7932 406.343,53.1266 406.5,54.5C 418.5,54.8333 418.5,55.1667 406.5,55.5C 406.666,63.5069 406.5,71.5069 406,79.5C 405.667,66.1667 405.333,52.8333 405,39.5C 404.667,52.1667 404.333,64.8333 404,77.5C 403.667,78.1667 403.333,78.8333 403,79.5C 402.333,26.1667 401.667,26.1667 401,79.5C 400.667,70.5 400.333,61.5 400,52.5C 397.551,57.8729 396.885,63.5395 398,69.5C 398.5,70 399,70.5 399.5,71C 397.527,71.4955 395.527,71.6621 393.5,71.5C 393.334,65.1579 393.5,58.8246 394,52.5C 395.667,50.8333 397.333,49.1667 399,47.5C 399.781,46.0563 399.614,44.723 398.5,43.5C 397.614,44.325 397.281,45.325 397.5,46.5C 396.448,46.3505 395.448,46.5172 394.5,47C 392.353,49.2368 390.02,51.2368 387.5,53C 388.766,53.3095 389.933,53.8095 391,54.5C 391.901,59.7746 391.401,64.7746 389.5,69.5C 389.5,65.1667 389.5,60.8333 389.5,56.5C 389.5,55.8333 389.167,55.5 388.5,55.5C 372.675,54.5036 356.675,54.1703 340.5,54.5C 340.263,53.209 340.596,52.209 341.5,51.5C 344.43,52.299 347.43,52.6323 350.5,52.5C 361.505,52.6665 372.505,52.4998 383.5,52C 384.416,51.7216 385.082,51.2216 385.5,50.5C 386.492,50.6716 387.158,50.3382 387.5,49.5C 388.995,49.5852 389.995,48.9185 390.5,47.5C 372.167,46.1667 353.833,46.1667 335.5,47.5C 335.855,48.5223 336.522,49.189 337.5,49.5C 337.5,51.5 337.5,53.5 337.5,55.5C 337.5,60.5 337.5,65.5 337.5,70.5C 341.042,70.8128 344.375,70.4794 347.5,69.5C 348.468,67.3926 348.802,65.0593 348.5,62.5C 353.167,62.5 357.833,62.5 362.5,62.5C 362.335,65.5184 362.502,68.5184 363,71.5C 363.541,61.0326 364.541,61.0326 366,71.5C 366.333,68.8333 366.667,66.1667 367,63.5C 367.75,64.1258 368.584,64.6258 369.5,65C 368.677,69.5658 368.01,74.3992 367.5,79.5C 369.924,79.8076 372.257,79.4742 374.5,78.5C 373.494,77.6043 373.494,76.9377 374.5,76.5C 375.452,78.0453 375.785,79.712 375.5,81.5C 373.131,81.1489 370.797,80.9822 368.5,81C 367.231,83.1385 367.231,85.3052 368.5,87.5C 369.59,86.6086 369.59,85.6086 368.5,84.5C 369.325,83.6143 370.325,83.281 371.5,83.5C 371.579,84.9305 371.246,86.2638 370.5,87.5C 371.962,88.4709 373.295,88.1376 374.5,86.5C 373.355,85.109 373.355,83.7757 374.5,82.5C 375.466,84.396 375.799,86.396 375.5,88.5C 383.729,89.897 375.063,90.0637 349.5,89C 350,88.5 350.5,88 351,87.5C 356.315,87.9323 361.482,87.9323 366.5,87.5C 366.167,86.5 365.5,85.8333 364.5,85.5C 363.28,86.7111 362.113,86.7111 361,85.5C 361.086,81.8079 362.419,81.4745 365,84.5C 367.043,82.9125 366.876,81.5791 364.5,80.5C 363.549,81.3256 362.549,81.4922 361.5,81C 361.619,79.7188 361.119,78.5521 360,77.5C 359.667,80.5 359.333,83.5 359,86.5C 358.308,85.9747 357.808,85.3081 357.5,84.5C 358.709,80.8726 357.709,80.0393 354.5,82C 357.525,84.5806 357.192,85.9139 353.5,86C 353.537,84.051 353.037,82.2176 352,80.5C 349.2,81.1253 346.366,81.792 343.5,82.5C 346.167,83.1667 348.833,83.8333 351.5,84.5C 340.862,85.6649 330.195,86.4983 319.5,87C 327.5,88.4886 335.5,88.9886 343.5,88.5C 330.179,89.3327 316.846,89.8327 303.5,90C 342.472,91.4509 381.472,91.9509 420.5,91.5C 280.667,92.6661 140.667,92.8327 0.5,92C 37.8378,91.8333 75.1711,91.3333 112.5,90.5C 85.5062,89.6668 58.5062,89.1668 31.5,89C 34.557,88.7435 37.557,88.2435 40.5,87.5C 41.48,84.9135 41.8134,82.2469 41.5,79.5C 42.8333,79.5 44.1667,79.5 45.5,79.5C 45.012,82.7107 45.6787,85.544 47.5,88C 51.6414,88.1257 55.6414,88.2924 59.5,88.5C 61.3186,88.6578 62.6519,87.9911 63.5,86.5C 57.8774,85.8976 52.2108,85.8976 46.5,86.5C 46.5,84.1667 46.5,81.8333 46.5,79.5C 47.5,79.5 48.5,79.5 49.5,79.5C 49.988,76.2893 49.3213,73.456 47.5,71C 48.4764,64.9242 48.8097,58.7576 48.5,52.5C 49.4896,58.31 49.8229,64.31 49.5,70.5C 53.1667,70.5 56.8333,70.5 60.5,70.5C 60.5,64.5 60.5,58.5 60.5,52.5C 66.0262,52.8214 71.3595,52.4881 76.5,51.5C 77.9587,51.5674 79.2921,51.2341 80.5,50.5C 80.8333,50.5 81.1667,50.5 81.5,50.5C 82.7095,50.0679 83.7095,49.4013 84.5,48.5C 85.7498,48.4226 86.5831,47.756 87,46.5C 88.7985,46.7205 90.6318,47.0539 92.5,47.5C 93.6385,40.9266 94.4718,40.9266 95,47.5C 95.6667,46.1667 96.3333,46.1667 97,47.5C 97.2896,45.9559 97.9563,44.6226 99,43.5C 99.6667,44.8333 100.333,44.8333 101,43.5C 101.333,41.8333 101.667,40.1667 102,38.5C 102.363,41.544 102.863,44.544 103.5,47.5C 104.985,50.0827 107.318,51.416 110.5,51.5C 111.167,51.5 111.833,51.5 112.5,51.5C 112.833,51.5 113.167,51.5 113.5,51.5C 115.265,52.4614 117.265,52.7947 119.5,52.5C 119.209,53.6491 118.376,54.3158 117,54.5C 112.529,53.4873 108.029,53.3206 103.5,54C 104.163,55.5185 105.163,56.6851 106.5,57.5C 108.527,59.1804 110.861,60.3471 113.5,61C 124.161,61.4998 134.828,61.6665 145.5,61.5C 142.023,62.3227 138.356,62.8227 134.5,63C 133.944,63.3826 133.611,63.8826 133.5,64.5C 124.494,64.3336 115.494,64.5002 106.5,65C 105.117,66.4609 105.451,67.2942 107.5,67.5C 108.6,68.5585 109.934,69.3918 111.5,70C 125.496,70.4999 139.496,70.6666 153.5,70.5C 158.451,71.3713 161.118,69.3713 161.5,64.5C 165.888,62.7785 168.222,64.4452 168.5,69.5C 170.993,69.3291 172.826,70.3291 174,72.5C 174.582,69.3323 175.582,68.999 177,71.5C 179.752,70.142 180.252,70.8087 178.5,73.5C 178.556,74.737 179.056,75.737 180,76.5C 180.333,74.1667 180.667,71.8333 181,69.5C 181.359,72.5443 182.026,72.8776 183,70.5C 201.264,71.8308 219.431,71.8308 237.5,70.5C 238.338,70.1583 238.672,69.4916 238.5,68.5C 239.117,68.6107 239.617,68.944 240,69.5C 240.56,63.0393 241.56,63.0393 243,69.5C 244.092,63.1833 245.092,63.5166 246,70.5C 246.333,68.1667 246.667,65.8333 247,63.5C 247.464,69.1748 248.131,69.5081 249,64.5C 249.909,69.7298 251.075,69.7298 252.5,64.5C 253.624,69.7208 254.458,69.7208 255,64.5C 257.612,65.2171 259.778,66.5504 261.5,68.5C 268.636,69.8308 276.136,70.4975 284,70.5C 291.674,70.4997 299.174,70.1664 306.5,69.5C 307.791,69.7373 308.791,69.404 309.5,68.5C 310.906,68.0269 311.573,67.0269 311.5,65.5C 309.052,64.5269 306.385,64.1936 303.5,64.5C 302.365,62.9122 301.031,62.5788 299.5,63.5C 299.167,62.1667 298.833,60.8333 298.5,59.5C 298.783,56.8546 299.117,54.5212 299.5,52.5C 300.318,55.1071 300.818,57.7737 301,60.5C 301.333,57.1667 301.667,53.8333 302,50.5C 302.386,61.0411 303.386,61.0411 305,50.5C 305.333,53.5 305.667,56.5 306,59.5C 307,48.8333 308,48.8333 309,59.5C 309.333,55.5 309.667,51.5 310,47.5C 310.627,50.4499 311.127,53.1166 311.5,55.5C 312.321,52.5535 312.821,49.5535 313,46.5C 313.333,49.8333 313.667,53.1667 314,56.5C 315,43.1667 316,43.1667 317,56.5C 317.333,52.1667 317.667,47.8333 318,43.5C 318.333,46.1667 318.667,48.8333 319,51.5C 320.636,39.6088 321.636,39.6088 322,51.5C 323.113,48.7256 323.613,46.0589 323.5,43.5C 324.318,46.1071 324.818,48.7737 325,51.5C 325.333,47.5 325.667,43.5 326,39.5C 326.333,42.1667 326.667,44.8333 327,47.5C 327.528,40.9266 328.362,40.9266 329.5,47.5C 329.745,45.2552 329.745,42.9219 329.5,40.5C 329.808,39.6919 330.308,39.0253 331,38.5C 331.333,40.1667 331.667,41.8333 332,43.5C 332.865,41.7749 333.531,40.1083 334,38.5C 335.011,39.3366 336.178,39.67 337.5,39.5C 337.286,35.7429 338.286,35.0762 340.5,37.5C 340.296,36.4706 340.796,35.4706 342,34.5C 342.196,36.9045 343.362,38.5711 345.5,39.5C 347.322,39.5374 349.322,39.204 351.5,38.5C 351.543,34.1074 351.043,33.7741 350,37.5C 349.405,35.1191 348.905,33.1191 348.5,31.5C 347.692,33.4233 347.192,35.4233 347,37.5C 346.338,35.1873 345.838,32.854 345.5,30.5C 350.095,31.5108 354.762,31.3442 359.5,30C 356.854,29.5026 354.187,29.3359 351.5,29.5C 351.527,27.8007 352.194,26.4674 353.5,25.5 Z"/></g>
<g><path style="opacity:1" fill="#2b2c32" d="M 240.5,45.5 C 240.167,47.8333 238.833,49.1667 236.5,49.5C 236.804,48.8501 237.137,48.1835 237.5,47.5C 220.179,46.5005 202.846,46.1672 185.5,46.5C 183.828,43.6629 184.494,42.9962 187.5,44.5C 187.998,43.3966 188.331,42.3966 188.5,41.5C 189.833,42.1667 191.167,42.8333 192.5,43.5C 195.478,42.5168 198.645,42.1834 202,42.5C 206.667,43.1667 211.333,43.8333 216,44.5C 216.333,43.8333 216.667,43.1667 217,42.5C 221.618,43.31 226.451,43.31 231.5,42.5C 234.798,42.9139 237.798,43.9139 240.5,45.5 Z"/></g>
<g><path style="opacity:1" fill="#5b5d72" d="M 84.5,48.5 C 83.7095,49.4013 82.7095,50.0679 81.5,50.5C 81.5,49.5 81.5,48.5 81.5,47.5C 74.1667,47.5 66.8333,47.5 59.5,47.5C 57.5,47.5 55.5,47.5 53.5,47.5C 46.1667,47.5 38.8333,47.5 31.5,47.5C 29.7085,47.366 28.0418,47.6993 26.5,48.5C 26.1667,48.5 25.8333,48.5 25.5,48.5C 34.9765,47.1681 44.8099,46.5014 55,46.5C 65.1901,46.5014 75.0235,47.1681 84.5,48.5 Z"/></g>
<g><path style="opacity:1" fill="#686d83" d="M 159.5,48.5 C 151.684,47.5076 143.684,47.1743 135.5,47.5C 128.167,47.5 120.833,47.5 113.5,47.5C 111.901,47.2322 110.568,47.5655 109.5,48.5C 110.694,49.2719 111.694,50.2719 112.5,51.5C 111.833,51.5 111.167,51.5 110.5,51.5C 108.882,50.5489 107.549,49.2156 106.5,47.5C 124.5,46.1667 142.5,46.1667 160.5,47.5C 160.376,48.1067 160.043,48.44 159.5,48.5 Z"/></g>
<g><path style="opacity:1" fill="#70758f" d="M 185.5,46.5 C 202.846,46.1672 220.179,46.5005 237.5,47.5C 237.137,48.1835 236.804,48.8501 236.5,49.5C 235.833,49.5 235.167,49.5 234.5,49.5C 227.03,48.169 219.196,47.5023 211,47.5C 203.167,47.6667 195.333,47.8333 187.5,48C 186.594,49.6995 186.261,51.5328 186.5,53.5C 186.5,53.8333 186.5,54.1667 186.5,54.5C 186.5,55.1667 186.833,55.5 187.5,55.5C 186.134,58.4246 187.134,60.0913 190.5,60.5C 195.833,60.5 201.167,60.5 206.5,60.5C 209.5,60.5 212.5,60.5 215.5,60.5C 219.371,60.185 223.038,60.5184 226.5,61.5C 212.656,61.829 198.99,61.4957 185.5,60.5C 185.5,55.8333 185.5,51.1667 185.5,46.5 Z"/></g>
<g><path style="opacity:1" fill="#535965" d="M 387.5,49.5 C 387.611,48.8826 387.944,48.3826 388.5,48C 380.167,47.8333 371.833,47.6667 363.5,47.5C 354.806,47.502 346.472,48.1687 338.5,49.5C 338.167,49.5 337.833,49.5 337.5,49.5C 336.522,49.189 335.855,48.5223 335.5,47.5C 353.833,46.1667 372.167,46.1667 390.5,47.5C 389.995,48.9185 388.995,49.5852 387.5,49.5 Z"/></g>
<g><path style="opacity:1" fill="#546187" d="M 135.5,47.5 C 143.684,47.1743 151.684,47.5076 159.5,48.5C 158.71,49.4013 157.71,50.0679 156.5,50.5C 156.389,49.8826 156.056,49.3826 155.5,49C 148.654,48.8283 141.987,48.3283 135.5,47.5 Z"/></g>
<g><path style="opacity:1" fill="#323b58" d="M 387.5,49.5 C 387.158,50.3382 386.492,50.6716 385.5,50.5C 373.684,51.0819 362.017,51.7485 350.5,52.5C 347.43,52.6323 344.43,52.299 341.5,51.5C 340.5,50.8333 339.5,50.1667 338.5,49.5C 346.472,48.1687 354.806,47.502 363.5,47.5C 371.833,47.6667 380.167,47.8333 388.5,48C 387.944,48.3826 387.611,48.8826 387.5,49.5 Z"/></g>
<g><path style="opacity:1" fill="#43456f" d="M 31.5,47.5 C 38.8333,47.5 46.1667,47.5 53.5,47.5C 51.9699,49.3465 49.9699,50.3465 47.5,50.5C 43.5,50.5 39.5,50.5 35.5,50.5C 33.368,50.4456 32.0347,49.4456 31.5,47.5 Z"/></g>
<g><path style="opacity:1" fill="#9098e1" d="M 109.5,48.5 C 110.568,47.5655 111.901,47.2322 113.5,47.5C 119.701,48.2372 126.034,49.0705 132.5,50C 134.932,51.0875 134.598,51.5875 131.5,51.5C 124.377,49.9351 117.044,48.9351 109.5,48.5 Z"/></g>
<g><path style="opacity:1" fill="#6874a7" d="M 234.5,49.5 C 233.5,50.1667 232.5,50.8333 231.5,51.5C 219.833,51.5 208.167,51.5 196.5,51.5C 196.5,52.8333 196.5,54.1667 196.5,55.5C 195.833,55.1667 195.167,54.8333 194.5,54.5C 194.5,52.8333 194.5,51.1667 194.5,49.5C 192.167,49.5 189.833,49.5 187.5,49.5C 187.5,50.8333 187.5,52.1667 187.5,53.5C 187.167,53.5 186.833,53.5 186.5,53.5C 186.261,51.5328 186.594,49.6995 187.5,48C 195.333,47.8333 203.167,47.6667 211,47.5C 219.196,47.5023 227.03,48.169 234.5,49.5 Z"/></g>
<g><path style="opacity:1" fill="#6876be" d="M 218.5,48.5 C 223.511,48.3341 228.511,48.5007 233.5,49C 230.402,49.9182 227.235,50.4182 224,50.5C 221.705,50.4535 219.871,49.7868 218.5,48.5 Z"/></g>
<g><path style="opacity:1" fill="#9391d1" d="M 31.5,47.5 C 32.0347,49.4456 33.368,50.4456 35.5,50.5C 35.1583,51.3382 34.4916,51.6716 33.5,51.5C 32.5,51.5 31.5,51.5 30.5,51.5C 29.1667,50.5 27.8333,49.5 26.5,48.5C 28.0418,47.6993 29.7085,47.366 31.5,47.5 Z"/></g>
<g><path style="opacity:1" fill="#8c8cd0" d="M 53.5,47.5 C 55.5,47.5 57.5,47.5 59.5,47.5C 60.8333,48.5 62.1667,49.5 63.5,50.5C 61.095,50.1336 58.7617,49.4669 56.5,48.5C 54.2438,49.1143 52.2438,50.1143 50.5,51.5C 49.209,51.7373 48.209,51.404 47.5,50.5C 49.9699,50.3465 51.9699,49.3465 53.5,47.5 Z"/></g>
<g><path style="opacity:1" fill="#4c5288" d="M 59.5,47.5 C 66.8333,47.5 74.1667,47.5 81.5,47.5C 81.5,48.5 81.5,49.5 81.5,50.5C 81.1667,50.5 80.8333,50.5 80.5,50.5C 75.0058,49.7209 69.3391,49.7209 63.5,50.5C 62.1667,49.5 60.8333,48.5 59.5,47.5 Z"/></g>
<g><path style="opacity:1" fill="#5c6493" d="M 113.5,47.5 C 120.833,47.5 128.167,47.5 135.5,47.5C 141.987,48.3283 148.654,48.8283 155.5,49C 156.056,49.3826 156.389,49.8826 156.5,50.5C 155.527,50.9867 154.527,51.4867 153.5,52C 142.172,52.4999 130.838,52.6665 119.5,52.5C 117.265,52.7947 115.265,52.4614 113.5,51.5C 119.5,51.5 125.5,51.5 131.5,51.5C 134.598,51.5875 134.932,51.0875 132.5,50C 126.034,49.0705 119.701,48.2372 113.5,47.5 Z"/></g>
<g><path style="opacity:1" fill="#7b7cb6" d="M 80.5,50.5 C 79.2921,51.2341 77.9587,51.5674 76.5,51.5C 72.1667,51.5 67.8333,51.5 63.5,51.5C 63.5,51.1667 63.5,50.8333 63.5,50.5C 69.3391,49.7209 75.0058,49.7209 80.5,50.5 Z"/></g>
<g><path style="opacity:1" fill="#5d64a2" d="M 109.5,48.5 C 117.044,48.9351 124.377,49.9351 131.5,51.5C 125.5,51.5 119.5,51.5 113.5,51.5C 113.167,51.5 112.833,51.5 112.5,51.5C 111.694,50.2719 110.694,49.2719 109.5,48.5 Z"/></g>
<g><path style="opacity:1" fill="#222224" d="M 184.5,57.5 C 184.263,58.791 184.596,59.791 185.5,60.5C 198.99,61.4957 212.656,61.829 226.5,61.5C 226.5,62.5 226.5,63.5 226.5,64.5C 215.086,64.1894 203.752,64.5227 192.5,65.5C 189.697,66.0665 187.364,67.3998 185.5,69.5C 202.821,70.4995 220.154,70.8328 237.5,70.5C 219.431,71.8308 201.264,71.8308 183,70.5C 182.026,72.8776 181.359,72.5443 181,69.5C 180.667,71.8333 180.333,74.1667 180,76.5C 179.056,75.737 178.556,74.737 178.5,73.5C 180.252,70.8087 179.752,70.142 177,71.5C 175.582,68.999 174.582,69.3323 174,72.5C 172.826,70.3291 170.993,69.3291 168.5,69.5C 168.222,64.4452 165.888,62.7785 161.5,64.5C 161.118,69.3713 158.451,71.3713 153.5,70.5C 153.5,70.1667 153.5,69.8333 153.5,69.5C 156.614,69.4452 158.948,68.1119 160.5,65.5C 151.682,64.5067 142.682,64.1734 133.5,64.5C 133.611,63.8826 133.944,63.3826 134.5,63C 138.356,62.8227 142.023,62.3227 145.5,61.5C 148.059,61.8016 150.393,61.4682 152.5,60.5C 153.791,60.7373 154.791,60.404 155.5,59.5C 156.609,59.4431 157.609,59.1098 158.5,58.5C 159.404,57.791 159.737,56.791 159.5,55.5C 156.023,54.6773 152.356,54.1773 148.5,54C 152.656,54.0519 156.49,53.2185 160,51.5C 161.395,52.8146 162.395,52.4812 163,50.5C 164.751,51.8088 166.251,51.4755 167.5,49.5C 168.03,50.7562 168.03,52.2562 167.5,54C 168.676,55.9142 169.676,55.7476 170.5,53.5C 172.545,55.4745 174.212,55.4745 175.5,53.5C 176.197,55.3845 177.197,55.7178 178.5,54.5C 179.298,56.0777 179.798,57.7444 180,59.5C 181.049,57.8934 182.549,57.2267 184.5,57.5 Z"/></g>
<g><path style="opacity:1" fill="#444874" d="M 63.5,50.5 C 63.5,50.8333 63.5,51.1667 63.5,51.5C 62.1667,51.5 60.8333,51.5 59.5,51.5C 59.5,53.5 59.5,55.5 59.5,57.5C 56.6973,55.575 53.6973,55.575 50.5,57.5C 50.5,55.5 50.5,53.5 50.5,51.5C 52.2438,50.1143 54.2438,49.1143 56.5,48.5C 58.7617,49.4669 61.095,50.1336 63.5,50.5 Z"/></g>
<g><path style="opacity:1" fill="#6a75c3" d="M 194.5,54.5 C 192.283,53.6314 189.95,53.298 187.5,53.5C 187.5,52.1667 187.5,50.8333 187.5,49.5C 189.833,49.5 192.167,49.5 194.5,49.5C 194.5,51.1667 194.5,52.8333 194.5,54.5 Z"/></g>
<g><path style="opacity:1" fill="#51535b" d="M 385.5,50.5 C 385.082,51.2216 384.416,51.7216 383.5,52C 372.505,52.4998 361.505,52.6665 350.5,52.5C 362.017,51.7485 373.684,51.0819 385.5,50.5 Z"/></g>
<g><path style="opacity:1" fill="#2f303b" d="M 231.5,51.5 C 231.196,52.1499 230.863,52.8165 230.5,53.5C 232.969,54.1681 235.302,54.8347 237.5,55.5C 223.833,55.5 210.167,55.5 196.5,55.5C 196.5,54.1667 196.5,52.8333 196.5,51.5C 208.167,51.5 219.833,51.5 231.5,51.5 Z"/></g>
<g><path style="opacity:1" fill="#22232e" d="M 337.5,49.5 C 337.833,49.5 338.167,49.5 338.5,49.5C 339.5,50.1667 340.5,50.8333 341.5,51.5C 340.596,52.209 340.263,53.209 340.5,54.5C 356.675,54.1703 372.675,54.5036 388.5,55.5C 379.833,55.5 371.167,55.5 362.5,55.5C 361.833,55.5 361.167,55.5 360.5,55.5C 352.833,55.5 345.167,55.5 337.5,55.5C 337.5,53.5 337.5,51.5 337.5,49.5 Z"/></g>
<g><path style="opacity:1" fill="#6970a9" d="M 125.5,55.5 C 131.5,55.5 137.5,55.5 143.5,55.5C 143.5,55.8333 143.5,56.1667 143.5,56.5C 139.012,57.7977 134.512,57.7977 130,56.5C 127.122,56.8306 124.956,58.164 123.5,60.5C 119.181,61.2008 115.514,60.0341 112.5,57C 117.019,56.8247 121.353,56.3247 125.5,55.5 Z"/></g>
<g><path style="opacity:1" fill="#8185b5" d="M 143.5,56.5 C 143.5,56.1667 143.5,55.8333 143.5,55.5C 148.833,55.5 154.167,55.5 159.5,55.5C 159.737,56.791 159.404,57.791 158.5,58.5C 153.694,57.4074 148.694,56.7407 143.5,56.5 Z"/></g>
<g><path style="opacity:1" fill="#898cb4" d="M 196.5,55.5 C 210.167,55.5 223.833,55.5 237.5,55.5C 237.813,59.0419 237.479,62.3752 236.5,65.5C 236.5,65.1667 236.5,64.8333 236.5,64.5C 236.5,61.8333 236.5,59.1667 236.5,56.5C 234.5,56.5 232.5,56.5 230.5,56.5C 218.988,56.8281 207.654,56.4948 196.5,55.5 Z"/></g>
<g><path style="opacity:1" fill="#a3a6ea" d="M 187.5,55.5 C 190.741,56.0374 191.741,57.7041 190.5,60.5C 187.134,60.0913 186.134,58.4246 187.5,55.5 Z"/></g>
<g><path style="opacity:1" fill="#484d76" d="M 362.5,55.5 C 371.167,55.5 379.833,55.5 388.5,55.5C 389.167,55.5 389.5,55.8333 389.5,56.5C 388.662,56.8417 388.328,57.5084 388.5,58.5C 382.529,57.7588 376.529,57.4255 370.5,57.5C 368.097,57.552 365.764,57.2186 363.5,56.5C 362.833,56.5 362.5,56.1667 362.5,55.5 Z"/></g>
<g><path style="opacity:1" fill="#b6b8f6" d="M 143.5,56.5 C 148.694,56.7407 153.694,57.4074 158.5,58.5C 157.609,59.1098 156.609,59.4431 155.5,59.5C 153.283,58.6314 150.95,58.298 148.5,58.5C 145.373,57.1851 142.373,57.5185 139.5,59.5C 136.31,59.4408 133.143,59.1074 130,58.5C 128.319,58.6083 127.152,59.2749 126.5,60.5C 125.5,60.5 124.5,60.5 123.5,60.5C 124.956,58.164 127.122,56.8306 130,56.5C 134.512,57.7977 139.012,57.7977 143.5,56.5 Z"/></g>
<g><path style="opacity:1" fill="#a0a9e9" d="M 186.5,54.5 C 186.5,54.1667 186.5,53.8333 186.5,53.5C 186.833,53.5 187.167,53.5 187.5,53.5C 189.95,53.298 192.283,53.6314 194.5,54.5C 195.167,54.8333 195.833,55.1667 196.5,55.5C 207.654,56.4948 218.988,56.8281 230.5,56.5C 230.389,57.1174 230.056,57.6174 229.5,58C 225.312,58.1762 221.312,58.6762 217.5,59.5C 216.508,59.3284 215.842,59.6618 215.5,60.5C 212.5,60.5 209.5,60.5 206.5,60.5C 205.602,59.8423 204.602,59.1757 203.5,58.5C 197.53,58.0162 191.863,56.6828 186.5,54.5 Z"/></g>
<g><path style="opacity:1" fill="#737dc1" d="M 230.5,56.5 C 232.5,56.5 234.5,56.5 236.5,56.5C 236.5,59.1667 236.5,61.8333 236.5,64.5C 233.484,65.7539 230.818,65.4205 228.5,63.5C 228.67,62.1779 228.337,61.0113 227.5,60C 224.183,59.5017 220.85,59.335 217.5,59.5C 221.312,58.6762 225.312,58.1762 229.5,58C 230.056,57.6174 230.389,57.1174 230.5,56.5 Z"/></g>
<g><path style="opacity:1" fill="#c4c9f6" d="M 263.5,52.5 C 263.5,53.8333 263.5,55.1667 263.5,56.5C 266.167,56.5 268.833,56.5 271.5,56.5C 271.5,57.1667 271.5,57.8333 271.5,58.5C 266.895,57.629 264.228,59.4624 263.5,64C 266.192,64.4298 268.859,64.2631 271.5,63.5C 271.5,64.1667 271.833,64.5 272.5,64.5C 272.5,64.8333 272.5,65.1667 272.5,65.5C 269.813,65.3359 267.146,65.5026 264.5,66C 263.944,66.3826 263.611,66.8826 263.5,67.5C 262.167,62.5 262.167,57.5 263.5,52.5 Z"/></g>
<g><path style="opacity:1" fill="#4f5285" d="M 359.5,56.5 C 357.013,59.2038 354.013,59.8705 350.5,58.5C 346.841,59.1008 343.174,59.7675 339.5,60.5C 341.843,61.2749 344.177,61.9416 346.5,62.5C 346.5,64.1667 346.5,65.8333 346.5,67.5C 343.721,67.2786 341.054,67.612 338.5,68.5C 338.5,64.5 338.5,60.5 338.5,56.5C 345.5,56.5 352.5,56.5 359.5,56.5 Z"/></g>
<g><path style="opacity:1" fill="#c0bdf6" d="M 360.5,55.5 C 361.167,55.5 361.833,55.5 362.5,55.5C 362.5,56.1667 362.833,56.5 363.5,56.5C 364.527,58.1942 365.861,59.5275 367.5,60.5C 366.167,60.5 364.833,60.5 363.5,60.5C 362.5,59.1667 361.5,57.8333 360.5,56.5C 360.5,56.1667 360.5,55.8333 360.5,55.5 Z"/></g>
<g><path style="opacity:1" fill="#4c5296" d="M 370.5,57.5 C 376.529,57.4255 382.529,57.7588 388.5,58.5C 388.5,59.1667 388.5,59.8333 388.5,60.5C 385.833,60.5 383.167,60.5 380.5,60.5C 379.791,59.596 378.791,59.2627 377.5,59.5C 375.167,58.8333 372.833,58.1667 370.5,57.5 Z"/></g>
<g><path style="opacity:1" fill="#6a6c83" d="M 35.5,50.5 C 39.5,50.5 43.5,50.5 47.5,50.5C 48.209,51.404 49.209,51.7373 50.5,51.5C 50.5,53.5 50.5,55.5 50.5,57.5C 50.5,58.1667 50.5,58.8333 50.5,59.5C 50.5,60.5 50.5,61.5 50.5,62.5C 50.5,63.5 50.5,64.5 50.5,65.5C 50.3284,66.4916 50.6618,67.1583 51.5,67.5C 52.9179,69.3079 54.9179,69.9746 57.5,69.5C 59.6977,69.5912 60.0311,68.9245 58.5,67.5C 59.4345,66.4324 59.7678,65.099 59.5,63.5C 59.5,62.5 59.5,61.5 59.5,60.5C 59.5,59.5 59.5,58.5 59.5,57.5C 59.5,55.5 59.5,53.5 59.5,51.5C 60.8333,51.5 62.1667,51.5 63.5,51.5C 67.8333,51.5 72.1667,51.5 76.5,51.5C 71.3595,52.4881 66.0262,52.8214 60.5,52.5C 60.5,58.5 60.5,64.5 60.5,70.5C 56.8333,70.5 53.1667,70.5 49.5,70.5C 49.8229,64.31 49.4896,58.31 48.5,52.5C 43.3054,52.8205 38.3054,52.4872 33.5,51.5C 34.4916,51.6716 35.1583,51.3382 35.5,50.5 Z"/></g>
<g><path style="opacity:1" fill="#5c5d9a" d="M 59.5,57.5 C 59.5,58.5 59.5,59.5 59.5,60.5C 56.6085,59.5975 53.6085,59.2641 50.5,59.5C 50.5,58.8333 50.5,58.1667 50.5,57.5C 53.6973,55.575 56.6973,55.575 59.5,57.5 Z"/></g>
<g><path style="opacity:1" fill="#868bdf" d="M 148.5,58.5 C 145.713,59.4767 142.713,59.81 139.5,59.5C 142.373,57.5185 145.373,57.1851 148.5,58.5 Z"/></g>
<g><path style="opacity:1" fill="#7775c5" d="M 363.5,56.5 C 365.764,57.2186 368.097,57.552 370.5,57.5C 372.833,58.1667 375.167,58.8333 377.5,59.5C 374.14,59.6159 370.807,59.9492 367.5,60.5C 365.861,59.5275 364.527,58.1942 363.5,56.5 Z"/></g>
<g><path style="opacity:1" fill="#afb1f9" d="M 50.5,59.5 C 53.6085,59.2641 56.6085,59.5975 59.5,60.5C 59.5,61.5 59.5,62.5 59.5,63.5C 56.4824,63.2962 53.4824,62.9629 50.5,62.5C 50.5,61.5 50.5,60.5 50.5,59.5 Z"/></g>
<g><path style="opacity:1" fill="#7b81b9" d="M 139.5,59.5 C 142.713,59.81 145.713,59.4767 148.5,58.5C 150.95,58.298 153.283,58.6314 155.5,59.5C 154.791,60.404 153.791,60.7373 152.5,60.5C 143.833,60.5 135.167,60.5 126.5,60.5C 127.152,59.2749 128.319,58.6083 130,58.5C 133.143,59.1074 136.31,59.4408 139.5,59.5 Z"/></g>
<g><path style="opacity:1" fill="#cdd0f4" d="M 186.5,54.5 C 191.863,56.6828 197.53,58.0162 203.5,58.5C 204.602,59.1757 205.602,59.8423 206.5,60.5C 201.167,60.5 195.833,60.5 190.5,60.5C 191.741,57.7041 190.741,56.0374 187.5,55.5C 186.833,55.5 186.5,55.1667 186.5,54.5 Z"/></g>
<g><path style="opacity:1" fill="#7877c0" d="M 359.5,56.5 C 359.833,56.5 360.167,56.5 360.5,56.5C 361.5,57.8333 362.5,59.1667 363.5,60.5C 358.305,60.1795 353.305,60.5128 348.5,61.5C 347.833,61.8333 347.167,62.1667 346.5,62.5C 344.177,61.9416 341.843,61.2749 339.5,60.5C 343.174,59.7675 346.841,59.1008 350.5,58.5C 354.013,59.8705 357.013,59.2038 359.5,56.5 Z"/></g>
<g><path style="opacity:1" fill="#5b6182" d="M 125.5,55.5 C 121.353,56.3247 117.019,56.8247 112.5,57C 115.514,60.0341 119.181,61.2008 123.5,60.5C 124.5,60.5 125.5,60.5 126.5,60.5C 135.167,60.5 143.833,60.5 152.5,60.5C 150.393,61.4682 148.059,61.8016 145.5,61.5C 134.828,61.6665 124.161,61.4998 113.5,61C 110.861,60.3471 108.527,59.1804 106.5,57.5C 112.412,55.5437 118.745,54.8771 125.5,55.5 Z"/></g>
<g><path style="opacity:1" fill="#65658c" d="M 377.5,59.5 C 378.791,59.2627 379.791,59.596 380.5,60.5C 379.243,61.6226 379.576,62.2893 381.5,62.5C 380.709,64.6907 380.709,66.6907 381.5,68.5C 381.5,69.1667 381.5,69.8333 381.5,70.5C 380.504,70.5858 379.671,70.2524 379,69.5C 378.503,66.854 378.336,64.1873 378.5,61.5C 368.5,61.5 358.5,61.5 348.5,61.5C 353.305,60.5128 358.305,60.1795 363.5,60.5C 364.833,60.5 366.167,60.5 367.5,60.5C 370.807,59.9492 374.14,59.6159 377.5,59.5 Z"/></g>
<g><path style="opacity:1" fill="#1a1a27" d="M 348.5,62.5 C 348.5,62.1667 348.5,61.8333 348.5,61.5C 358.5,61.5 368.5,61.5 378.5,61.5C 378.336,64.1873 378.503,66.854 379,69.5C 379.671,70.2524 380.504,70.5858 381.5,70.5C 383.833,70.5 386.167,70.5 388.5,70.5C 388.585,71.9953 387.919,72.9953 386.5,73.5C 383.772,72.8546 381.105,72.0213 378.5,71C 377.556,68.2809 377.223,65.4475 377.5,62.5C 372.5,62.5 367.5,62.5 362.5,62.5C 357.833,62.5 353.167,62.5 348.5,62.5 Z"/></g>
<g><path style="opacity:1" fill="#b2b1f4" d="M 380.5,60.5 C 383.167,60.5 385.833,60.5 388.5,60.5C 388.5,61.1667 388.5,61.8333 388.5,62.5C 386.167,62.5 383.833,62.5 381.5,62.5C 379.576,62.2893 379.243,61.6226 380.5,60.5 Z"/></g>
<g><path style="opacity:1" fill="#7f7faa" d="M 389.5,56.5 C 389.5,60.8333 389.5,65.1667 389.5,69.5C 389.5,70.1667 389.167,70.5 388.5,70.5C 386.167,70.5 383.833,70.5 381.5,70.5C 381.5,69.8333 381.5,69.1667 381.5,68.5C 386.141,68.8922 388.474,66.8922 388.5,62.5C 388.5,61.8333 388.5,61.1667 388.5,60.5C 388.5,59.8333 388.5,59.1667 388.5,58.5C 388.328,57.5084 388.662,56.8417 389.5,56.5 Z"/></g>
<g><path style="opacity:1" fill="#484b8b" d="M 50.5,62.5 C 53.4824,62.9629 56.4824,63.2962 59.5,63.5C 59.7678,65.099 59.4345,66.4324 58.5,67.5C 55.994,66.2504 53.3274,65.5838 50.5,65.5C 50.5,64.5 50.5,63.5 50.5,62.5 Z"/></g>
<g><path style="opacity:1" fill="#565a6b" d="M 133.5,64.5 C 142.682,64.1734 151.682,64.5067 160.5,65.5C 150.833,65.5 141.167,65.5 131.5,65.5C 123.097,64.8665 115.097,65.5332 107.5,67.5C 105.451,67.2942 105.117,66.4609 106.5,65C 115.494,64.5002 124.494,64.3336 133.5,64.5 Z"/></g>
<g><path style="opacity:1" fill="#b7bffb" d="M 228.5,63.5 C 230.818,65.4205 233.484,65.7539 236.5,64.5C 236.5,64.8333 236.5,65.1667 236.5,65.5C 236.5,66.1667 236.167,66.5 235.5,66.5C 233.167,66.5 230.833,66.5 228.5,66.5C 227.375,65.3478 227.375,64.3478 228.5,63.5 Z"/></g>
<g><path style="opacity:1" fill="#6b6c8a" d="M 337.5,55.5 C 345.167,55.5 352.833,55.5 360.5,55.5C 360.5,55.8333 360.5,56.1667 360.5,56.5C 360.167,56.5 359.833,56.5 359.5,56.5C 352.5,56.5 345.5,56.5 338.5,56.5C 338.5,60.5 338.5,64.5 338.5,68.5C 341.287,69.4767 344.287,69.81 347.5,69.5C 344.375,70.4794 341.042,70.8128 337.5,70.5C 337.5,65.5 337.5,60.5 337.5,55.5 Z"/></g>
<g><path style="opacity:1" fill="#595d69" d="M 348.5,61.5 C 348.5,61.8333 348.5,62.1667 348.5,62.5C 348.802,65.0593 348.468,67.3926 347.5,69.5C 347.672,68.5084 347.338,67.8417 346.5,67.5C 346.5,65.8333 346.5,64.1667 346.5,62.5C 347.167,62.1667 347.833,61.8333 348.5,61.5 Z"/></g>
<g><path style="opacity:1" fill="#6e73ad" d="M 131.5,65.5 C 131.5,65.8333 131.5,66.1667 131.5,66.5C 123.981,66.175 116.648,66.5084 109.5,67.5C 108.833,67.5 108.167,67.5 107.5,67.5C 115.097,65.5332 123.097,64.8665 131.5,65.5 Z"/></g>
<g><path style="opacity:1" fill="#686e98" d="M 215.5,60.5 C 215.842,59.6618 216.508,59.3284 217.5,59.5C 220.85,59.335 224.183,59.5017 227.5,60C 228.337,61.0113 228.67,62.1779 228.5,63.5C 227.375,64.3478 227.375,65.3478 228.5,66.5C 221.5,66.5 214.5,66.5 207.5,66.5C 202.5,66.5 197.5,66.5 192.5,66.5C 192.5,66.1667 192.5,65.8333 192.5,65.5C 203.752,64.5227 215.086,64.1894 226.5,64.5C 226.5,63.5 226.5,62.5 226.5,61.5C 223.038,60.5184 219.371,60.185 215.5,60.5 Z"/></g>
<g><path style="opacity:1" fill="#646aba" d="M 272.5,65.5 C 274.288,65.2148 275.955,65.5481 277.5,66.5C 272.88,67.4933 268.214,67.8266 263.5,67.5C 263.611,66.8826 263.944,66.3826 264.5,66C 267.146,65.5026 269.813,65.3359 272.5,65.5 Z"/></g>
<g><path style="opacity:1" fill="#9f9dde" d="M 311.5,65.5 C 311.573,67.0269 310.906,68.0269 309.5,68.5C 306.006,67.0693 302.339,66.236 298.5,66C 302.821,65.501 307.154,65.3343 311.5,65.5 Z"/></g>
<g><path style="opacity:1" fill="#5c5c97" d="M 381.5,62.5 C 383.833,62.5 386.167,62.5 388.5,62.5C 388.474,66.8922 386.141,68.8922 381.5,68.5C 380.709,66.6907 380.709,64.6907 381.5,62.5 Z"/></g>
<g><path style="opacity:1" fill="#bdbdf6" d="M 50.5,65.5 C 53.3274,65.5838 55.994,66.2504 58.5,67.5C 60.0311,68.9245 59.6977,69.5912 57.5,69.5C 55.8984,67.9261 53.8984,67.2594 51.5,67.5C 50.6618,67.1583 50.3284,66.4916 50.5,65.5 Z"/></g>
<g><path style="opacity:1" fill="#45508a" d="M 109.5,67.5 C 116.648,66.5084 123.981,66.175 131.5,66.5C 135.514,66.3345 139.514,66.5012 143.5,67C 133.526,68.0541 123.526,68.5541 113.5,68.5C 112.041,68.5674 110.708,68.2341 109.5,67.5 Z"/></g>
<g><path style="opacity:1" fill="#535b8c" d="M 272.5,65.5 C 272.5,65.1667 272.5,64.8333 272.5,64.5C 272.833,64.5 273.167,64.5 273.5,64.5C 283.5,64.5 293.5,64.5 303.5,64.5C 306.385,64.1936 309.052,64.5269 311.5,65.5C 307.154,65.3343 302.821,65.501 298.5,66C 302.339,66.236 306.006,67.0693 309.5,68.5C 308.791,69.404 307.791,69.7373 306.5,69.5C 291.794,70.1495 277.461,69.4828 263.5,67.5C 268.214,67.8266 272.88,67.4933 277.5,66.5C 275.955,65.5481 274.288,65.2148 272.5,65.5 Z"/></g>
<g><path style="opacity:1" fill="#4f4e8f" d="M 51.5,67.5 C 53.8984,67.2594 55.8984,67.9261 57.5,69.5C 54.9179,69.9746 52.9179,69.3079 51.5,67.5 Z"/></g>
<g><path style="opacity:1" fill="#495479" d="M 131.5,66.5 C 131.5,66.1667 131.5,65.8333 131.5,65.5C 141.167,65.5 150.833,65.5 160.5,65.5C 158.948,68.1119 156.614,69.4452 153.5,69.5C 139.99,69.8289 126.656,69.4956 113.5,68.5C 123.526,68.5541 133.526,68.0541 143.5,67C 139.514,66.5012 135.514,66.3345 131.5,66.5 Z"/></g>
<g><path style="opacity:1" fill="#807ec2" d="M 346.5,67.5 C 347.338,67.8417 347.672,68.5084 347.5,69.5C 344.287,69.81 341.287,69.4767 338.5,68.5C 341.054,67.612 343.721,67.2786 346.5,67.5 Z"/></g>
<g><path style="opacity:1" fill="#5a6274" d="M 107.5,67.5 C 108.167,67.5 108.833,67.5 109.5,67.5C 110.708,68.2341 112.041,68.5674 113.5,68.5C 126.656,69.4956 139.99,69.8289 153.5,69.5C 153.5,69.8333 153.5,70.1667 153.5,70.5C 139.496,70.6666 125.496,70.4999 111.5,70C 109.934,69.3918 108.6,68.5585 107.5,67.5 Z"/></g>
<g><path style="opacity:1" fill="#616982" d="M 237.5,55.5 C 238.485,59.6344 238.818,63.9677 238.5,68.5C 238.672,69.4916 238.338,70.1583 237.5,70.5C 220.154,70.8328 202.821,70.4995 185.5,69.5C 187.364,67.3998 189.697,66.0665 192.5,65.5C 192.5,65.8333 192.5,66.1667 192.5,66.5C 191.596,67.209 191.263,68.209 191.5,69.5C 203.505,69.6665 215.505,69.4999 227.5,69C 230.675,69.0533 233.342,68.22 235.5,66.5C 236.167,66.5 236.5,66.1667 236.5,65.5C 237.479,62.3752 237.813,59.0419 237.5,55.5 Z"/></g>
<g><path style="opacity:1" fill="#5a68a4" d="M 192.5,66.5 C 194.571,67.8086 197.071,68.4752 200,68.5C 202.929,68.4752 205.429,67.8086 207.5,66.5C 214.5,66.5 221.5,66.5 228.5,66.5C 230.833,66.5 233.167,66.5 235.5,66.5C 233.342,68.22 230.675,69.0533 227.5,69C 215.505,69.4999 203.505,69.6665 191.5,69.5C 191.263,68.209 191.596,67.209 192.5,66.5 Z"/></g>
<g><path style="opacity:1" fill="#6470c2" d="M 192.5,66.5 C 197.5,66.5 202.5,66.5 207.5,66.5C 205.429,67.8086 202.929,68.4752 200,68.5C 197.071,68.4752 194.571,67.8086 192.5,66.5 Z"/></g>
<g><path style="opacity:1" fill="#60677a" d="M 272.5,64.5 C 271.833,64.5 271.5,64.1667 271.5,63.5C 271.5,61.8333 271.5,60.1667 271.5,58.5C 271.5,57.8333 271.5,57.1667 271.5,56.5C 271.5,55.1667 271.5,53.8333 271.5,52.5C 271.5,51.1667 271.5,49.8333 271.5,48.5C 268.833,48.5 266.167,48.5 263.5,48.5C 263.5,49.8333 263.5,51.1667 263.5,52.5C 262.167,57.5 262.167,62.5 263.5,67.5C 277.461,69.4828 291.794,70.1495 306.5,69.5C 299.174,70.1664 291.674,70.4997 284,70.5C 276.136,70.4975 268.636,69.8308 261.5,68.5C 261.334,61.4921 261.5,54.4921 262,47.5C 265.394,46.5442 268.894,46.2108 272.5,46.5C 272.5,52.5 272.5,58.5 272.5,64.5 Z"/></g>
<g><path style="opacity:1" fill="#6f77b5" d="M 271.5,58.5 C 271.5,60.1667 271.5,61.8333 271.5,63.5C 268.859,64.2631 266.192,64.4298 263.5,64C 264.228,59.4624 266.895,57.629 271.5,58.5 Z"/></g>
<g><path style="opacity:1" fill="#9499e2" d="M 263.5,52.5 C 266.167,52.5 268.833,52.5 271.5,52.5C 271.5,53.8333 271.5,55.1667 271.5,56.5C 268.833,56.5 266.167,56.5 263.5,56.5C 263.5,55.1667 263.5,53.8333 263.5,52.5 Z"/></g>
<g><path style="opacity:1" fill="#5d6ca4" d="M 271.5,52.5 C 268.833,52.5 266.167,52.5 263.5,52.5C 263.5,51.1667 263.5,49.8333 263.5,48.5C 266.167,48.5 268.833,48.5 271.5,48.5C 271.5,49.8333 271.5,51.1667 271.5,52.5 Z"/></g>
<g><path style="opacity:1" fill="#0d0d0d" d="M -0.5,93.5 C 140.167,93.5 280.833,93.5 421.5,93.5C 421.5,93.8333 421.5,94.1667 421.5,94.5C 395.532,95.0271 370.365,95.0271 346,94.5C 341.201,95.3483 336.368,96.015 331.5,96.5C 220.99,96.1276 110.323,96.1276 -0.5,96.5C -0.5,95.5 -0.5,94.5 -0.5,93.5 Z"/></g>
<g><path style="opacity:1" fill="#131313" d="M 421.5,94.5 C 421.5,102.167 421.5,109.833 421.5,117.5C 280.833,117.5 140.167,117.5 -0.5,117.5C -0.5,110.5 -0.5,103.5 -0.5,96.5C 110.323,96.1276 220.99,96.1276 331.5,96.5C 336.368,96.015 341.201,95.3483 346,94.5C 370.365,95.0271 395.532,95.0271 421.5,94.5 Z"/></g>
</svg>
